solid OpenSCAD_Model
  facet normal 0 0 -1
    outer loop
      vertex -3 0 0
      vertex -2.93444 0.623735 0
      vertex -2.93444 -0.623735 0
    endloop
  endfacet
  facet normal 0 0 -1
    outer loop
      vertex -2.93444 -0.623735 0
      vertex -2.93444 0.623735 0
      vertex -2.74064 1.22021 0
    endloop
  endfacet
  facet normal 0 0 -1
    outer loop
      vertex -2.93444 -0.623735 0
      vertex -2.74064 1.22021 0
      vertex -2.42705 1.76336 0
    endloop
  endfacet
  facet normal 0 0 -1
    outer loop
      vertex -2.93444 -0.623735 0
      vertex -2.42705 1.76336 0
      vertex -2.00739 2.22943 0
    endloop
  endfacet
  facet normal 0 0 -1
    outer loop
      vertex -2.93444 -0.623735 0
      vertex -2.00739 2.22943 0
      vertex -1.5 2.59808 0
    endloop
  endfacet
  facet normal 0 0 -1
    outer loop
      vertex -2.93444 -0.623735 0
      vertex -1.5 2.59808 0
      vertex -0.927051 2.85317 0
    endloop
  endfacet
  facet normal 0 0 -1
    outer loop
      vertex -2.93444 -0.623735 0
      vertex -0.927051 2.85317 0
      vertex -0.313585 2.98357 0
    endloop
  endfacet
  facet normal 0 0 -1
    outer loop
      vertex -1 1.73205 0
      vertex -0.313585 2.98357 0
      vertex 0.313585 2.98357 0
    endloop
  endfacet
  facet normal 0 0 -1
    outer loop
      vertex -0.209057 1.98904 0
      vertex 0.313585 2.98357 0
      vertex 0.927051 2.85317 0
    endloop
  endfacet
  facet normal 0 0 -1
    outer loop
      vertex 0.209057 1.98904 0
      vertex 0.927051 2.85317 0
      vertex 1.5 2.59808 0
    endloop
  endfacet
  facet normal 0 0 -1
    outer loop
      vertex 1 1.73205 0
      vertex 1.5 2.59808 0
      vertex 2.00739 2.22943 0
    endloop
  endfacet
  facet normal 0 0 -1
    outer loop
      vertex 1.33826 1.48629 0
      vertex 2.00739 2.22943 0
      vertex 2.42705 1.76336 0
    endloop
  endfacet
  facet normal 0 0 -1
    outer loop
      vertex 1.61803 1.17557 0
      vertex 2.42705 1.76336 0
      vertex 2.74064 1.22021 0
    endloop
  endfacet
  facet normal 0 0 -1
    outer loop
      vertex 1.82709 0.813473 0
      vertex 2.74064 1.22021 0
      vertex 2.93444 0.623735 0
    endloop
  endfacet
  facet normal 0 0 -1
    outer loop
      vertex 2 0 0
      vertex 2.93444 0.623735 0
      vertex 3 0 0
    endloop
  endfacet
  facet normal 0 0 -1
    outer loop
      vertex 1.95629 -0.415823 0
      vertex 3 0 0
      vertex 2.93444 -0.623735 0
    endloop
  endfacet
  facet normal 0 0 -1
    outer loop
      vertex 1.82709 -0.813473 0
      vertex 2.93444 -0.623735 0
      vertex 2.74064 -1.22021 0
    endloop
  endfacet
  facet normal 0 0 -1
    outer loop
      vertex 1.33826 -1.48629 0
      vertex 2.74064 -1.22021 0
      vertex 2.42705 -1.76336 0
    endloop
  endfacet
  facet normal 0 0 -1
    outer loop
      vertex 1 -1.73205 0
      vertex 2.42705 -1.76336 0
      vertex 2.00739 -2.22943 0
    endloop
  endfacet
  facet normal 0 0 -1
    outer loop
      vertex 0.209057 -1.98904 0
      vertex 2.00739 -2.22943 0
      vertex 1.5 -2.59808 0
    endloop
  endfacet
  facet normal 0 0 -1
    outer loop
      vertex -0.618034 -1.90211 0
      vertex 1.5 -2.59808 0
      vertex 0.927051 -2.85317 0
    endloop
  endfacet
  facet normal 0 0 -1
    outer loop
      vertex -2.93444 -0.623735 0
      vertex 0.927051 -2.85317 0
      vertex 0.313585 -2.98357 0
    endloop
  endfacet
  facet normal 0 0 -1
    outer loop
      vertex -2.93444 -0.623735 0
      vertex 0.313585 -2.98357 0
      vertex -0.313585 -2.98357 0
    endloop
  endfacet
  facet normal 0 0 -1
    outer loop
      vertex -2.93444 -0.623735 0
      vertex -0.313585 -2.98357 0
      vertex -0.927051 -2.85317 0
    endloop
  endfacet
  facet normal 0 0 -1
    outer loop
      vertex -2.93444 -0.623735 0
      vertex -0.927051 -2.85317 0
      vertex -1.5 -2.59808 0
    endloop
  endfacet
  facet normal 0 0 -1
    outer loop
      vertex -2.93444 -0.623735 0
      vertex -1.5 -2.59808 0
      vertex -2.00739 -2.22943 0
    endloop
  endfacet
  facet normal 0 0 -1
    outer loop
      vertex -2.93444 -0.623735 0
      vertex -2.00739 -2.22943 0
      vertex -2.42705 -1.76336 0
    endloop
  endfacet
  facet normal 0 0 -1
    outer loop
      vertex -2.93444 -0.623735 0
      vertex -2.42705 -1.76336 0
      vertex -2.74064 -1.22021 0
    endloop
  endfacet
  facet normal 0 0 -1
    outer loop
      vertex -1.95629 -0.415823 0
      vertex -2.93444 -0.623735 0
      vertex -2 0 0
    endloop
  endfacet
  facet normal 0 0 -1
    outer loop
      vertex 2 0 0
      vertex 3 0 0
      vertex 1.95629 -0.415823 0
    endloop
  endfacet
  facet normal 0 0 -1
    outer loop
      vertex -1.82709 -0.813473 0
      vertex -2.93444 -0.623735 0
      vertex -1.95629 -0.415823 0
    endloop
  endfacet
  facet normal 0 0 -1
    outer loop
      vertex -1.61803 -1.17557 0
      vertex -2.93444 -0.623735 0
      vertex -1.82709 -0.813473 0
    endloop
  endfacet
  facet normal 0 0 -1
    outer loop
      vertex -1.33826 -1.48629 0
      vertex -2.93444 -0.623735 0
      vertex -1.61803 -1.17557 0
    endloop
  endfacet
  facet normal 0 0 -1
    outer loop
      vertex -0.618034 -1.90211 0
      vertex 0.927051 -2.85317 0
      vertex -1 -1.73205 0
    endloop
  endfacet
  facet normal 0 0 -1
    outer loop
      vertex -2.93444 -0.623735 0
      vertex -1.33826 -1.48629 0
      vertex -1 -1.73205 0
    endloop
  endfacet
  facet normal 0 0 -1
    outer loop
      vertex -2.93444 -0.623735 0
      vertex -1 -1.73205 0
      vertex 0.927051 -2.85317 0
    endloop
  endfacet
  facet normal 0 0 -1
    outer loop
      vertex -0.209057 -1.98904 0
      vertex 1.5 -2.59808 0
      vertex -0.618034 -1.90211 0
    endloop
  endfacet
  facet normal 0 0 -1
    outer loop
      vertex 0.209057 -1.98904 0
      vertex 1.5 -2.59808 0
      vertex -0.209057 -1.98904 0
    endloop
  endfacet
  facet normal 0 0 -1
    outer loop
      vertex 0.618034 -1.90211 0
      vertex 2.00739 -2.22943 0
      vertex 0.209057 -1.98904 0
    endloop
  endfacet
  facet normal 0 0 -1
    outer loop
      vertex 1 -1.73205 0
      vertex 2.00739 -2.22943 0
      vertex 0.618034 -1.90211 0
    endloop
  endfacet
  facet normal 0 0 -1
    outer loop
      vertex 1.61803 -1.17557 0
      vertex 2.74064 -1.22021 0
      vertex 1.33826 -1.48629 0
    endloop
  endfacet
  facet normal 0 0 -1
    outer loop
      vertex 1.82709 -0.813473 0
      vertex 2.74064 -1.22021 0
      vertex 1.61803 -1.17557 0
    endloop
  endfacet
  facet normal 0 0 -1
    outer loop
      vertex 1.33826 -1.48629 0
      vertex 2.42705 -1.76336 0
      vertex 1 -1.73205 0
    endloop
  endfacet
  facet normal 0 0 -1
    outer loop
      vertex 1.95629 0.415823 0
      vertex 2.93444 0.623735 0
      vertex 2 0 0
    endloop
  endfacet
  facet normal 0 0 -1
    outer loop
      vertex 1.61803 1.17557 0
      vertex 2.74064 1.22021 0
      vertex 1.82709 0.813473 0
    endloop
  endfacet
  facet normal 0 0 -1
    outer loop
      vertex 1.82709 0.813473 0
      vertex 2.93444 0.623735 0
      vertex 1.95629 0.415823 0
    endloop
  endfacet
  facet normal 0 0 -1
    outer loop
      vertex 0.618034 1.90211 0
      vertex 1.5 2.59808 0
      vertex 1 1.73205 0
    endloop
  endfacet
  facet normal 0 0 -1
    outer loop
      vertex 0.209057 1.98904 0
      vertex 1.5 2.59808 0
      vertex 0.618034 1.90211 0
    endloop
  endfacet
  facet normal 0 0 -1
    outer loop
      vertex 1 1.73205 0
      vertex 2.00739 2.22943 0
      vertex 1.33826 1.48629 0
    endloop
  endfacet
  facet normal 0 0 -1
    outer loop
      vertex -0.618034 1.90211 0
      vertex 0.313585 2.98357 0
      vertex -0.209057 1.98904 0
    endloop
  endfacet
  facet normal 0 0 -1
    outer loop
      vertex -1.33826 1.48629 0
      vertex -0.313585 2.98357 0
      vertex -1 1.73205 0
    endloop
  endfacet
  facet normal 0 0 -1
    outer loop
      vertex -1.82709 0.813473 0
      vertex -2.93444 -0.623735 0
      vertex -1.61803 1.17557 0
    endloop
  endfacet
  facet normal 0 0 -1
    outer loop
      vertex -1.61803 1.17557 0
      vertex -0.313585 2.98357 0
      vertex -1.33826 1.48629 0
    endloop
  endfacet
  facet normal 0 0 -1
    outer loop
      vertex -2.93444 -0.623735 0
      vertex -0.313585 2.98357 0
      vertex -1.61803 1.17557 0
    endloop
  endfacet
  facet normal 0 0 -1
    outer loop
      vertex -1.95629 0.415823 0
      vertex -2.93444 -0.623735 0
      vertex -1.82709 0.813473 0
    endloop
  endfacet
  facet normal 0 0 -1
    outer loop
      vertex 1.33826 1.48629 0
      vertex 2.42705 1.76336 0
      vertex 1.61803 1.17557 0
    endloop
  endfacet
  facet normal 0 0 -1
    outer loop
      vertex -2 0 0
      vertex -2.93444 -0.623735 0
      vertex -1.95629 0.415823 0
    endloop
  endfacet
  facet normal 0 0 -1
    outer loop
      vertex -1 1.73205 0
      vertex 0.313585 2.98357 0
      vertex -0.618034 1.90211 0
    endloop
  endfacet
  facet normal 0 0 -1
    outer loop
      vertex -0.209057 1.98904 0
      vertex 0.927051 2.85317 0
      vertex 0.209057 1.98904 0
    endloop
  endfacet
  facet normal 0 0 -1
    outer loop
      vertex 1.95629 -0.415823 0
      vertex 2.93444 -0.623735 0
      vertex 1.82709 -0.813473 0
    endloop
  endfacet
  facet normal -0.994522 0.104528 0
    outer loop
      vertex -3 0 0
      vertex -3 0 6
      vertex -2.93444 0.623735 0
    endloop
  endfacet
  facet normal -0.994522 0.104528 0
    outer loop
      vertex -2.93444 0.623735 0
      vertex -3 0 6
      vertex -2.93444 0.623735 6
    endloop
  endfacet
  facet normal -0.994522 -0.104528 0
    outer loop
      vertex -3 0 0
      vertex -2.93444 -0.623735 0
      vertex -3 0 6
    endloop
  endfacet
  facet normal -0.994522 -0.104528 0
    outer loop
      vertex -3 0 6
      vertex -2.93444 -0.623735 0
      vertex -2.93444 -0.623735 6
    endloop
  endfacet
  facet normal -0.951056 -0.309018 0
    outer loop
      vertex -2.93444 -0.623735 0
      vertex -2.74064 -1.22021 0
      vertex -2.93444 -0.623735 6
    endloop
  endfacet
  facet normal -0.951056 -0.309018 0
    outer loop
      vertex -2.93444 -0.623735 6
      vertex -2.74064 -1.22021 0
      vertex -2.74064 -1.22021 6
    endloop
  endfacet
  facet normal -0.866026 -0.499999 0
    outer loop
      vertex -2.74064 -1.22021 0
      vertex -2.42705 -1.76336 0
      vertex -2.74064 -1.22021 6
    endloop
  endfacet
  facet normal -0.866026 -0.499999 0
    outer loop
      vertex -2.74064 -1.22021 6
      vertex -2.42705 -1.76336 0
      vertex -2.42705 -1.76336 6
    endloop
  endfacet
  facet normal -0.743144 -0.669131 0
    outer loop
      vertex -2.42705 -1.76336 0
      vertex -2.00739 -2.22943 0
      vertex -2.42705 -1.76336 6
    endloop
  endfacet
  facet normal -0.743144 -0.669131 0
    outer loop
      vertex -2.42705 -1.76336 6
      vertex -2.00739 -2.22943 0
      vertex -2.00739 -2.22943 6
    endloop
  endfacet
  facet normal -0.587785 -0.809017 0
    outer loop
      vertex -2.00739 -2.22943 6
      vertex -2.00739 -2.22943 0
      vertex -1.5 -2.59808 0
    endloop
  endfacet
  facet normal -0.587785 -0.809017 0
    outer loop
      vertex -1.5 -2.59808 6
      vertex -2.00739 -2.22943 6
      vertex -1.5 -2.59808 0
    endloop
  endfacet
  facet normal -0.406738 -0.913545 0
    outer loop
      vertex -1.5 -2.59808 6
      vertex -1.5 -2.59808 0
      vertex -0.927051 -2.85317 0
    endloop
  endfacet
  facet normal -0.406738 -0.913545 0
    outer loop
      vertex -0.927051 -2.85317 6
      vertex -1.5 -2.59808 6
      vertex -0.927051 -2.85317 0
    endloop
  endfacet
  facet normal -0.207911 -0.978148 0
    outer loop
      vertex -0.927051 -2.85317 6
      vertex -0.927051 -2.85317 0
      vertex -0.313585 -2.98357 0
    endloop
  endfacet
  facet normal -0.207911 -0.978148 0
    outer loop
      vertex -0.313585 -2.98357 6
      vertex -0.927051 -2.85317 6
      vertex -0.313585 -2.98357 0
    endloop
  endfacet
  facet normal 0 -1 0
    outer loop
      vertex -0.313585 -2.98357 6
      vertex -0.313585 -2.98357 0
      vertex 0.313585 -2.98357 0
    endloop
  endfacet
  facet normal 0 -1 0
    outer loop
      vertex 0.313585 -2.98357 6
      vertex -0.313585 -2.98357 6
      vertex 0.313585 -2.98357 0
    endloop
  endfacet
  facet normal 0.207911 -0.978148 0
    outer loop
      vertex 0.313585 -2.98357 6
      vertex 0.313585 -2.98357 0
      vertex 0.927051 -2.85317 0
    endloop
  endfacet
  facet normal 0.207911 -0.978148 0
    outer loop
      vertex 0.927051 -2.85317 6
      vertex 0.313585 -2.98357 6
      vertex 0.927051 -2.85317 0
    endloop
  endfacet
  facet normal 0.406738 -0.913545 0
    outer loop
      vertex 0.927051 -2.85317 6
      vertex 0.927051 -2.85317 0
      vertex 1.5 -2.59808 0
    endloop
  endfacet
  facet normal 0.406738 -0.913545 0
    outer loop
      vertex 1.5 -2.59808 6
      vertex 0.927051 -2.85317 6
      vertex 1.5 -2.59808 0
    endloop
  endfacet
  facet normal 0.587785 -0.809017 0
    outer loop
      vertex 1.5 -2.59808 6
      vertex 1.5 -2.59808 0
      vertex 2.00739 -2.22943 0
    endloop
  endfacet
  facet normal 0.587785 -0.809017 0
    outer loop
      vertex 2.00739 -2.22943 6
      vertex 1.5 -2.59808 6
      vertex 2.00739 -2.22943 0
    endloop
  endfacet
  facet normal 0.743144 -0.669131 0
    outer loop
      vertex 2.00739 -2.22943 6
      vertex 2.00739 -2.22943 0
      vertex 2.42705 -1.76336 0
    endloop
  endfacet
  facet normal 0.743144 -0.669131 0
    outer loop
      vertex 2.42705 -1.76336 6
      vertex 2.00739 -2.22943 6
      vertex 2.42705 -1.76336 0
    endloop
  endfacet
  facet normal 0.866026 -0.499999 0
    outer loop
      vertex 2.42705 -1.76336 6
      vertex 2.42705 -1.76336 0
      vertex 2.74064 -1.22021 0
    endloop
  endfacet
  facet normal 0.866026 -0.499999 0
    outer loop
      vertex 2.74064 -1.22021 6
      vertex 2.42705 -1.76336 6
      vertex 2.74064 -1.22021 0
    endloop
  endfacet
  facet normal 0.951056 -0.309018 0
    outer loop
      vertex 2.74064 -1.22021 6
      vertex 2.74064 -1.22021 0
      vertex 2.93444 -0.623735 0
    endloop
  endfacet
  facet normal 0.951056 -0.309018 0
    outer loop
      vertex 2.93444 -0.623735 6
      vertex 2.74064 -1.22021 6
      vertex 2.93444 -0.623735 0
    endloop
  endfacet
  facet normal 0.994522 -0.104528 0
    outer loop
      vertex 2.93444 -0.623735 6
      vertex 2.93444 -0.623735 0
      vertex 3 0 0
    endloop
  endfacet
  facet normal 0.994522 -0.104528 0
    outer loop
      vertex 3 0 6
      vertex 2.93444 -0.623735 6
      vertex 3 0 0
    endloop
  endfacet
  facet normal 0.994522 0.104528 0
    outer loop
      vertex 3 0 0
      vertex 2.93444 0.623735 0
      vertex 2.93444 0.623735 6
    endloop
  endfacet
  facet normal 0.994522 0.104528 0
    outer loop
      vertex 3 0 6
      vertex 3 0 0
      vertex 2.93444 0.623735 6
    endloop
  endfacet
  facet normal 0.951056 0.309018 0
    outer loop
      vertex 2.93444 0.623735 0
      vertex 2.74064 1.22021 0
      vertex 2.74064 1.22021 6
    endloop
  endfacet
  facet normal 0.951056 0.309018 0
    outer loop
      vertex 2.93444 0.623735 6
      vertex 2.93444 0.623735 0
      vertex 2.74064 1.22021 6
    endloop
  endfacet
  facet normal 0.866026 0.499999 0
    outer loop
      vertex 2.74064 1.22021 0
      vertex 2.42705 1.76336 0
      vertex 2.42705 1.76336 6
    endloop
  endfacet
  facet normal 0.866026 0.499999 0
    outer loop
      vertex 2.74064 1.22021 6
      vertex 2.74064 1.22021 0
      vertex 2.42705 1.76336 6
    endloop
  endfacet
  facet normal 0.743144 0.669131 0
    outer loop
      vertex 2.42705 1.76336 0
      vertex 2.00739 2.22943 0
      vertex 2.00739 2.22943 6
    endloop
  endfacet
  facet normal 0.743144 0.669131 0
    outer loop
      vertex 2.42705 1.76336 6
      vertex 2.42705 1.76336 0
      vertex 2.00739 2.22943 6
    endloop
  endfacet
  facet normal 0.587785 0.809017 0
    outer loop
      vertex 1.5 2.59808 0
      vertex 1.5 2.59808 6
      vertex 2.00739 2.22943 0
    endloop
  endfacet
  facet normal 0.587785 0.809017 0
    outer loop
      vertex 2.00739 2.22943 0
      vertex 1.5 2.59808 6
      vertex 2.00739 2.22943 6
    endloop
  endfacet
  facet normal 0.406738 0.913545 0
    outer loop
      vertex 0.927051 2.85317 0
      vertex 0.927051 2.85317 6
      vertex 1.5 2.59808 0
    endloop
  endfacet
  facet normal 0.406738 0.913545 0
    outer loop
      vertex 1.5 2.59808 0
      vertex 0.927051 2.85317 6
      vertex 1.5 2.59808 6
    endloop
  endfacet
  facet normal 0.207911 0.978148 0
    outer loop
      vertex 0.313585 2.98357 0
      vertex 0.313585 2.98357 6
      vertex 0.927051 2.85317 0
    endloop
  endfacet
  facet normal 0.207911 0.978148 0
    outer loop
      vertex 0.927051 2.85317 0
      vertex 0.313585 2.98357 6
      vertex 0.927051 2.85317 6
    endloop
  endfacet
  facet normal 0 1 0
    outer loop
      vertex -0.313585 2.98357 0
      vertex -0.313585 2.98357 6
      vertex 0.313585 2.98357 0
    endloop
  endfacet
  facet normal 0 1 0
    outer loop
      vertex 0.313585 2.98357 0
      vertex -0.313585 2.98357 6
      vertex 0.313585 2.98357 6
    endloop
  endfacet
  facet normal -0.207911 0.978148 0
    outer loop
      vertex -0.927051 2.85317 0
      vertex -0.927051 2.85317 6
      vertex -0.313585 2.98357 0
    endloop
  endfacet
  facet normal -0.207911 0.978148 0
    outer loop
      vertex -0.313585 2.98357 0
      vertex -0.927051 2.85317 6
      vertex -0.313585 2.98357 6
    endloop
  endfacet
  facet normal -0.406738 0.913545 0
    outer loop
      vertex -1.5 2.59808 0
      vertex -1.5 2.59808 6
      vertex -0.927051 2.85317 0
    endloop
  endfacet
  facet normal -0.406738 0.913545 0
    outer loop
      vertex -0.927051 2.85317 0
      vertex -1.5 2.59808 6
      vertex -0.927051 2.85317 6
    endloop
  endfacet
  facet normal -0.587785 0.809017 0
    outer loop
      vertex -2.00739 2.22943 0
      vertex -2.00739 2.22943 6
      vertex -1.5 2.59808 0
    endloop
  endfacet
  facet normal -0.587785 0.809017 0
    outer loop
      vertex -1.5 2.59808 0
      vertex -2.00739 2.22943 6
      vertex -1.5 2.59808 6
    endloop
  endfacet
  facet normal -0.743144 0.669131 0
    outer loop
      vertex -2.42705 1.76336 0
      vertex -2.42705 1.76336 6
      vertex -2.00739 2.22943 0
    endloop
  endfacet
  facet normal -0.743144 0.669131 0
    outer loop
      vertex -2.00739 2.22943 0
      vertex -2.42705 1.76336 6
      vertex -2.00739 2.22943 6
    endloop
  endfacet
  facet normal -0.866026 0.499999 0
    outer loop
      vertex -2.74064 1.22021 0
      vertex -2.74064 1.22021 6
      vertex -2.42705 1.76336 0
    endloop
  endfacet
  facet normal -0.866026 0.499999 0
    outer loop
      vertex -2.42705 1.76336 0
      vertex -2.74064 1.22021 6
      vertex -2.42705 1.76336 6
    endloop
  endfacet
  facet normal -0.951056 0.309018 0
    outer loop
      vertex -2.93444 0.623735 0
      vertex -2.93444 0.623735 6
      vertex -2.74064 1.22021 0
    endloop
  endfacet
  facet normal -0.951056 0.309018 0
    outer loop
      vertex -2.74064 1.22021 0
      vertex -2.93444 0.623735 6
      vertex -2.74064 1.22021 6
    endloop
  endfacet
  facet normal 0.994522 -0.104529 0
    outer loop
      vertex -1.95629 0.415823 0
      vertex -1.95629 0.415823 4.5
      vertex -2 0 4.5
    endloop
  endfacet
  facet normal 0.994522 -0.104529 0
    outer loop
      vertex -2 0 0
      vertex -1.95629 0.415823 0
      vertex -2 0 4.5
    endloop
  endfacet
  facet normal 0.994522 0.104529 0
    outer loop
      vertex -2 0 4.5
      vertex -1.95629 -0.415823 4.5
      vertex -1.95629 -0.415823 0
    endloop
  endfacet
  facet normal 0.994522 0.104529 0
    outer loop
      vertex -2 0 0
      vertex -2 0 4.5
      vertex -1.95629 -0.415823 0
    endloop
  endfacet
  facet normal 0.951057 -0.309016 0
    outer loop
      vertex -1.82709 0.813473 0
      vertex -1.82709 0.813473 4.5
      vertex -1.95629 0.415823 4.5
    endloop
  endfacet
  facet normal 0.951057 -0.309016 0
    outer loop
      vertex -1.95629 0.415823 0
      vertex -1.82709 0.813473 0
      vertex -1.95629 0.415823 4.5
    endloop
  endfacet
  facet normal 0.866026 -0.499999 0
    outer loop
      vertex -1.61803 1.17557 0
      vertex -1.61803 1.17557 4.5
      vertex -1.82709 0.813473 4.5
    endloop
  endfacet
  facet normal 0.866026 -0.499999 0
    outer loop
      vertex -1.82709 0.813473 0
      vertex -1.61803 1.17557 0
      vertex -1.82709 0.813473 4.5
    endloop
  endfacet
  facet normal 0.743144 -0.669131 0
    outer loop
      vertex -1.33826 1.48629 0
      vertex -1.33826 1.48629 4.5
      vertex -1.61803 1.17557 4.5
    endloop
  endfacet
  facet normal 0.743144 -0.669131 0
    outer loop
      vertex -1.61803 1.17557 0
      vertex -1.33826 1.48629 0
      vertex -1.61803 1.17557 4.5
    endloop
  endfacet
  facet normal 0.587785 -0.809017 0
    outer loop
      vertex -1 1.73205 0
      vertex -1 1.73205 4.5
      vertex -1.33826 1.48629 4.5
    endloop
  endfacet
  facet normal 0.587785 -0.809017 0
    outer loop
      vertex -1.33826 1.48629 0
      vertex -1 1.73205 0
      vertex -1.33826 1.48629 4.5
    endloop
  endfacet
  facet normal 0.406736 -0.913546 0
    outer loop
      vertex -0.618034 1.90211 0
      vertex -0.618034 1.90211 4.5
      vertex -1 1.73205 4.5
    endloop
  endfacet
  facet normal 0.406736 -0.913546 0
    outer loop
      vertex -1 1.73205 0
      vertex -0.618034 1.90211 0
      vertex -1 1.73205 4.5
    endloop
  endfacet
  facet normal 0.207912 -0.978147 0
    outer loop
      vertex -0.209057 1.98904 0
      vertex -0.209057 1.98904 4.5
      vertex -0.618034 1.90211 4.5
    endloop
  endfacet
  facet normal 0.207912 -0.978147 0
    outer loop
      vertex -0.618034 1.90211 0
      vertex -0.209057 1.98904 0
      vertex -0.618034 1.90211 4.5
    endloop
  endfacet
  facet normal 0 -1 0
    outer loop
      vertex 0.209057 1.98904 0
      vertex 0.209057 1.98904 4.5
      vertex -0.209057 1.98904 4.5
    endloop
  endfacet
  facet normal 0 -1 0
    outer loop
      vertex -0.209057 1.98904 0
      vertex 0.209057 1.98904 0
      vertex -0.209057 1.98904 4.5
    endloop
  endfacet
  facet normal -0.207912 -0.978147 0
    outer loop
      vertex 0.618034 1.90211 0
      vertex 0.618034 1.90211 4.5
      vertex 0.209057 1.98904 4.5
    endloop
  endfacet
  facet normal -0.207912 -0.978147 0
    outer loop
      vertex 0.209057 1.98904 0
      vertex 0.618034 1.90211 0
      vertex 0.209057 1.98904 4.5
    endloop
  endfacet
  facet normal -0.406736 -0.913546 0
    outer loop
      vertex 1 1.73205 0
      vertex 1 1.73205 4.5
      vertex 0.618034 1.90211 4.5
    endloop
  endfacet
  facet normal -0.406736 -0.913546 0
    outer loop
      vertex 0.618034 1.90211 0
      vertex 1 1.73205 0
      vertex 0.618034 1.90211 4.5
    endloop
  endfacet
  facet normal -0.587785 -0.809017 0
    outer loop
      vertex 1.33826 1.48629 0
      vertex 1.33826 1.48629 4.5
      vertex 1 1.73205 4.5
    endloop
  endfacet
  facet normal -0.587785 -0.809017 0
    outer loop
      vertex 1 1.73205 0
      vertex 1.33826 1.48629 0
      vertex 1 1.73205 4.5
    endloop
  endfacet
  facet normal -0.743144 -0.669131 0
    outer loop
      vertex 1.61803 1.17557 4.5
      vertex 1.33826 1.48629 4.5
      vertex 1.61803 1.17557 0
    endloop
  endfacet
  facet normal -0.743144 -0.669131 0
    outer loop
      vertex 1.61803 1.17557 0
      vertex 1.33826 1.48629 4.5
      vertex 1.33826 1.48629 0
    endloop
  endfacet
  facet normal -0.866026 -0.499999 0
    outer loop
      vertex 1.82709 0.813473 4.5
      vertex 1.61803 1.17557 4.5
      vertex 1.82709 0.813473 0
    endloop
  endfacet
  facet normal -0.866026 -0.499999 0
    outer loop
      vertex 1.82709 0.813473 0
      vertex 1.61803 1.17557 4.5
      vertex 1.61803 1.17557 0
    endloop
  endfacet
  facet normal -0.951057 -0.309016 0
    outer loop
      vertex 1.95629 0.415823 4.5
      vertex 1.82709 0.813473 4.5
      vertex 1.95629 0.415823 0
    endloop
  endfacet
  facet normal -0.951057 -0.309016 0
    outer loop
      vertex 1.95629 0.415823 0
      vertex 1.82709 0.813473 4.5
      vertex 1.82709 0.813473 0
    endloop
  endfacet
  facet normal -0.994522 -0.104529 0
    outer loop
      vertex 2 0 4.5
      vertex 1.95629 0.415823 4.5
      vertex 2 0 0
    endloop
  endfacet
  facet normal -0.994522 -0.104529 0
    outer loop
      vertex 2 0 0
      vertex 1.95629 0.415823 4.5
      vertex 1.95629 0.415823 0
    endloop
  endfacet
  facet normal -0.994522 0.104529 0
    outer loop
      vertex 2 0 4.5
      vertex 2 0 0
      vertex 1.95629 -0.415823 4.5
    endloop
  endfacet
  facet normal -0.994522 0.104529 0
    outer loop
      vertex 1.95629 -0.415823 4.5
      vertex 2 0 0
      vertex 1.95629 -0.415823 0
    endloop
  endfacet
  facet normal -0.951057 0.309016 0
    outer loop
      vertex 1.95629 -0.415823 4.5
      vertex 1.95629 -0.415823 0
      vertex 1.82709 -0.813473 4.5
    endloop
  endfacet
  facet normal -0.951057 0.309016 0
    outer loop
      vertex 1.82709 -0.813473 4.5
      vertex 1.95629 -0.415823 0
      vertex 1.82709 -0.813473 0
    endloop
  endfacet
  facet normal -0.866026 0.499999 0
    outer loop
      vertex 1.82709 -0.813473 4.5
      vertex 1.82709 -0.813473 0
      vertex 1.61803 -1.17557 4.5
    endloop
  endfacet
  facet normal -0.866026 0.499999 0
    outer loop
      vertex 1.61803 -1.17557 4.5
      vertex 1.82709 -0.813473 0
      vertex 1.61803 -1.17557 0
    endloop
  endfacet
  facet normal -0.743144 0.669131 0
    outer loop
      vertex 1.61803 -1.17557 4.5
      vertex 1.61803 -1.17557 0
      vertex 1.33826 -1.48629 4.5
    endloop
  endfacet
  facet normal -0.743144 0.669131 0
    outer loop
      vertex 1.33826 -1.48629 4.5
      vertex 1.61803 -1.17557 0
      vertex 1.33826 -1.48629 0
    endloop
  endfacet
  facet normal -0.587785 0.809017 0
    outer loop
      vertex 1.33826 -1.48629 4.5
      vertex 1.33826 -1.48629 0
      vertex 1 -1.73205 4.5
    endloop
  endfacet
  facet normal -0.587785 0.809017 0
    outer loop
      vertex 1 -1.73205 4.5
      vertex 1.33826 -1.48629 0
      vertex 1 -1.73205 0
    endloop
  endfacet
  facet normal -0.406736 0.913546 0
    outer loop
      vertex 1 -1.73205 4.5
      vertex 1 -1.73205 0
      vertex 0.618034 -1.90211 4.5
    endloop
  endfacet
  facet normal -0.406736 0.913546 0
    outer loop
      vertex 0.618034 -1.90211 4.5
      vertex 1 -1.73205 0
      vertex 0.618034 -1.90211 0
    endloop
  endfacet
  facet normal -0.207912 0.978147 0
    outer loop
      vertex 0.618034 -1.90211 4.5
      vertex 0.618034 -1.90211 0
      vertex 0.209057 -1.98904 4.5
    endloop
  endfacet
  facet normal -0.207912 0.978147 0
    outer loop
      vertex 0.209057 -1.98904 4.5
      vertex 0.618034 -1.90211 0
      vertex 0.209057 -1.98904 0
    endloop
  endfacet
  facet normal 0 1 0
    outer loop
      vertex 0.209057 -1.98904 4.5
      vertex 0.209057 -1.98904 0
      vertex -0.209057 -1.98904 4.5
    endloop
  endfacet
  facet normal 0 1 0
    outer loop
      vertex -0.209057 -1.98904 4.5
      vertex 0.209057 -1.98904 0
      vertex -0.209057 -1.98904 0
    endloop
  endfacet
  facet normal 0.207912 0.978147 0
    outer loop
      vertex -0.209057 -1.98904 4.5
      vertex -0.209057 -1.98904 0
      vertex -0.618034 -1.90211 4.5
    endloop
  endfacet
  facet normal 0.207912 0.978147 0
    outer loop
      vertex -0.618034 -1.90211 4.5
      vertex -0.209057 -1.98904 0
      vertex -0.618034 -1.90211 0
    endloop
  endfacet
  facet normal 0.406736 0.913546 0
    outer loop
      vertex -0.618034 -1.90211 4.5
      vertex -0.618034 -1.90211 0
      vertex -1 -1.73205 4.5
    endloop
  endfacet
  facet normal 0.406736 0.913546 0
    outer loop
      vertex -1 -1.73205 4.5
      vertex -0.618034 -1.90211 0
      vertex -1 -1.73205 0
    endloop
  endfacet
  facet normal 0.587785 0.809017 0
    outer loop
      vertex -1 -1.73205 4.5
      vertex -1 -1.73205 0
      vertex -1.33826 -1.48629 4.5
    endloop
  endfacet
  facet normal 0.587785 0.809017 0
    outer loop
      vertex -1.33826 -1.48629 4.5
      vertex -1 -1.73205 0
      vertex -1.33826 -1.48629 0
    endloop
  endfacet
  facet normal 0.743144 0.669131 0
    outer loop
      vertex -1.61803 -1.17557 4.5
      vertex -1.33826 -1.48629 4.5
      vertex -1.33826 -1.48629 0
    endloop
  endfacet
  facet normal 0.743144 0.669131 0
    outer loop
      vertex -1.61803 -1.17557 0
      vertex -1.61803 -1.17557 4.5
      vertex -1.33826 -1.48629 0
    endloop
  endfacet
  facet normal 0.866026 0.499999 0
    outer loop
      vertex -1.82709 -0.813473 4.5
      vertex -1.61803 -1.17557 4.5
      vertex -1.61803 -1.17557 0
    endloop
  endfacet
  facet normal 0.866026 0.499999 0
    outer loop
      vertex -1.82709 -0.813473 0
      vertex -1.82709 -0.813473 4.5
      vertex -1.61803 -1.17557 0
    endloop
  endfacet
  facet normal 0.951057 0.309016 0
    outer loop
      vertex -1.95629 -0.415823 4.5
      vertex -1.82709 -0.813473 4.5
      vertex -1.82709 -0.813473 0
    endloop
  endfacet
  facet normal 0.951057 0.309016 0
    outer loop
      vertex -1.95629 -0.415823 0
      vertex -1.95629 -0.415823 4.5
      vertex -1.82709 -0.813473 0
    endloop
  endfacet
  facet normal 0 0 1
    outer loop
      vertex -2.93444 0.623735 6
      vertex -3 0 6
      vertex -2.93444 -0.623735 6
    endloop
  endfacet
  facet normal 0 0 1
    outer loop
      vertex -2.42705 -1.76336 6
      vertex -2.93444 0.623735 6
      vertex -2.74064 -1.22021 6
    endloop
  endfacet
  facet normal 0 0 1
    outer loop
      vertex -2.74064 -1.22021 6
      vertex -2.93444 0.623735 6
      vertex -2.93444 -0.623735 6
    endloop
  endfacet
  facet normal 0 0 1
    outer loop
      vertex -2.00739 -2.22943 6
      vertex -2.93444 0.623735 6
      vertex -2.42705 -1.76336 6
    endloop
  endfacet
  facet normal 0 0 1
    outer loop
      vertex -1.5 -2.59808 6
      vertex -2.93444 0.623735 6
      vertex -2.00739 -2.22943 6
    endloop
  endfacet
  facet normal 0 0 1
    outer loop
      vertex -1.2 -2.7 6
      vertex -2.93444 0.623735 6
      vertex -1.5 -2.59808 6
    endloop
  endfacet
  facet normal 0 0 1
    outer loop
      vertex 1.2 -1.2 6
      vertex 1.5 -2.59808 6
      vertex 2.00739 -2.22943 6
    endloop
  endfacet
  facet normal 0 0 1
    outer loop
      vertex 1.2 -1.2 6
      vertex 1.2 -2.7 6
      vertex 1.5 -2.59808 6
    endloop
  endfacet
  facet normal 0 0 1
    outer loop
      vertex -1.2 1.2 6
      vertex -1.2 2.7 6
      vertex -2.93444 0.623735 6
    endloop
  endfacet
  facet normal 0 0 1
    outer loop
      vertex 1.2 1.2 6
      vertex -1.2 1.2 6
      vertex -2.93444 0.623735 6
    endloop
  endfacet
  facet normal 0 0 1
    outer loop
      vertex 2.93444 -0.623735 6
      vertex -2.93444 0.623735 6
      vertex 2.74064 -1.22021 6
    endloop
  endfacet
  facet normal 0 0 1
    outer loop
      vertex 3 0 6
      vertex -2.93444 0.623735 6
      vertex 2.93444 -0.623735 6
    endloop
  endfacet
  facet normal 0 0 1
    outer loop
      vertex 2.93444 0.623735 6
      vertex -2.93444 0.623735 6
      vertex 3 0 6
    endloop
  endfacet
  facet normal 0 0 1
    outer loop
      vertex 2.74064 1.22021 6
      vertex -2.93444 0.623735 6
      vertex 2.93444 0.623735 6
    endloop
  endfacet
  facet normal 0 0 1
    outer loop
      vertex 1.2 1.2 6
      vertex -2.93444 0.623735 6
      vertex 2.74064 1.22021 6
    endloop
  endfacet
  facet normal 0 0 1
    outer loop
      vertex -1.2 2.7 6
      vertex 0.313585 2.98357 6
      vertex -0.313585 2.98357 6
    endloop
  endfacet
  facet normal 0 0 1
    outer loop
      vertex -1.2 2.7 6
      vertex -0.313585 2.98357 6
      vertex -0.927051 2.85317 6
    endloop
  endfacet
  facet normal 0 0 1
    outer loop
      vertex 1.2 2.7 6
      vertex 2.42705 1.76336 6
      vertex 2.00739 2.22943 6
    endloop
  endfacet
  facet normal 0 0 1
    outer loop
      vertex 1.2 2.7 6
      vertex 2.00739 2.22943 6
      vertex 1.5 2.59808 6
    endloop
  endfacet
  facet normal 0 0 1
    outer loop
      vertex -2.00739 2.22943 6
      vertex -2.93444 0.623735 6
      vertex -1.5 2.59808 6
    endloop
  endfacet
  facet normal 0 0 1
    outer loop
      vertex -2.42705 1.76336 6
      vertex -2.93444 0.623735 6
      vertex -2.00739 2.22943 6
    endloop
  endfacet
  facet normal 0 0 1
    outer loop
      vertex -2.74064 1.22021 6
      vertex -2.93444 0.623735 6
      vertex -2.42705 1.76336 6
    endloop
  endfacet
  facet normal 0 0 1
    outer loop
      vertex -0.927051 -2.85317 6
      vertex -1.2 -2.7 6
      vertex -1.5 -2.59808 6
    endloop
  endfacet
  facet normal 0 0 1
    outer loop
      vertex 1.2 -1.2 6
      vertex 2.00739 -2.22943 6
      vertex 2.42705 -1.76336 6
    endloop
  endfacet
  facet normal 0 0 1
    outer loop
      vertex -1.2 -1.2 6
      vertex 1.2 -1.2 6
      vertex -2.93444 0.623735 6
    endloop
  endfacet
  facet normal 0 0 1
    outer loop
      vertex 2.74064 -1.22021 6
      vertex 1.2 -1.2 6
      vertex 2.42705 -1.76336 6
    endloop
  endfacet
  facet normal 0 0 1
    outer loop
      vertex 2.74064 -1.22021 6
      vertex -2.93444 0.623735 6
      vertex 1.2 -1.2 6
    endloop
  endfacet
  facet normal 0 0 1
    outer loop
      vertex 1.5 -2.59808 6
      vertex 1.2 -2.7 6
      vertex 0.927051 -2.85317 6
    endloop
  endfacet
  facet normal 0 0 1
    outer loop
      vertex -1.2 2.7 6
      vertex 1.2 2.7 6
      vertex 0.927051 2.85317 6
    endloop
  endfacet
  facet normal 0 0 1
    outer loop
      vertex -1.5 2.59808 6
      vertex -1.2 2.7 6
      vertex -0.927051 2.85317 6
    endloop
  endfacet
  facet normal 0 0 1
    outer loop
      vertex -1.5 2.59808 6
      vertex -2.93444 0.623735 6
      vertex -1.2 2.7 6
    endloop
  endfacet
  facet normal 0 0 1
    outer loop
      vertex 0.927051 2.85317 6
      vertex 1.2 2.7 6
      vertex 1.5 2.59808 6
    endloop
  endfacet
  facet normal 0 0 1
    outer loop
      vertex 1.2 2.7 6
      vertex 1.2 1.2 6
      vertex 2.42705 1.76336 6
    endloop
  endfacet
  facet normal 0 0 1
    outer loop
      vertex 2.42705 1.76336 6
      vertex 1.2 1.2 6
      vertex 2.74064 1.22021 6
    endloop
  endfacet
  facet normal 0 0 1
    outer loop
      vertex -1.2 2.7 6
      vertex 0.927051 2.85317 6
      vertex 0.313585 2.98357 6
    endloop
  endfacet
  facet normal 0 0 1
    outer loop
      vertex -1.2 -2.7 6
      vertex -1.2 -1.2 6
      vertex -2.93444 0.623735 6
    endloop
  endfacet
  facet normal 0 0 1
    outer loop
      vertex 1.2 -2.7 6
      vertex 0.313585 -2.98357 6
      vertex 0.927051 -2.85317 6
    endloop
  endfacet
  facet normal 0 0 1
    outer loop
      vertex 1.2 -2.7 6
      vertex -0.313585 -2.98357 6
      vertex 0.313585 -2.98357 6
    endloop
  endfacet
  facet normal 0 0 1
    outer loop
      vertex 1.2 -2.7 6
      vertex -0.927051 -2.85317 6
      vertex -0.313585 -2.98357 6
    endloop
  endfacet
  facet normal 0 0 1
    outer loop
      vertex 1.2 -2.7 6
      vertex -1.2 -2.7 6
      vertex -0.927051 -2.85317 6
    endloop
  endfacet
  facet normal 0 0 -1
    outer loop
      vertex -1.82709 0.813473 4.5
      vertex -1.61803 1.17557 4.5
      vertex -1.95629 0.415823 4.5
    endloop
  endfacet
  facet normal 0 0 -1
    outer loop
      vertex -1.95629 0.415823 4.5
      vertex -1.61803 1.17557 4.5
      vertex -1.33826 1.48629 4.5
    endloop
  endfacet
  facet normal 0 0 -1
    outer loop
      vertex -1.95629 0.415823 4.5
      vertex -1.33826 1.48629 4.5
      vertex -1 1.73205 4.5
    endloop
  endfacet
  facet normal 0 0 -1
    outer loop
      vertex -1.95629 0.415823 4.5
      vertex -1 1.73205 4.5
      vertex -0.618034 1.90211 4.5
    endloop
  endfacet
  facet normal 0 0 -1
    outer loop
      vertex -1.95629 0.415823 4.5
      vertex -0.618034 1.90211 4.5
      vertex -0.209057 1.98904 4.5
    endloop
  endfacet
  facet normal 0 0 -1
    outer loop
      vertex -1.95629 0.415823 4.5
      vertex -0.209057 1.98904 4.5
      vertex 0.209057 1.98904 4.5
    endloop
  endfacet
  facet normal 0 0 -1
    outer loop
      vertex -1.95629 0.415823 4.5
      vertex 0.209057 1.98904 4.5
      vertex 0.618034 1.90211 4.5
    endloop
  endfacet
  facet normal 0 0 -1
    outer loop
      vertex -1.95629 0.415823 4.5
      vertex 0.618034 1.90211 4.5
      vertex 1 1.73205 4.5
    endloop
  endfacet
  facet normal 0 0 -1
    outer loop
      vertex -1.95629 0.415823 4.5
      vertex 1 1.73205 4.5
      vertex 1.33826 1.48629 4.5
    endloop
  endfacet
  facet normal 0 0 -1
    outer loop
      vertex -1.95629 0.415823 4.5
      vertex 1.33826 1.48629 4.5
      vertex 1.61803 1.17557 4.5
    endloop
  endfacet
  facet normal 0 0 -1
    outer loop
      vertex -1.95629 0.415823 4.5
      vertex 1.61803 1.17557 4.5
      vertex 1.82709 0.813473 4.5
    endloop
  endfacet
  facet normal 0 0 -1
    outer loop
      vertex -1.95629 0.415823 4.5
      vertex 1.82709 0.813473 4.5
      vertex 1.95629 0.415823 4.5
    endloop
  endfacet
  facet normal 0 0 -1
    outer loop
      vertex -1.95629 0.415823 4.5
      vertex 1.95629 0.415823 4.5
      vertex 2 0 4.5
    endloop
  endfacet
  facet normal 0 0 -1
    outer loop
      vertex -1.95629 0.415823 4.5
      vertex 2 0 4.5
      vertex 1.95629 -0.415823 4.5
    endloop
  endfacet
  facet normal 0 0 -1
    outer loop
      vertex -1.95629 0.415823 4.5
      vertex 1.95629 -0.415823 4.5
      vertex 1.82709 -0.813473 4.5
    endloop
  endfacet
  facet normal 0 0 -1
    outer loop
      vertex -1.95629 0.415823 4.5
      vertex 1.82709 -0.813473 4.5
      vertex 1.61803 -1.17557 4.5
    endloop
  endfacet
  facet normal 0 0 -1
    outer loop
      vertex -1.95629 0.415823 4.5
      vertex 1.61803 -1.17557 4.5
      vertex 1.33826 -1.48629 4.5
    endloop
  endfacet
  facet normal 0 0 -1
    outer loop
      vertex -1.95629 0.415823 4.5
      vertex 1.33826 -1.48629 4.5
      vertex 1 -1.73205 4.5
    endloop
  endfacet
  facet normal 0 0 -1
    outer loop
      vertex -1.95629 0.415823 4.5
      vertex 1 -1.73205 4.5
      vertex 0.618034 -1.90211 4.5
    endloop
  endfacet
  facet normal 0 0 -1
    outer loop
      vertex -1.95629 0.415823 4.5
      vertex 0.618034 -1.90211 4.5
      vertex 0.209057 -1.98904 4.5
    endloop
  endfacet
  facet normal 0 0 -1
    outer loop
      vertex -1.95629 0.415823 4.5
      vertex 0.209057 -1.98904 4.5
      vertex -0.209057 -1.98904 4.5
    endloop
  endfacet
  facet normal 0 0 -1
    outer loop
      vertex -1.95629 0.415823 4.5
      vertex -0.209057 -1.98904 4.5
      vertex -0.618034 -1.90211 4.5
    endloop
  endfacet
  facet normal 0 0 -1
    outer loop
      vertex -1.95629 0.415823 4.5
      vertex -0.618034 -1.90211 4.5
      vertex -1 -1.73205 4.5
    endloop
  endfacet
  facet normal 0 0 -1
    outer loop
      vertex -1.95629 0.415823 4.5
      vertex -1 -1.73205 4.5
      vertex -1.33826 -1.48629 4.5
    endloop
  endfacet
  facet normal 0 0 -1
    outer loop
      vertex -1.95629 0.415823 4.5
      vertex -1.33826 -1.48629 4.5
      vertex -1.61803 -1.17557 4.5
    endloop
  endfacet
  facet normal 0 0 -1
    outer loop
      vertex -1.95629 0.415823 4.5
      vertex -1.61803 -1.17557 4.5
      vertex -1.82709 -0.813473 4.5
    endloop
  endfacet
  facet normal 0 0 -1
    outer loop
      vertex -1.95629 0.415823 4.5
      vertex -1.82709 -0.813473 4.5
      vertex -1.95629 -0.415823 4.5
    endloop
  endfacet
  facet normal 0 0 -1
    outer loop
      vertex -1.95629 0.415823 4.5
      vertex -1.95629 -0.415823 4.5
      vertex -2 0 4.5
    endloop
  endfacet
  facet normal -1 0 0
    outer loop
      vertex -1.2 -1.2 10.5
      vertex -1.2 -1.2 6
      vertex -1.2 -2.7 10.5
    endloop
  endfacet
  facet normal -1 0 0
    outer loop
      vertex -1.2 -2.7 10.5
      vertex -1.2 -1.2 6
      vertex -1.2 -2.7 6
    endloop
  endfacet
  facet normal 0 -1 0
    outer loop
      vertex 1.2 -2.7 6
      vertex 1.2 -2.7 10.5
      vertex -1.2 -2.7 10.5
    endloop
  endfacet
  facet normal 0 -1 0
    outer loop
      vertex -1.2 -2.7 6
      vertex 1.2 -2.7 6
      vertex -1.2 -2.7 10.5
    endloop
  endfacet
  facet normal 1 0 0
    outer loop
      vertex 1.2 -1.2 6
      vertex 1.2 -1.2 10.5
      vertex 1.2 -2.7 10.5
    endloop
  endfacet
  facet normal 1 0 0
    outer loop
      vertex 1.2 -2.7 6
      vertex 1.2 -1.2 6
      vertex 1.2 -2.7 10.5
    endloop
  endfacet
  facet normal 0 1 0
    outer loop
      vertex -0.69282 -1.2 8.43705
      vertex 1.2 -1.2 6
      vertex -1.2 -1.2 6
    endloop
  endfacet
  facet normal 0 1 0
    outer loop
      vertex 0.126125 -1.2 8.11064
      vertex 1.2 -1.2 6
      vertex -0.126125 -1.2 8.11064
    endloop
  endfacet
  facet normal 0 1 0
    outer loop
      vertex -1.2 -1.2 10.5
      vertex -0.886314 -1.2 9
      vertex -1.2 -1.2 6
    endloop
  endfacet
  facet normal 0 1 0
    outer loop
      vertex -0.159206 -1.2 8.11832
      vertex 1.2 -1.2 6
      vertex -0.389904 -1.2 8.20186
    endloop
  endfacet
  facet normal 0 1 0
    outer loop
      vertex -0.886314 -1.2 9
      vertex -0.855982 -1.2 8.82943
      vertex -1.2 -1.2 6
    endloop
  endfacet
  facet normal 0 1 0
    outer loop
      vertex -0.855982 -1.2 8.82943
      vertex -0.830854 -1.2 8.68813
      vertex -1.2 -1.2 6
    endloop
  endfacet
  facet normal 0 1 0
    outer loop
      vertex -0.655354 -1.2 8.38989
      vertex 1.2 -1.2 6
      vertex -0.69282 -1.2 8.43705
    endloop
  endfacet
  facet normal 0 1 0
    outer loop
      vertex -0.830854 -1.2 8.68813
      vertex -0.69282 -1.2 8.43705
      vertex -1.2 -1.2 6
    endloop
  endfacet
  facet normal 0 1 0
    outer loop
      vertex -0.126125 -1.2 8.11064
      vertex 1.2 -1.2 6
      vertex -0.159206 -1.2 8.11832
    endloop
  endfacet
  facet normal 0 1 0
    outer loop
      vertex 0.131845 -1.2 8.11197
      vertex 1.2 -1.2 6
      vertex 0.126125 -1.2 8.11064
    endloop
  endfacet
  facet normal 0 1 0
    outer loop
      vertex 0.159206 -1.2 8.11832
      vertex 1.2 -1.2 6
      vertex 0.131845 -1.2 8.11197
    endloop
  endfacet
  facet normal 0 1 0
    outer loop
      vertex 0.324057 -1.2 8.17802
      vertex 1.2 -1.2 6
      vertex 0.159206 -1.2 8.11832
    endloop
  endfacet
  facet normal 0 1 0
    outer loop
      vertex 0.389904 -1.2 8.20186
      vertex 1.2 -1.2 6
      vertex 0.324057 -1.2 8.17802
    endloop
  endfacet
  facet normal 0 1 0
    outer loop
      vertex 0.498468 -1.2 8.27876
      vertex 1.2 -1.2 6
      vertex 0.389904 -1.2 8.20186
    endloop
  endfacet
  facet normal 0 1 0
    outer loop
      vertex 0.655354 -1.2 8.38989
      vertex 1.2 -1.2 6
      vertex 0.498468 -1.2 8.27876
    endloop
  endfacet
  facet normal 0 1 0
    outer loop
      vertex 0.670421 -1.2 8.40886
      vertex 1.2 -1.2 6
      vertex 0.655354 -1.2 8.38989
    endloop
  endfacet
  facet normal 0 1 0
    outer loop
      vertex 0.69282 -1.2 8.43705
      vertex 1.2 -1.2 6
      vertex 0.670421 -1.2 8.40886
    endloop
  endfacet
  facet normal 0 1 0
    outer loop
      vertex 0.784942 -1.2 8.60462
      vertex 1.2 -1.2 6
      vertex 0.69282 -1.2 8.43705
    endloop
  endfacet
  facet normal 0 1 0
    outer loop
      vertex 0.830854 -1.2 8.68813
      vertex 1.2 -1.2 6
      vertex 0.784942 -1.2 8.60462
    endloop
  endfacet
  facet normal 0 1 0
    outer loop
      vertex 1.2 -1.2 10.5
      vertex 1.2 -1.2 6
      vertex 0.830854 -1.2 8.68813
    endloop
  endfacet
  facet normal 0 1 0
    outer loop
      vertex 1.2 -1.2 10.5
      vertex 0.830854 -1.2 8.68813
      vertex 0.859993 -1.2 8.85199
    endloop
  endfacet
  facet normal 0 1 0
    outer loop
      vertex 1.2 -1.2 10.5
      vertex 0.859993 -1.2 8.85199
      vertex 0.886314 -1.2 9
    endloop
  endfacet
  facet normal 0 1 0
    outer loop
      vertex 0.69282 -1.2 9.56295
      vertex 1.2 -1.2 10.5
      vertex 0.830854 -1.2 9.31187
    endloop
  endfacet
  facet normal 0 1 0
    outer loop
      vertex 1.2 -1.2 10.5
      vertex 0.855982 -1.2 9.17057
      vertex 0.830854 -1.2 9.31187
    endloop
  endfacet
  facet normal 0 1 0
    outer loop
      vertex -0.126125 -1.2 9.88936
      vertex -1.2 -1.2 10.5
      vertex 0.126125 -1.2 9.88936
    endloop
  endfacet
  facet normal 0 1 0
    outer loop
      vertex 1.2 -1.2 10.5
      vertex 0.69282 -1.2 9.56295
      vertex 0.655354 -1.2 9.6101
    endloop
  endfacet
  facet normal 0 1 0
    outer loop
      vertex 1.2 -1.2 10.5
      vertex 0.655354 -1.2 9.6101
      vertex 0.389904 -1.2 9.79814
    endloop
  endfacet
  facet normal 0 1 0
    outer loop
      vertex 1.2 -1.2 10.5
      vertex 0.389904 -1.2 9.79814
      vertex -1.2 -1.2 10.5
    endloop
  endfacet
  facet normal 0 1 0
    outer loop
      vertex 0.389904 -1.2 9.79814
      vertex 0.159206 -1.2 9.88168
      vertex -1.2 -1.2 10.5
    endloop
  endfacet
  facet normal 0 1 0
    outer loop
      vertex 0.159206 -1.2 9.88168
      vertex 0.126125 -1.2 9.88936
      vertex -1.2 -1.2 10.5
    endloop
  endfacet
  facet normal 0 1 0
    outer loop
      vertex -0.69282 -1.2 9.56295
      vertex -1.2 -1.2 10.5
      vertex -0.670421 -1.2 9.59114
    endloop
  endfacet
  facet normal 0 1 0
    outer loop
      vertex -0.126125 -1.2 9.88936
      vertex -0.131845 -1.2 9.88803
      vertex -1.2 -1.2 10.5
    endloop
  endfacet
  facet normal 0 1 0
    outer loop
      vertex -0.131845 -1.2 9.88803
      vertex -0.159206 -1.2 9.88168
      vertex -1.2 -1.2 10.5
    endloop
  endfacet
  facet normal 0 1 0
    outer loop
      vertex -0.159206 -1.2 9.88168
      vertex -0.324057 -1.2 9.82198
      vertex -1.2 -1.2 10.5
    endloop
  endfacet
  facet normal 0 1 0
    outer loop
      vertex -0.324057 -1.2 9.82198
      vertex -0.389904 -1.2 9.79814
      vertex -1.2 -1.2 10.5
    endloop
  endfacet
  facet normal 0 1 0
    outer loop
      vertex -0.389904 -1.2 9.79814
      vertex -0.498468 -1.2 9.72124
      vertex -1.2 -1.2 10.5
    endloop
  endfacet
  facet normal 0 1 0
    outer loop
      vertex -0.498468 -1.2 9.72124
      vertex -0.655354 -1.2 9.6101
      vertex -1.2 -1.2 10.5
    endloop
  endfacet
  facet normal 0 1 0
    outer loop
      vertex -0.655354 -1.2 9.6101
      vertex -0.670421 -1.2 9.59114
      vertex -1.2 -1.2 10.5
    endloop
  endfacet
  facet normal 0 1 0
    outer loop
      vertex 0.855982 -1.2 9.17057
      vertex 1.2 -1.2 10.5
      vertex 0.886314 -1.2 9
    endloop
  endfacet
  facet normal 0 1 0
    outer loop
      vertex -0.784942 -1.2 9.39538
      vertex -1.2 -1.2 10.5
      vertex -0.69282 -1.2 9.56295
    endloop
  endfacet
  facet normal 0 1 0
    outer loop
      vertex -1.2 -1.2 10.5
      vertex -0.784942 -1.2 9.39538
      vertex -0.830854 -1.2 9.31187
    endloop
  endfacet
  facet normal 0 1 0
    outer loop
      vertex -1.2 -1.2 10.5
      vertex -0.830854 -1.2 9.31187
      vertex -0.859993 -1.2 9.14801
    endloop
  endfacet
  facet normal 0 1 0
    outer loop
      vertex -1.2 -1.2 10.5
      vertex -0.859993 -1.2 9.14801
      vertex -0.886314 -1.2 9
    endloop
  endfacet
  facet normal 0 1 0
    outer loop
      vertex -0.389904 -1.2 8.20186
      vertex 1.2 -1.2 6
      vertex -0.655354 -1.2 8.38989
    endloop
  endfacet
  facet normal -1 0 0
    outer loop
      vertex -1.2 1.2 6
      vertex -1.2 1.2 10.5
      vertex -1.2 2.7 6
    endloop
  endfacet
  facet normal -1 0 0
    outer loop
      vertex -1.2 2.7 6
      vertex -1.2 1.2 10.5
      vertex -1.2 2.7 10.5
    endloop
  endfacet
  facet normal 0 -1 0
    outer loop
      vertex -0.498468 1.2 8.27876
      vertex -1.2 1.2 6
      vertex 1.2 1.2 6
    endloop
  endfacet
  facet normal 0 -1 0
    outer loop
      vertex -1.2 1.2 10.5
      vertex -1.2 1.2 6
      vertex -0.859993 1.2 8.85199
    endloop
  endfacet
  facet normal 0 -1 0
    outer loop
      vertex -0.389904 1.2 8.20186
      vertex -0.498468 1.2 8.27876
      vertex 1.2 1.2 6
    endloop
  endfacet
  facet normal 0 -1 0
    outer loop
      vertex -1.2 1.2 10.5
      vertex -0.859993 1.2 8.85199
      vertex -0.886314 1.2 9
    endloop
  endfacet
  facet normal 0 -1 0
    outer loop
      vertex -1.2 1.2 10.5
      vertex -0.886314 1.2 9
      vertex -0.855982 1.2 9.17057
    endloop
  endfacet
  facet normal 0 -1 0
    outer loop
      vertex -1.2 1.2 10.5
      vertex -0.855982 1.2 9.17057
      vertex -0.830854 1.2 9.31187
    endloop
  endfacet
  facet normal 0 -1 0
    outer loop
      vertex -0.159206 1.2 8.11832
      vertex -0.324057 1.2 8.17802
      vertex 1.2 1.2 6
    endloop
  endfacet
  facet normal 0 -1 0
    outer loop
      vertex -0.655354 1.2 9.6101
      vertex -1.2 1.2 10.5
      vertex -0.69282 1.2 9.56295
    endloop
  endfacet
  facet normal 0 -1 0
    outer loop
      vertex -0.389904 1.2 9.79814
      vertex -1.2 1.2 10.5
      vertex -0.655354 1.2 9.6101
    endloop
  endfacet
  facet normal 0 -1 0
    outer loop
      vertex 1.2 1.2 10.5
      vertex -1.2 1.2 10.5
      vertex -0.389904 1.2 9.79814
    endloop
  endfacet
  facet normal 0 -1 0
    outer loop
      vertex 1.2 1.2 10.5
      vertex -0.389904 1.2 9.79814
      vertex -0.159206 1.2 9.88168
    endloop
  endfacet
  facet normal 0 -1 0
    outer loop
      vertex 0.886314 1.2 9
      vertex 0.855982 1.2 8.82943
      vertex 1.2 1.2 6
    endloop
  endfacet
  facet normal 0 -1 0
    outer loop
      vertex 1.2 1.2 10.5
      vertex -0.159206 1.2 9.88168
      vertex -0.126125 1.2 9.88936
    endloop
  endfacet
  facet normal 0 -1 0
    outer loop
      vertex 0.126125 1.2 8.11064
      vertex -0.126125 1.2 8.11064
      vertex 1.2 1.2 6
    endloop
  endfacet
  facet normal 0 -1 0
    outer loop
      vertex 1.2 1.2 10.5
      vertex 0.126125 1.2 9.88936
      vertex 0.131845 1.2 9.88803
    endloop
  endfacet
  facet normal 0 -1 0
    outer loop
      vertex 1.2 1.2 10.5
      vertex 0.131845 1.2 9.88803
      vertex 0.159206 1.2 9.88168
    endloop
  endfacet
  facet normal 0 -1 0
    outer loop
      vertex 1.2 1.2 10.5
      vertex 0.159206 1.2 9.88168
      vertex 0.324057 1.2 9.82198
    endloop
  endfacet
  facet normal 0 -1 0
    outer loop
      vertex 1.2 1.2 10.5
      vertex 0.324057 1.2 9.82198
      vertex 0.389904 1.2 9.79814
    endloop
  endfacet
  facet normal 0 -1 0
    outer loop
      vertex 0.69282 1.2 8.43705
      vertex 0.655354 1.2 8.38989
      vertex 1.2 1.2 6
    endloop
  endfacet
  facet normal 0 -1 0
    outer loop
      vertex 1.2 1.2 10.5
      vertex 0.389904 1.2 9.79814
      vertex 0.498468 1.2 9.72124
    endloop
  endfacet
  facet normal 0 -1 0
    outer loop
      vertex 1.2 1.2 10.5
      vertex 0.498468 1.2 9.72124
      vertex 0.655354 1.2 9.6101
    endloop
  endfacet
  facet normal 0 -1 0
    outer loop
      vertex 1.2 1.2 10.5
      vertex 0.655354 1.2 9.6101
      vertex 0.670421 1.2 9.59114
    endloop
  endfacet
  facet normal 0 -1 0
    outer loop
      vertex 0.655354 1.2 8.38989
      vertex 0.389904 1.2 8.20186
      vertex 1.2 1.2 6
    endloop
  endfacet
  facet normal 0 -1 0
    outer loop
      vertex 1.2 1.2 10.5
      vertex 0.670421 1.2 9.59114
      vertex 0.69282 1.2 9.56295
    endloop
  endfacet
  facet normal 0 -1 0
    outer loop
      vertex 1.2 1.2 10.5
      vertex 0.69282 1.2 9.56295
      vertex 0.784942 1.2 9.39538
    endloop
  endfacet
  facet normal 0 -1 0
    outer loop
      vertex 0.855982 1.2 8.82943
      vertex 0.830854 1.2 8.68813
      vertex 1.2 1.2 6
    endloop
  endfacet
  facet normal 0 -1 0
    outer loop
      vertex 1.2 1.2 10.5
      vertex 0.784942 1.2 9.39538
      vertex 0.830854 1.2 9.31187
    endloop
  endfacet
  facet normal 0 -1 0
    outer loop
      vertex 1.2 1.2 10.5
      vertex 0.830854 1.2 9.31187
      vertex 0.859993 1.2 9.14801
    endloop
  endfacet
  facet normal 0 -1 0
    outer loop
      vertex 1.2 1.2 10.5
      vertex 0.886314 1.2 9
      vertex 1.2 1.2 6
    endloop
  endfacet
  facet normal 0 -1 0
    outer loop
      vertex 1.2 1.2 10.5
      vertex 0.859993 1.2 9.14801
      vertex 0.886314 1.2 9
    endloop
  endfacet
  facet normal 0 -1 0
    outer loop
      vertex 0.389904 1.2 8.20186
      vertex 0.159206 1.2 8.11832
      vertex 1.2 1.2 6
    endloop
  endfacet
  facet normal 0 -1 0
    outer loop
      vertex 0.159206 1.2 8.11832
      vertex 0.126125 1.2 8.11064
      vertex 1.2 1.2 6
    endloop
  endfacet
  facet normal 0 -1 0
    outer loop
      vertex -0.126125 1.2 8.11064
      vertex -0.131845 1.2 8.11197
      vertex 1.2 1.2 6
    endloop
  endfacet
  facet normal 0 -1 0
    outer loop
      vertex -0.131845 1.2 8.11197
      vertex -0.159206 1.2 8.11832
      vertex 1.2 1.2 6
    endloop
  endfacet
  facet normal 0 -1 0
    outer loop
      vertex -0.324057 1.2 8.17802
      vertex -0.389904 1.2 8.20186
      vertex 1.2 1.2 6
    endloop
  endfacet
  facet normal 0 -1 0
    outer loop
      vertex -0.655354 1.2 8.38989
      vertex -1.2 1.2 6
      vertex -0.498468 1.2 8.27876
    endloop
  endfacet
  facet normal 0 -1 0
    outer loop
      vertex -0.670421 1.2 8.40886
      vertex -1.2 1.2 6
      vertex -0.655354 1.2 8.38989
    endloop
  endfacet
  facet normal 0 -1 0
    outer loop
      vertex -0.69282 1.2 8.43705
      vertex -1.2 1.2 6
      vertex -0.670421 1.2 8.40886
    endloop
  endfacet
  facet normal 0 -1 0
    outer loop
      vertex -0.784942 1.2 8.60462
      vertex -1.2 1.2 6
      vertex -0.69282 1.2 8.43705
    endloop
  endfacet
  facet normal 0 -1 0
    outer loop
      vertex -0.830854 1.2 8.68813
      vertex -1.2 1.2 6
      vertex -0.784942 1.2 8.60462
    endloop
  endfacet
  facet normal 0 -1 0
    outer loop
      vertex -0.859993 1.2 8.85199
      vertex -1.2 1.2 6
      vertex -0.830854 1.2 8.68813
    endloop
  endfacet
  facet normal 0 -1 0
    outer loop
      vertex -0.830854 1.2 9.31187
      vertex -0.69282 1.2 9.56295
      vertex -1.2 1.2 10.5
    endloop
  endfacet
  facet normal 0 -1 0
    outer loop
      vertex -0.126125 1.2 9.88936
      vertex 0.126125 1.2 9.88936
      vertex 1.2 1.2 10.5
    endloop
  endfacet
  facet normal 0 -1 0
    outer loop
      vertex 0.830854 1.2 8.68813
      vertex 0.69282 1.2 8.43705
      vertex 1.2 1.2 6
    endloop
  endfacet
  facet normal 1 0 0
    outer loop
      vertex 1.2 1.2 10.5
      vertex 1.2 1.2 6
      vertex 1.2 2.7 6
    endloop
  endfacet
  facet normal 1 0 0
    outer loop
      vertex 1.2 2.7 10.5
      vertex 1.2 1.2 10.5
      vertex 1.2 2.7 6
    endloop
  endfacet
  facet normal 0 1 0
    outer loop
      vertex -1.2 2.7 6
      vertex -1.2 2.7 10.5
      vertex 1.2 2.7 6
    endloop
  endfacet
  facet normal 0 1 0
    outer loop
      vertex 1.2 2.7 6
      vertex -1.2 2.7 10.5
      vertex 1.2 2.7 10.5
    endloop
  endfacet
  facet normal 0 0 1
    outer loop
      vertex 1.2 -2.7 10.5
      vertex 1.2 -1.2 10.5
      vertex -1.2 -1.2 10.5
    endloop
  endfacet
  facet normal 0 0 1
    outer loop
      vertex -1.2 -2.7 10.5
      vertex 1.2 -2.7 10.5
      vertex -1.2 -1.2 10.5
    endloop
  endfacet
  facet normal 0.5846 0.804633 0.103961
    outer loop
      vertex -0.733611 -1.27065 8.68813
      vertex -0.855982 -1.2 8.82943
      vertex -0.75 -1.29904 9
    endloop
  endfacet
  facet normal 0.5846 0.804633 0.103961
    outer loop
      vertex -0.75 -1.29904 9
      vertex -0.855982 -1.2 8.82943
      vertex -0.886314 -1.2 9
    endloop
  endfacet
  facet normal 0.5846 0.804633 -0.103961
    outer loop
      vertex -0.859993 -1.2 9.14801
      vertex -0.75 -1.29904 9
      vertex -0.886314 -1.2 9
    endloop
  endfacet
  facet normal 0.5846 0.804633 -0.103961
    outer loop
      vertex -0.733611 -1.27065 9.31187
      vertex -0.75 -1.29904 9
      vertex -0.830854 -1.2 9.31187
    endloop
  endfacet
  facet normal 0.5846 0.804633 -0.103961
    outer loop
      vertex -0.830854 -1.2 9.31187
      vertex -0.75 -1.29904 9
      vertex -0.859993 -1.2 9.14801
    endloop
  endfacet
  facet normal 0.559309 0.769822 -0.307485
    outer loop
      vertex -0.784942 -1.2 9.39538
      vertex -0.733611 -1.27065 9.31187
      vertex -0.830854 -1.2 9.31187
    endloop
  endfacet
  facet normal 0.559307 0.769823 -0.307487
    outer loop
      vertex -0.69282 -1.2 9.56295
      vertex -0.733611 -1.27065 9.31187
      vertex -0.784942 -1.2 9.39538
    endloop
  endfacet
  facet normal 0.387029 0.869287 -0.307486
    outer loop
      vertex -0.670421 -1.2 9.59114
      vertex -0.453396 -1.39541 9.31187
      vertex -0.69282 -1.2 9.56295
    endloop
  endfacet
  facet normal 0.387029 0.869287 -0.307486
    outer loop
      vertex -0.69282 -1.2 9.56295
      vertex -0.453396 -1.39541 9.31187
      vertex -0.733611 -1.27065 9.31187
    endloop
  endfacet
  facet normal 0.387033 0.869287 -0.307483
    outer loop
      vertex -0.423452 -1.30325 9.6101
      vertex -0.453396 -1.39541 9.31187
      vertex -0.655354 -1.2 9.6101
    endloop
  endfacet
  facet normal 0.387033 0.869287 -0.307483
    outer loop
      vertex -0.655354 -1.2 9.6101
      vertex -0.453396 -1.39541 9.31187
      vertex -0.670421 -1.2 9.59114
    endloop
  endfacet
  facet normal 0.352728 0.792236 -0.49794
    outer loop
      vertex -0.498468 -1.2 9.72124
      vertex -0.423452 -1.30325 9.6101
      vertex -0.655354 -1.2 9.6101
    endloop
  endfacet
  facet normal 0.352725 0.792237 -0.497942
    outer loop
      vertex -0.389904 -1.2 9.79814
      vertex -0.423452 -1.30325 9.6101
      vertex -0.498468 -1.2 9.72124
    endloop
  endfacet
  facet normal 0.180302 0.84826 -0.497942
    outer loop
      vertex -0.324057 -1.2 9.82198
      vertex -0.143237 -1.36281 9.6101
      vertex -0.389904 -1.2 9.79814
    endloop
  endfacet
  facet normal 0.180302 0.84826 -0.497942
    outer loop
      vertex -0.389904 -1.2 9.79814
      vertex -0.143237 -1.36281 9.6101
      vertex -0.423452 -1.30325 9.6101
    endloop
  endfacet
  facet normal 0.180306 0.848261 -0.497939
    outer loop
      vertex -0.126848 -1.20688 9.88168
      vertex -0.143237 -1.36281 9.6101
      vertex -0.159206 -1.2 9.88168
    endloop
  endfacet
  facet normal 0.180306 0.848261 -0.497939
    outer loop
      vertex -0.159206 -1.2 9.88168
      vertex -0.143237 -1.36281 9.6101
      vertex -0.324057 -1.2 9.82198
    endloop
  endfacet
  facet normal 0.15489 0.72869 -0.667098
    outer loop
      vertex -0.131845 -1.2 9.88803
      vertex -0.126848 -1.20688 9.88168
      vertex -0.159206 -1.2 9.88168
    endloop
  endfacet
  facet normal 0.154888 0.72869 -0.667099
    outer loop
      vertex -0.126125 -1.2 9.88936
      vertex -0.126848 -1.20688 9.88168
      vertex -0.131845 -1.2 9.88803
    endloop
  endfacet
  facet normal 0 0.744969 -0.667099
    outer loop
      vertex 0.126125 -1.2 9.88936
      vertex 0.126848 -1.20688 9.88168
      vertex -0.126125 -1.2 9.88936
    endloop
  endfacet
  facet normal 0 0.744969 -0.667099
    outer loop
      vertex -0.126125 -1.2 9.88936
      vertex 0.126848 -1.20688 9.88168
      vertex -0.126848 -1.20688 9.88168
    endloop
  endfacet
  facet normal -0.15489 0.728689 -0.667099
    outer loop
      vertex 0.159206 -1.2 9.88168
      vertex 0.126848 -1.20688 9.88168
      vertex 0.126125 -1.2 9.88936
    endloop
  endfacet
  facet normal -0.180305 0.848259 -0.497942
    outer loop
      vertex 0.389904 -1.2 9.79814
      vertex 0.423452 -1.30325 9.6101
      vertex 0.159206 -1.2 9.88168
    endloop
  endfacet
  facet normal -0.180305 0.848259 -0.497942
    outer loop
      vertex 0.159206 -1.2 9.88168
      vertex 0.423452 -1.30325 9.6101
      vertex 0.126848 -1.20688 9.88168
    endloop
  endfacet
  facet normal -0.352728 0.792235 -0.497942
    outer loop
      vertex 0.655354 -1.2 9.6101
      vertex 0.423452 -1.30325 9.6101
      vertex 0.389904 -1.2 9.79814
    endloop
  endfacet
  facet normal -0.387033 0.869286 -0.307486
    outer loop
      vertex 0.69282 -1.2 9.56295
      vertex 0.733611 -1.27065 9.31187
      vertex 0.655354 -1.2 9.6101
    endloop
  endfacet
  facet normal -0.387033 0.869286 -0.307486
    outer loop
      vertex 0.655354 -1.2 9.6101
      vertex 0.733611 -1.27065 9.31187
      vertex 0.423452 -1.30325 9.6101
    endloop
  endfacet
  facet normal -0.559309 0.769822 -0.307487
    outer loop
      vertex 0.830854 -1.2 9.31187
      vertex 0.733611 -1.27065 9.31187
      vertex 0.69282 -1.2 9.56295
    endloop
  endfacet
  facet normal -0.5846 0.804633 -0.103961
    outer loop
      vertex 0.830854 -1.2 9.31187
      vertex 0.855982 -1.2 9.17057
      vertex 0.733611 -1.27065 9.31187
    endloop
  endfacet
  facet normal -0.5846 0.804633 -0.103961
    outer loop
      vertex 0.886314 -1.2 9
      vertex 0.75 -1.29904 9
      vertex 0.855982 -1.2 9.17057
    endloop
  endfacet
  facet normal -0.5846 0.804633 -0.103961
    outer loop
      vertex 0.855982 -1.2 9.17057
      vertex 0.75 -1.29904 9
      vertex 0.733611 -1.27065 9.31187
    endloop
  endfacet
  facet normal -0.5846 0.804633 0.103961
    outer loop
      vertex 0.886314 -1.2 9
      vertex 0.859993 -1.2 8.85199
      vertex 0.75 -1.29904 9
    endloop
  endfacet
  facet normal -0.5846 0.804633 0.103961
    outer loop
      vertex 0.859993 -1.2 8.85199
      vertex 0.830854 -1.2 8.68813
      vertex 0.75 -1.29904 9
    endloop
  endfacet
  facet normal -0.5846 0.804633 0.103961
    outer loop
      vertex 0.75 -1.29904 9
      vertex 0.830854 -1.2 8.68813
      vertex 0.733611 -1.27065 8.68813
    endloop
  endfacet
  facet normal -0.559309 0.769822 0.307485
    outer loop
      vertex 0.830854 -1.2 8.68813
      vertex 0.784942 -1.2 8.60462
      vertex 0.733611 -1.27065 8.68813
    endloop
  endfacet
  facet normal -0.559307 0.769823 0.307487
    outer loop
      vertex 0.733611 -1.27065 8.68813
      vertex 0.784942 -1.2 8.60462
      vertex 0.69282 -1.2 8.43705
    endloop
  endfacet
  facet normal -0.387029 0.869287 0.307486
    outer loop
      vertex 0.69282 -1.2 8.43705
      vertex 0.670421 -1.2 8.40886
      vertex 0.733611 -1.27065 8.68813
    endloop
  endfacet
  facet normal -0.387029 0.869287 0.307486
    outer loop
      vertex 0.733611 -1.27065 8.68813
      vertex 0.670421 -1.2 8.40886
      vertex 0.453396 -1.39541 8.68813
    endloop
  endfacet
  facet normal -0.387033 0.869287 0.307483
    outer loop
      vertex 0.670421 -1.2 8.40886
      vertex 0.655354 -1.2 8.38989
      vertex 0.453396 -1.39541 8.68813
    endloop
  endfacet
  facet normal -0.387033 0.869287 0.307483
    outer loop
      vertex 0.453396 -1.39541 8.68813
      vertex 0.655354 -1.2 8.38989
      vertex 0.423452 -1.30325 8.38989
    endloop
  endfacet
  facet normal -0.352728 0.792236 0.49794
    outer loop
      vertex 0.655354 -1.2 8.38989
      vertex 0.498468 -1.2 8.27876
      vertex 0.423452 -1.30325 8.38989
    endloop
  endfacet
  facet normal -0.352725 0.792237 0.497942
    outer loop
      vertex 0.423452 -1.30325 8.38989
      vertex 0.498468 -1.2 8.27876
      vertex 0.389904 -1.2 8.20186
    endloop
  endfacet
  facet normal -0.180302 0.84826 0.497942
    outer loop
      vertex 0.389904 -1.2 8.20186
      vertex 0.324057 -1.2 8.17802
      vertex 0.423452 -1.30325 8.38989
    endloop
  endfacet
  facet normal -0.180302 0.84826 0.497942
    outer loop
      vertex 0.423452 -1.30325 8.38989
      vertex 0.324057 -1.2 8.17802
      vertex 0.143237 -1.36281 8.38989
    endloop
  endfacet
  facet normal -0.180306 0.848261 0.497939
    outer loop
      vertex 0.324057 -1.2 8.17802
      vertex 0.159206 -1.2 8.11832
      vertex 0.143237 -1.36281 8.38989
    endloop
  endfacet
  facet normal -0.180306 0.848261 0.497939
    outer loop
      vertex 0.143237 -1.36281 8.38989
      vertex 0.159206 -1.2 8.11832
      vertex 0.126848 -1.20688 8.11832
    endloop
  endfacet
  facet normal -0.15489 0.72869 0.667098
    outer loop
      vertex 0.159206 -1.2 8.11832
      vertex 0.131845 -1.2 8.11197
      vertex 0.126848 -1.20688 8.11832
    endloop
  endfacet
  facet normal -0.154888 0.72869 0.667099
    outer loop
      vertex 0.126848 -1.20688 8.11832
      vertex 0.131845 -1.2 8.11197
      vertex 0.126125 -1.2 8.11064
    endloop
  endfacet
  facet normal 0 0.744969 0.667099
    outer loop
      vertex 0.126125 -1.2 8.11064
      vertex -0.126125 -1.2 8.11064
      vertex 0.126848 -1.20688 8.11832
    endloop
  endfacet
  facet normal 0 0.744969 0.667099
    outer loop
      vertex 0.126848 -1.20688 8.11832
      vertex -0.126125 -1.2 8.11064
      vertex -0.126848 -1.20688 8.11832
    endloop
  endfacet
  facet normal 0.15489 0.728689 0.667099
    outer loop
      vertex -0.126848 -1.20688 8.11832
      vertex -0.126125 -1.2 8.11064
      vertex -0.159206 -1.2 8.11832
    endloop
  endfacet
  facet normal 0.180305 0.848259 0.497942
    outer loop
      vertex -0.159206 -1.2 8.11832
      vertex -0.389904 -1.2 8.20186
      vertex -0.126848 -1.20688 8.11832
    endloop
  endfacet
  facet normal 0.180305 0.848259 0.497942
    outer loop
      vertex -0.126848 -1.20688 8.11832
      vertex -0.389904 -1.2 8.20186
      vertex -0.423452 -1.30325 8.38989
    endloop
  endfacet
  facet normal 0.352728 0.792235 0.497942
    outer loop
      vertex -0.423452 -1.30325 8.38989
      vertex -0.389904 -1.2 8.20186
      vertex -0.655354 -1.2 8.38989
    endloop
  endfacet
  facet normal 0.387033 0.869286 0.307486
    outer loop
      vertex -0.655354 -1.2 8.38989
      vertex -0.69282 -1.2 8.43705
      vertex -0.423452 -1.30325 8.38989
    endloop
  endfacet
  facet normal 0.387033 0.869286 0.307486
    outer loop
      vertex -0.423452 -1.30325 8.38989
      vertex -0.69282 -1.2 8.43705
      vertex -0.733611 -1.27065 8.68813
    endloop
  endfacet
  facet normal 0.559309 0.769822 0.307487
    outer loop
      vertex -0.733611 -1.27065 8.68813
      vertex -0.69282 -1.2 8.43705
      vertex -0.830854 -1.2 8.68813
    endloop
  endfacet
  facet normal 0.5846 0.804633 0.103961
    outer loop
      vertex -0.733611 -1.27065 8.68813
      vertex -0.830854 -1.2 8.68813
      vertex -0.855982 -1.2 8.82943
    endloop
  endfacet
  facet normal 0 0 1
    outer loop
      vertex -1.2 2.7 10.5
      vertex -1.2 1.2 10.5
      vertex 1.2 1.2 10.5
    endloop
  endfacet
  facet normal 0 0 1
    outer loop
      vertex 1.2 2.7 10.5
      vertex -1.2 2.7 10.5
      vertex 1.2 1.2 10.5
    endloop
  endfacet
  facet normal 0.5846 -0.804633 0.103961
    outer loop
      vertex -0.830854 1.2 8.68813
      vertex -0.733611 1.27065 8.68813
      vertex -0.75 1.29904 9
    endloop
  endfacet
  facet normal 0.5846 -0.804633 0.103961
    outer loop
      vertex -0.859993 1.2 8.85199
      vertex -0.830854 1.2 8.68813
      vertex -0.75 1.29904 9
    endloop
  endfacet
  facet normal 0.5846 -0.804633 0.103961
    outer loop
      vertex -0.859993 1.2 8.85199
      vertex -0.75 1.29904 9
      vertex -0.886314 1.2 9
    endloop
  endfacet
  facet normal 0.559309 -0.769822 0.307485
    outer loop
      vertex -0.784942 1.2 8.60462
      vertex -0.733611 1.27065 8.68813
      vertex -0.830854 1.2 8.68813
    endloop
  endfacet
  facet normal 0.559307 -0.769823 0.307487
    outer loop
      vertex -0.69282 1.2 8.43705
      vertex -0.733611 1.27065 8.68813
      vertex -0.784942 1.2 8.60462
    endloop
  endfacet
  facet normal 0.387029 -0.869287 0.307486
    outer loop
      vertex -0.69282 1.2 8.43705
      vertex -0.670421 1.2 8.40886
      vertex -0.453396 1.39541 8.68813
    endloop
  endfacet
  facet normal 0.387029 -0.869287 0.307486
    outer loop
      vertex -0.733611 1.27065 8.68813
      vertex -0.69282 1.2 8.43705
      vertex -0.453396 1.39541 8.68813
    endloop
  endfacet
  facet normal 0.387033 -0.869287 0.307483
    outer loop
      vertex -0.655354 1.2 8.38989
      vertex -0.423452 1.30325 8.38989
      vertex -0.453396 1.39541 8.68813
    endloop
  endfacet
  facet normal 0.387033 -0.869287 0.307483
    outer loop
      vertex -0.670421 1.2 8.40886
      vertex -0.655354 1.2 8.38989
      vertex -0.453396 1.39541 8.68813
    endloop
  endfacet
  facet normal 0.352728 -0.792236 0.49794
    outer loop
      vertex -0.498468 1.2 8.27876
      vertex -0.423452 1.30325 8.38989
      vertex -0.655354 1.2 8.38989
    endloop
  endfacet
  facet normal 0.352725 -0.792237 0.497942
    outer loop
      vertex -0.389904 1.2 8.20186
      vertex -0.423452 1.30325 8.38989
      vertex -0.498468 1.2 8.27876
    endloop
  endfacet
  facet normal 0.180302 -0.84826 0.497942
    outer loop
      vertex -0.389904 1.2 8.20186
      vertex -0.324057 1.2 8.17802
      vertex -0.143237 1.36281 8.38989
    endloop
  endfacet
  facet normal 0.180302 -0.84826 0.497942
    outer loop
      vertex -0.423452 1.30325 8.38989
      vertex -0.389904 1.2 8.20186
      vertex -0.143237 1.36281 8.38989
    endloop
  endfacet
  facet normal 0.180306 -0.848261 0.497939
    outer loop
      vertex -0.159206 1.2 8.11832
      vertex -0.126848 1.20688 8.11832
      vertex -0.143237 1.36281 8.38989
    endloop
  endfacet
  facet normal 0.180306 -0.848261 0.497939
    outer loop
      vertex -0.324057 1.2 8.17802
      vertex -0.159206 1.2 8.11832
      vertex -0.143237 1.36281 8.38989
    endloop
  endfacet
  facet normal 0.15489 -0.72869 0.667098
    outer loop
      vertex -0.131845 1.2 8.11197
      vertex -0.126848 1.20688 8.11832
      vertex -0.159206 1.2 8.11832
    endloop
  endfacet
  facet normal 0.154888 -0.72869 0.667099
    outer loop
      vertex -0.126125 1.2 8.11064
      vertex -0.126848 1.20688 8.11832
      vertex -0.131845 1.2 8.11197
    endloop
  endfacet
  facet normal 0 -0.744969 0.667099
    outer loop
      vertex -0.126125 1.2 8.11064
      vertex 0.126125 1.2 8.11064
      vertex 0.126848 1.20688 8.11832
    endloop
  endfacet
  facet normal 0 -0.744969 0.667099
    outer loop
      vertex -0.126848 1.20688 8.11832
      vertex -0.126125 1.2 8.11064
      vertex 0.126848 1.20688 8.11832
    endloop
  endfacet
  facet normal -0.15489 -0.728689 0.667099
    outer loop
      vertex 0.159206 1.2 8.11832
      vertex 0.126848 1.20688 8.11832
      vertex 0.126125 1.2 8.11064
    endloop
  endfacet
  facet normal -0.180305 -0.848259 0.497942
    outer loop
      vertex 0.159206 1.2 8.11832
      vertex 0.389904 1.2 8.20186
      vertex 0.423452 1.30325 8.38989
    endloop
  endfacet
  facet normal -0.180305 -0.848259 0.497942
    outer loop
      vertex 0.126848 1.20688 8.11832
      vertex 0.159206 1.2 8.11832
      vertex 0.423452 1.30325 8.38989
    endloop
  endfacet
  facet normal -0.352728 -0.792235 0.497942
    outer loop
      vertex 0.655354 1.2 8.38989
      vertex 0.423452 1.30325 8.38989
      vertex 0.389904 1.2 8.20186
    endloop
  endfacet
  facet normal -0.387033 -0.869286 0.307486
    outer loop
      vertex 0.655354 1.2 8.38989
      vertex 0.69282 1.2 8.43705
      vertex 0.733611 1.27065 8.68813
    endloop
  endfacet
  facet normal -0.387033 -0.869286 0.307486
    outer loop
      vertex 0.423452 1.30325 8.38989
      vertex 0.655354 1.2 8.38989
      vertex 0.733611 1.27065 8.68813
    endloop
  endfacet
  facet normal -0.559309 -0.769822 0.307487
    outer loop
      vertex 0.830854 1.2 8.68813
      vertex 0.733611 1.27065 8.68813
      vertex 0.69282 1.2 8.43705
    endloop
  endfacet
  facet normal -0.5846 -0.804633 0.103961
    outer loop
      vertex 0.830854 1.2 8.68813
      vertex 0.855982 1.2 8.82943
      vertex 0.733611 1.27065 8.68813
    endloop
  endfacet
  facet normal -0.5846 -0.804633 0.103961
    outer loop
      vertex 0.855982 1.2 8.82943
      vertex 0.886314 1.2 9
      vertex 0.75 1.29904 9
    endloop
  endfacet
  facet normal -0.5846 -0.804633 0.103961
    outer loop
      vertex 0.733611 1.27065 8.68813
      vertex 0.855982 1.2 8.82943
      vertex 0.75 1.29904 9
    endloop
  endfacet
  facet normal -0.5846 -0.804633 -0.103961
    outer loop
      vertex 0.886314 1.2 9
      vertex 0.859993 1.2 9.14801
      vertex 0.75 1.29904 9
    endloop
  endfacet
  facet normal -0.5846 -0.804633 -0.103961
    outer loop
      vertex 0.75 1.29904 9
      vertex 0.859993 1.2 9.14801
      vertex 0.830854 1.2 9.31187
    endloop
  endfacet
  facet normal -0.5846 -0.804633 -0.103961
    outer loop
      vertex 0.733611 1.27065 9.31187
      vertex 0.75 1.29904 9
      vertex 0.830854 1.2 9.31187
    endloop
  endfacet
  facet normal -0.559309 -0.769822 -0.307485
    outer loop
      vertex 0.830854 1.2 9.31187
      vertex 0.784942 1.2 9.39538
      vertex 0.733611 1.27065 9.31187
    endloop
  endfacet
  facet normal -0.559307 -0.769823 -0.307487
    outer loop
      vertex 0.733611 1.27065 9.31187
      vertex 0.784942 1.2 9.39538
      vertex 0.69282 1.2 9.56295
    endloop
  endfacet
  facet normal -0.387029 -0.869287 -0.307486
    outer loop
      vertex 0.733611 1.27065 9.31187
      vertex 0.69282 1.2 9.56295
      vertex 0.670421 1.2 9.59114
    endloop
  endfacet
  facet normal -0.387029 -0.869287 -0.307486
    outer loop
      vertex 0.453396 1.39541 9.31187
      vertex 0.733611 1.27065 9.31187
      vertex 0.670421 1.2 9.59114
    endloop
  endfacet
  facet normal -0.387033 -0.869287 -0.307483
    outer loop
      vertex 0.453396 1.39541 9.31187
      vertex 0.670421 1.2 9.59114
      vertex 0.655354 1.2 9.6101
    endloop
  endfacet
  facet normal -0.387033 -0.869287 -0.307483
    outer loop
      vertex 0.423452 1.30325 9.6101
      vertex 0.453396 1.39541 9.31187
      vertex 0.655354 1.2 9.6101
    endloop
  endfacet
  facet normal -0.352728 -0.792236 -0.49794
    outer loop
      vertex 0.655354 1.2 9.6101
      vertex 0.498468 1.2 9.72124
      vertex 0.423452 1.30325 9.6101
    endloop
  endfacet
  facet normal -0.352725 -0.792237 -0.497942
    outer loop
      vertex 0.423452 1.30325 9.6101
      vertex 0.498468 1.2 9.72124
      vertex 0.389904 1.2 9.79814
    endloop
  endfacet
  facet normal -0.180302 -0.84826 -0.497942
    outer loop
      vertex 0.423452 1.30325 9.6101
      vertex 0.389904 1.2 9.79814
      vertex 0.324057 1.2 9.82198
    endloop
  endfacet
  facet normal -0.180302 -0.84826 -0.497942
    outer loop
      vertex 0.143237 1.36281 9.6101
      vertex 0.423452 1.30325 9.6101
      vertex 0.324057 1.2 9.82198
    endloop
  endfacet
  facet normal -0.180306 -0.848261 -0.497939
    outer loop
      vertex 0.143237 1.36281 9.6101
      vertex 0.324057 1.2 9.82198
      vertex 0.159206 1.2 9.88168
    endloop
  endfacet
  facet normal -0.180306 -0.848261 -0.497939
    outer loop
      vertex 0.126848 1.20688 9.88168
      vertex 0.143237 1.36281 9.6101
      vertex 0.159206 1.2 9.88168
    endloop
  endfacet
  facet normal -0.15489 -0.72869 -0.667098
    outer loop
      vertex 0.159206 1.2 9.88168
      vertex 0.131845 1.2 9.88803
      vertex 0.126848 1.20688 9.88168
    endloop
  endfacet
  facet normal -0.154888 -0.72869 -0.667099
    outer loop
      vertex 0.126848 1.20688 9.88168
      vertex 0.131845 1.2 9.88803
      vertex 0.126125 1.2 9.88936
    endloop
  endfacet
  facet normal 0 -0.744969 -0.667099
    outer loop
      vertex 0.126848 1.20688 9.88168
      vertex 0.126125 1.2 9.88936
      vertex -0.126125 1.2 9.88936
    endloop
  endfacet
  facet normal 0 -0.744969 -0.667099
    outer loop
      vertex -0.126848 1.20688 9.88168
      vertex 0.126848 1.20688 9.88168
      vertex -0.126125 1.2 9.88936
    endloop
  endfacet
  facet normal 0.15489 -0.728689 -0.667099
    outer loop
      vertex -0.126848 1.20688 9.88168
      vertex -0.126125 1.2 9.88936
      vertex -0.159206 1.2 9.88168
    endloop
  endfacet
  facet normal 0.180305 -0.848259 -0.497942
    outer loop
      vertex -0.126848 1.20688 9.88168
      vertex -0.159206 1.2 9.88168
      vertex -0.389904 1.2 9.79814
    endloop
  endfacet
  facet normal 0.180305 -0.848259 -0.497942
    outer loop
      vertex -0.423452 1.30325 9.6101
      vertex -0.126848 1.20688 9.88168
      vertex -0.389904 1.2 9.79814
    endloop
  endfacet
  facet normal 0.352728 -0.792235 -0.497942
    outer loop
      vertex -0.423452 1.30325 9.6101
      vertex -0.389904 1.2 9.79814
      vertex -0.655354 1.2 9.6101
    endloop
  endfacet
  facet normal 0.387033 -0.869286 -0.307486
    outer loop
      vertex -0.423452 1.30325 9.6101
      vertex -0.655354 1.2 9.6101
      vertex -0.69282 1.2 9.56295
    endloop
  endfacet
  facet normal 0.387033 -0.869286 -0.307486
    outer loop
      vertex -0.733611 1.27065 9.31187
      vertex -0.423452 1.30325 9.6101
      vertex -0.69282 1.2 9.56295
    endloop
  endfacet
  facet normal 0.559309 -0.769822 -0.307487
    outer loop
      vertex -0.733611 1.27065 9.31187
      vertex -0.69282 1.2 9.56295
      vertex -0.830854 1.2 9.31187
    endloop
  endfacet
  facet normal 0.5846 -0.804633 -0.103961
    outer loop
      vertex -0.733611 1.27065 9.31187
      vertex -0.830854 1.2 9.31187
      vertex -0.855982 1.2 9.17057
    endloop
  endfacet
  facet normal 0.5846 -0.804633 -0.103961
    outer loop
      vertex -0.75 1.29904 9
      vertex -0.733611 1.27065 9.31187
      vertex -0.855982 1.2 9.17057
    endloop
  endfacet
  facet normal 0.5846 -0.804633 -0.103961
    outer loop
      vertex -0.886314 1.2 9
      vertex -0.75 1.29904 9
      vertex -0.855982 1.2 9.17057
    endloop
  endfacet
  facet normal 0.404533 0.908595 0.103964
    outer loop
      vertex -0.463525 -1.42658 9
      vertex -0.453396 -1.39541 8.68813
      vertex -0.75 -1.29904 9
    endloop
  endfacet
  facet normal 0.404533 0.908595 -0.103961
    outer loop
      vertex -0.733611 -1.27065 9.31187
      vertex -0.463525 -1.42658 9
      vertex -0.75 -1.29904 9
    endloop
  endfacet
  facet normal 0.404531 0.908596 0.103961
    outer loop
      vertex -0.453396 -1.39541 8.68813
      vertex -0.733611 -1.27065 8.68813
      vertex -0.75 -1.29904 9
    endloop
  endfacet
  facet normal 0.38703 0.869288 0.307483
    outer loop
      vertex -0.453396 -1.39541 8.68813
      vertex -0.423452 -1.30325 8.38989
      vertex -0.733611 -1.27065 8.68813
    endloop
  endfacet
  facet normal 0.404531 0.908596 -0.103964
    outer loop
      vertex -0.453396 -1.39541 9.31187
      vertex -0.463525 -1.42658 9
      vertex -0.733611 -1.27065 9.31187
    endloop
  endfacet
  facet normal 0.206787 0.972847 -0.103962
    outer loop
      vertex -0.153366 -1.45918 9.31187
      vertex -0.156793 -1.49178 9
      vertex -0.453396 -1.39541 9.31187
    endloop
  endfacet
  facet normal 0.197841 0.930759 -0.307483
    outer loop
      vertex -0.423452 -1.30325 9.6101
      vertex -0.153366 -1.45918 9.31187
      vertex -0.453396 -1.39541 9.31187
    endloop
  endfacet
  facet normal 0.206785 0.972847 -0.103964
    outer loop
      vertex -0.453396 -1.39541 9.31187
      vertex -0.156793 -1.49178 9
      vertex -0.463525 -1.42658 9
    endloop
  endfacet
  facet normal 0.197837 0.930759 -0.307487
    outer loop
      vertex -0.143237 -1.36281 9.6101
      vertex -0.153366 -1.45918 9.31187
      vertex -0.423452 -1.30325 9.6101
    endloop
  endfacet
  facet normal 0 0.951552 -0.307487
    outer loop
      vertex 0.143237 -1.36281 9.6101
      vertex 0.153366 -1.45918 9.31187
      vertex -0.143237 -1.36281 9.6101
    endloop
  endfacet
  facet normal 0 0.951552 -0.307487
    outer loop
      vertex -0.143237 -1.36281 9.6101
      vertex 0.153366 -1.45918 9.31187
      vertex -0.153366 -1.45918 9.31187
    endloop
  endfacet
  facet normal 0 0.867212 -0.49794
    outer loop
      vertex 0.126848 -1.20688 9.88168
      vertex 0.143237 -1.36281 9.6101
      vertex -0.126848 -1.20688 9.88168
    endloop
  endfacet
  facet normal 0 0.867212 -0.49794
    outer loop
      vertex -0.126848 -1.20688 9.88168
      vertex 0.143237 -1.36281 9.6101
      vertex -0.143237 -1.36281 9.6101
    endloop
  endfacet
  facet normal -0.180302 0.848261 -0.497939
    outer loop
      vertex 0.423452 -1.30325 9.6101
      vertex 0.143237 -1.36281 9.6101
      vertex 0.126848 -1.20688 9.88168
    endloop
  endfacet
  facet normal -0.197837 0.93076 -0.307483
    outer loop
      vertex 0.423452 -1.30325 9.6101
      vertex 0.453396 -1.39541 9.31187
      vertex 0.143237 -1.36281 9.6101
    endloop
  endfacet
  facet normal -0.38703 0.869288 -0.307483
    outer loop
      vertex 0.733611 -1.27065 9.31187
      vertex 0.453396 -1.39541 9.31187
      vertex 0.423452 -1.30325 9.6101
    endloop
  endfacet
  facet normal -0.404531 0.908596 -0.103961
    outer loop
      vertex 0.733611 -1.27065 9.31187
      vertex 0.75 -1.29904 9
      vertex 0.453396 -1.39541 9.31187
    endloop
  endfacet
  facet normal -0.404533 0.908595 -0.103964
    outer loop
      vertex 0.75 -1.29904 9
      vertex 0.463525 -1.42658 9
      vertex 0.453396 -1.39541 9.31187
    endloop
  endfacet
  facet normal -0.404533 0.908595 0.103961
    outer loop
      vertex 0.75 -1.29904 9
      vertex 0.733611 -1.27065 8.68813
      vertex 0.463525 -1.42658 9
    endloop
  endfacet
  facet normal -0.404531 0.908596 0.103964
    outer loop
      vertex 0.463525 -1.42658 9
      vertex 0.733611 -1.27065 8.68813
      vertex 0.453396 -1.39541 8.68813
    endloop
  endfacet
  facet normal -0.206785 0.972847 0.103964
    outer loop
      vertex 0.463525 -1.42658 9
      vertex 0.453396 -1.39541 8.68813
      vertex 0.156793 -1.49178 9
    endloop
  endfacet
  facet normal -0.206787 0.972847 0.103962
    outer loop
      vertex 0.156793 -1.49178 9
      vertex 0.453396 -1.39541 8.68813
      vertex 0.153366 -1.45918 8.68813
    endloop
  endfacet
  facet normal -0.197841 0.930759 0.307483
    outer loop
      vertex 0.453396 -1.39541 8.68813
      vertex 0.423452 -1.30325 8.38989
      vertex 0.153366 -1.45918 8.68813
    endloop
  endfacet
  facet normal -0.197837 0.930759 0.307487
    outer loop
      vertex 0.153366 -1.45918 8.68813
      vertex 0.423452 -1.30325 8.38989
      vertex 0.143237 -1.36281 8.38989
    endloop
  endfacet
  facet normal 0 0.951552 0.307487
    outer loop
      vertex 0.143237 -1.36281 8.38989
      vertex -0.143237 -1.36281 8.38989
      vertex 0.153366 -1.45918 8.68813
    endloop
  endfacet
  facet normal 0 0.951552 0.307487
    outer loop
      vertex 0.153366 -1.45918 8.68813
      vertex -0.143237 -1.36281 8.38989
      vertex -0.153366 -1.45918 8.68813
    endloop
  endfacet
  facet normal 0 0.867212 0.49794
    outer loop
      vertex 0.126848 -1.20688 8.11832
      vertex -0.126848 -1.20688 8.11832
      vertex 0.143237 -1.36281 8.38989
    endloop
  endfacet
  facet normal 0 0.867212 0.49794
    outer loop
      vertex 0.143237 -1.36281 8.38989
      vertex -0.126848 -1.20688 8.11832
      vertex -0.143237 -1.36281 8.38989
    endloop
  endfacet
  facet normal 0.180302 0.848261 0.497939
    outer loop
      vertex -0.143237 -1.36281 8.38989
      vertex -0.126848 -1.20688 8.11832
      vertex -0.423452 -1.30325 8.38989
    endloop
  endfacet
  facet normal 0.197837 0.93076 0.307483
    outer loop
      vertex -0.143237 -1.36281 8.38989
      vertex -0.423452 -1.30325 8.38989
      vertex -0.453396 -1.39541 8.68813
    endloop
  endfacet
  facet normal 0.404531 -0.908596 -0.103961
    outer loop
      vertex -0.453396 1.39541 9.31187
      vertex -0.733611 1.27065 9.31187
      vertex -0.75 1.29904 9
    endloop
  endfacet
  facet normal 0.404533 -0.908595 -0.103964
    outer loop
      vertex -0.463525 1.42658 9
      vertex -0.453396 1.39541 9.31187
      vertex -0.75 1.29904 9
    endloop
  endfacet
  facet normal 0.404533 -0.908595 0.103961
    outer loop
      vertex -0.733611 1.27065 8.68813
      vertex -0.463525 1.42658 9
      vertex -0.75 1.29904 9
    endloop
  endfacet
  facet normal 0.404531 -0.908596 0.103964
    outer loop
      vertex -0.453396 1.39541 8.68813
      vertex -0.463525 1.42658 9
      vertex -0.733611 1.27065 8.68813
    endloop
  endfacet
  facet normal 0.206785 -0.972847 0.103964
    outer loop
      vertex -0.453396 1.39541 8.68813
      vertex -0.156793 1.49178 9
      vertex -0.463525 1.42658 9
    endloop
  endfacet
  facet normal 0.206787 -0.972847 0.103962
    outer loop
      vertex -0.153366 1.45918 8.68813
      vertex -0.156793 1.49178 9
      vertex -0.453396 1.39541 8.68813
    endloop
  endfacet
  facet normal 0.197841 -0.930759 0.307483
    outer loop
      vertex -0.423452 1.30325 8.38989
      vertex -0.153366 1.45918 8.68813
      vertex -0.453396 1.39541 8.68813
    endloop
  endfacet
  facet normal 0.197837 -0.930759 0.307487
    outer loop
      vertex -0.143237 1.36281 8.38989
      vertex -0.153366 1.45918 8.68813
      vertex -0.423452 1.30325 8.38989
    endloop
  endfacet
  facet normal 0 -0.951552 0.307487
    outer loop
      vertex -0.143237 1.36281 8.38989
      vertex 0.143237 1.36281 8.38989
      vertex 0.153366 1.45918 8.68813
    endloop
  endfacet
  facet normal 0 -0.951552 0.307487
    outer loop
      vertex -0.153366 1.45918 8.68813
      vertex -0.143237 1.36281 8.38989
      vertex 0.153366 1.45918 8.68813
    endloop
  endfacet
  facet normal 0 -0.867212 0.49794
    outer loop
      vertex -0.126848 1.20688 8.11832
      vertex 0.126848 1.20688 8.11832
      vertex 0.143237 1.36281 8.38989
    endloop
  endfacet
  facet normal 0 -0.867212 0.49794
    outer loop
      vertex -0.143237 1.36281 8.38989
      vertex -0.126848 1.20688 8.11832
      vertex 0.143237 1.36281 8.38989
    endloop
  endfacet
  facet normal -0.180302 -0.848261 0.497939
    outer loop
      vertex 0.423452 1.30325 8.38989
      vertex 0.143237 1.36281 8.38989
      vertex 0.126848 1.20688 8.11832
    endloop
  endfacet
  facet normal -0.197837 -0.93076 0.307483
    outer loop
      vertex 0.423452 1.30325 8.38989
      vertex 0.453396 1.39541 8.68813
      vertex 0.143237 1.36281 8.38989
    endloop
  endfacet
  facet normal -0.38703 -0.869288 0.307483
    outer loop
      vertex 0.733611 1.27065 8.68813
      vertex 0.453396 1.39541 8.68813
      vertex 0.423452 1.30325 8.38989
    endloop
  endfacet
  facet normal -0.404531 -0.908596 0.103961
    outer loop
      vertex 0.733611 1.27065 8.68813
      vertex 0.75 1.29904 9
      vertex 0.453396 1.39541 8.68813
    endloop
  endfacet
  facet normal -0.404533 -0.908595 0.103964
    outer loop
      vertex 0.75 1.29904 9
      vertex 0.463525 1.42658 9
      vertex 0.453396 1.39541 8.68813
    endloop
  endfacet
  facet normal -0.404533 -0.908595 -0.103961
    outer loop
      vertex 0.75 1.29904 9
      vertex 0.733611 1.27065 9.31187
      vertex 0.463525 1.42658 9
    endloop
  endfacet
  facet normal -0.404531 -0.908596 -0.103964
    outer loop
      vertex 0.463525 1.42658 9
      vertex 0.733611 1.27065 9.31187
      vertex 0.453396 1.39541 9.31187
    endloop
  endfacet
  facet normal -0.206787 -0.972847 -0.103962
    outer loop
      vertex 0.156793 1.49178 9
      vertex 0.453396 1.39541 9.31187
      vertex 0.153366 1.45918 9.31187
    endloop
  endfacet
  facet normal -0.197841 -0.930759 -0.307483
    outer loop
      vertex 0.453396 1.39541 9.31187
      vertex 0.423452 1.30325 9.6101
      vertex 0.153366 1.45918 9.31187
    endloop
  endfacet
  facet normal -0.206785 -0.972847 -0.103964
    outer loop
      vertex 0.463525 1.42658 9
      vertex 0.453396 1.39541 9.31187
      vertex 0.156793 1.49178 9
    endloop
  endfacet
  facet normal -0.197837 -0.930759 -0.307487
    outer loop
      vertex 0.153366 1.45918 9.31187
      vertex 0.423452 1.30325 9.6101
      vertex 0.143237 1.36281 9.6101
    endloop
  endfacet
  facet normal 0 -0.951552 -0.307487
    outer loop
      vertex 0.153366 1.45918 9.31187
      vertex 0.143237 1.36281 9.6101
      vertex -0.143237 1.36281 9.6101
    endloop
  endfacet
  facet normal 0 -0.951552 -0.307487
    outer loop
      vertex -0.153366 1.45918 9.31187
      vertex 0.153366 1.45918 9.31187
      vertex -0.143237 1.36281 9.6101
    endloop
  endfacet
  facet normal 0 -0.867212 -0.49794
    outer loop
      vertex 0.143237 1.36281 9.6101
      vertex 0.126848 1.20688 9.88168
      vertex -0.126848 1.20688 9.88168
    endloop
  endfacet
  facet normal 0 -0.867212 -0.49794
    outer loop
      vertex -0.143237 1.36281 9.6101
      vertex 0.143237 1.36281 9.6101
      vertex -0.126848 1.20688 9.88168
    endloop
  endfacet
  facet normal 0.180302 -0.848261 -0.497939
    outer loop
      vertex -0.143237 1.36281 9.6101
      vertex -0.126848 1.20688 9.88168
      vertex -0.423452 1.30325 9.6101
    endloop
  endfacet
  facet normal 0.197837 -0.93076 -0.307483
    outer loop
      vertex -0.143237 1.36281 9.6101
      vertex -0.423452 1.30325 9.6101
      vertex -0.453396 1.39541 9.31187
    endloop
  endfacet
  facet normal 0.38703 -0.869288 -0.307483
    outer loop
      vertex -0.453396 1.39541 9.31187
      vertex -0.423452 1.30325 9.6101
      vertex -0.733611 1.27065 9.31187
    endloop
  endfacet
  facet normal 0.206785 0.972847 0.103962
    outer loop
      vertex -0.156793 -1.49178 9
      vertex -0.153366 -1.45918 8.68813
      vertex -0.463525 -1.42658 9
    endloop
  endfacet
  facet normal 0.206787 0.972847 0.103964
    outer loop
      vertex -0.153366 -1.45918 8.68813
      vertex -0.453396 -1.39541 8.68813
      vertex -0.463525 -1.42658 9
    endloop
  endfacet
  facet normal 0.197841 0.930758 0.307487
    outer loop
      vertex -0.153366 -1.45918 8.68813
      vertex -0.143237 -1.36281 8.38989
      vertex -0.453396 -1.39541 8.68813
    endloop
  endfacet
  facet normal 0 0.994581 -0.103962
    outer loop
      vertex 0.153366 -1.45918 9.31187
      vertex 0.156793 -1.49178 9
      vertex -0.153366 -1.45918 9.31187
    endloop
  endfacet
  facet normal 0 0.994581 -0.103962
    outer loop
      vertex -0.153366 -1.45918 9.31187
      vertex 0.156793 -1.49178 9
      vertex -0.156793 -1.49178 9
    endloop
  endfacet
  facet normal 0 0.994581 0.103962
    outer loop
      vertex 0.153366 -1.45918 8.68813
      vertex -0.153366 -1.45918 8.68813
      vertex 0.156793 -1.49178 9
    endloop
  endfacet
  facet normal 0 0.994581 0.103962
    outer loop
      vertex 0.156793 -1.49178 9
      vertex -0.153366 -1.45918 8.68813
      vertex -0.156793 -1.49178 9
    endloop
  endfacet
  facet normal -0.206787 0.972847 -0.103964
    outer loop
      vertex 0.453396 -1.39541 9.31187
      vertex 0.463525 -1.42658 9
      vertex 0.153366 -1.45918 9.31187
    endloop
  endfacet
  facet normal -0.197841 0.930758 -0.307487
    outer loop
      vertex 0.453396 -1.39541 9.31187
      vertex 0.153366 -1.45918 9.31187
      vertex 0.143237 -1.36281 9.6101
    endloop
  endfacet
  facet normal -0.206785 0.972847 -0.103962
    outer loop
      vertex 0.463525 -1.42658 9
      vertex 0.156793 -1.49178 9
      vertex 0.153366 -1.45918 9.31187
    endloop
  endfacet
  facet normal 0.197841 -0.930758 -0.307487
    outer loop
      vertex -0.153366 1.45918 9.31187
      vertex -0.143237 1.36281 9.6101
      vertex -0.453396 1.39541 9.31187
    endloop
  endfacet
  facet normal 0.206787 -0.972847 -0.103964
    outer loop
      vertex -0.153366 1.45918 9.31187
      vertex -0.453396 1.39541 9.31187
      vertex -0.463525 1.42658 9
    endloop
  endfacet
  facet normal 0.206785 -0.972847 -0.103962
    outer loop
      vertex -0.156793 1.49178 9
      vertex -0.153366 1.45918 9.31187
      vertex -0.463525 1.42658 9
    endloop
  endfacet
  facet normal 0 -0.994581 -0.103962
    outer loop
      vertex 0.156793 1.49178 9
      vertex 0.153366 1.45918 9.31187
      vertex -0.153366 1.45918 9.31187
    endloop
  endfacet
  facet normal 0 -0.994581 -0.103962
    outer loop
      vertex -0.156793 1.49178 9
      vertex 0.156793 1.49178 9
      vertex -0.153366 1.45918 9.31187
    endloop
  endfacet
  facet normal 0 -0.994581 0.103962
    outer loop
      vertex -0.153366 1.45918 8.68813
      vertex 0.153366 1.45918 8.68813
      vertex 0.156793 1.49178 9
    endloop
  endfacet
  facet normal 0 -0.994581 0.103962
    outer loop
      vertex -0.156793 1.49178 9
      vertex -0.153366 1.45918 8.68813
      vertex 0.156793 1.49178 9
    endloop
  endfacet
  facet normal -0.206785 -0.972847 0.103962
    outer loop
      vertex 0.463525 1.42658 9
      vertex 0.156793 1.49178 9
      vertex 0.153366 1.45918 8.68813
    endloop
  endfacet
  facet normal -0.206787 -0.972847 0.103964
    outer loop
      vertex 0.453396 1.39541 8.68813
      vertex 0.463525 1.42658 9
      vertex 0.153366 1.45918 8.68813
    endloop
  endfacet
  facet normal -0.197841 -0.930758 0.307487
    outer loop
      vertex 0.453396 1.39541 8.68813
      vertex 0.153366 1.45918 8.68813
      vertex 0.143237 1.36281 8.38989
    endloop
  endfacet
endsolid OpenSCAD_Model
