solid OpenSCAD_Model
  facet normal 0 0 -1
    outer loop
      vertex -6.35 0 0
      vertex -6.21124 1.32024 0
      vertex -6.21124 -1.32024 0
    endloop
  endfacet
  facet normal 0 0 -1
    outer loop
      vertex -6.21124 -1.32024 0
      vertex -6.21124 1.32024 0
      vertex -5.80101 2.58278 0
    endloop
  endfacet
  facet normal 0 0 -1
    outer loop
      vertex -6.21124 -1.32024 0
      vertex -5.80101 2.58278 0
      vertex -5.13726 3.73244 0
    endloop
  endfacet
  facet normal 0 0 -1
    outer loop
      vertex -6.21124 -1.32024 0
      vertex -5.13726 3.73244 0
      vertex -4.24898 4.71897 0
    endloop
  endfacet
  facet normal 0 0 -1
    outer loop
      vertex -6.21124 -1.32024 0
      vertex -4.24898 4.71897 0
      vertex -3.175 5.49926 0
    endloop
  endfacet
  facet normal 0 0 -1
    outer loop
      vertex -6.21124 -1.32024 0
      vertex -3.175 5.49926 0
      vertex -1.96226 6.03921 0
    endloop
  endfacet
  facet normal 0 0 -1
    outer loop
      vertex -6.21124 -1.32024 0
      vertex -1.96226 6.03921 0
      vertex -0.663756 6.31521 0
    endloop
  endfacet
  facet normal 0 0 -1
    outer loop
      vertex -6.21124 -1.32024 0
      vertex -0.663756 6.31521 0
      vertex 0.663756 6.31521 0
    endloop
  endfacet
  facet normal 0 0 -1
    outer loop
      vertex -6.21124 -1.32024 0
      vertex 0.663756 6.31521 0
      vertex 1.96226 6.03921 0
    endloop
  endfacet
  facet normal 0 0 -1
    outer loop
      vertex -0.313585 2.98357 0
      vertex 1.96226 6.03921 0
      vertex 3.175 5.49926 0
    endloop
  endfacet
  facet normal 0 0 -1
    outer loop
      vertex 0.927051 2.85317 0
      vertex 3.175 5.49926 0
      vertex 4.24898 4.71897 0
    endloop
  endfacet
  facet normal 0 0 -1
    outer loop
      vertex 1.5 2.59808 0
      vertex 4.24898 4.71897 0
      vertex 5.13726 3.73244 0
    endloop
  endfacet
  facet normal 0 0 -1
    outer loop
      vertex 2.42705 1.76336 0
      vertex 5.13726 3.73244 0
      vertex 5.80101 2.58278 0
    endloop
  endfacet
  facet normal 0 0 -1
    outer loop
      vertex 2.74064 1.22021 0
      vertex 5.80101 2.58278 0
      vertex 6.21124 1.32024 0
    endloop
  endfacet
  facet normal 0 0 -1
    outer loop
      vertex 3 0 0
      vertex 6.21124 1.32024 0
      vertex 6.35 0 0
    endloop
  endfacet
  facet normal 0 0 -1
    outer loop
      vertex 2.74064 -1.22021 0
      vertex 6.35 0 0
      vertex 6.21124 -1.32024 0
    endloop
  endfacet
  facet normal 0 0 -1
    outer loop
      vertex 2.42705 -1.76336 0
      vertex 6.21124 -1.32024 0
      vertex 5.80101 -2.58278 0
    endloop
  endfacet
  facet normal 0 0 -1
    outer loop
      vertex 1.5 -2.59808 0
      vertex 5.80101 -2.58278 0
      vertex 5.13726 -3.73244 0
    endloop
  endfacet
  facet normal 0 0 -1
    outer loop
      vertex 0.313585 -2.98357 0
      vertex 5.13726 -3.73244 0
      vertex 4.24898 -4.71897 0
    endloop
  endfacet
  facet normal 0 0 -1
    outer loop
      vertex -6.21124 -1.32024 0
      vertex 4.24898 -4.71897 0
      vertex 3.175 -5.49926 0
    endloop
  endfacet
  facet normal 0 0 -1
    outer loop
      vertex -6.21124 -1.32024 0
      vertex 3.175 -5.49926 0
      vertex 1.96226 -6.03921 0
    endloop
  endfacet
  facet normal 0 0 -1
    outer loop
      vertex -6.21124 -1.32024 0
      vertex 1.96226 -6.03921 0
      vertex 0.663756 -6.31521 0
    endloop
  endfacet
  facet normal 0 0 -1
    outer loop
      vertex -6.21124 -1.32024 0
      vertex 0.663756 -6.31521 0
      vertex -0.663756 -6.31521 0
    endloop
  endfacet
  facet normal 0 0 -1
    outer loop
      vertex -6.21124 -1.32024 0
      vertex -0.663756 -6.31521 0
      vertex -1.96226 -6.03921 0
    endloop
  endfacet
  facet normal 0 0 -1
    outer loop
      vertex -6.21124 -1.32024 0
      vertex -1.96226 -6.03921 0
      vertex -3.175 -5.49926 0
    endloop
  endfacet
  facet normal 0 0 -1
    outer loop
      vertex -6.21124 -1.32024 0
      vertex -3.175 -5.49926 0
      vertex -4.24898 -4.71897 0
    endloop
  endfacet
  facet normal 0 0 -1
    outer loop
      vertex -6.21124 -1.32024 0
      vertex -4.24898 -4.71897 0
      vertex -5.13726 -3.73244 0
    endloop
  endfacet
  facet normal 0 0 -1
    outer loop
      vertex -6.21124 -1.32024 0
      vertex -5.13726 -3.73244 0
      vertex -5.80101 -2.58278 0
    endloop
  endfacet
  facet normal 0 0 -1
    outer loop
      vertex -2.93444 -0.623735 0
      vertex -6.21124 -1.32024 0
      vertex -3 0 0
    endloop
  endfacet
  facet normal 0 0 -1
    outer loop
      vertex -2.74064 -1.22021 0
      vertex -6.21124 -1.32024 0
      vertex -2.93444 -0.623735 0
    endloop
  endfacet
  facet normal 0 0 -1
    outer loop
      vertex -2.42705 -1.76336 0
      vertex -6.21124 -1.32024 0
      vertex -2.74064 -1.22021 0
    endloop
  endfacet
  facet normal 0 0 -1
    outer loop
      vertex -2.00739 -2.22943 0
      vertex -6.21124 -1.32024 0
      vertex -2.42705 -1.76336 0
    endloop
  endfacet
  facet normal 0 0 -1
    outer loop
      vertex -0.313585 -2.98357 0
      vertex 4.24898 -4.71897 0
      vertex -0.927051 -2.85317 0
    endloop
  endfacet
  facet normal 0 0 -1
    outer loop
      vertex -6.21124 -1.32024 0
      vertex -2.00739 -2.22943 0
      vertex -1.5 -2.59808 0
    endloop
  endfacet
  facet normal 0 0 -1
    outer loop
      vertex -6.21124 -1.32024 0
      vertex -1.5 -2.59808 0
      vertex -0.927051 -2.85317 0
    endloop
  endfacet
  facet normal 0 0 -1
    outer loop
      vertex -6.21124 -1.32024 0
      vertex -0.927051 -2.85317 0
      vertex 4.24898 -4.71897 0
    endloop
  endfacet
  facet normal 0 0 -1
    outer loop
      vertex 0.313585 -2.98357 0
      vertex 4.24898 -4.71897 0
      vertex -0.313585 -2.98357 0
    endloop
  endfacet
  facet normal 0 0 -1
    outer loop
      vertex 0.927051 -2.85317 0
      vertex 5.13726 -3.73244 0
      vertex 0.313585 -2.98357 0
    endloop
  endfacet
  facet normal 0 0 -1
    outer loop
      vertex 1.5 -2.59808 0
      vertex 5.13726 -3.73244 0
      vertex 0.927051 -2.85317 0
    endloop
  endfacet
  facet normal 0 0 -1
    outer loop
      vertex 2.00739 -2.22943 0
      vertex 5.80101 -2.58278 0
      vertex 1.5 -2.59808 0
    endloop
  endfacet
  facet normal 0 0 -1
    outer loop
      vertex 2.42705 -1.76336 0
      vertex 5.80101 -2.58278 0
      vertex 2.00739 -2.22943 0
    endloop
  endfacet
  facet normal 0 0 -1
    outer loop
      vertex 2.93444 -0.623735 0
      vertex 6.35 0 0
      vertex 2.74064 -1.22021 0
    endloop
  endfacet
  facet normal 0 0 -1
    outer loop
      vertex 3 0 0
      vertex 6.35 0 0
      vertex 2.93444 -0.623735 0
    endloop
  endfacet
  facet normal 0 0 -1
    outer loop
      vertex 2.93444 0.623735 0
      vertex 6.21124 1.32024 0
      vertex 3 0 0
    endloop
  endfacet
  facet normal 0 0 -1
    outer loop
      vertex 2.74064 -1.22021 0
      vertex 6.21124 -1.32024 0
      vertex 2.42705 -1.76336 0
    endloop
  endfacet
  facet normal 0 0 -1
    outer loop
      vertex 2.42705 1.76336 0
      vertex 5.80101 2.58278 0
      vertex 2.74064 1.22021 0
    endloop
  endfacet
  facet normal 0 0 -1
    outer loop
      vertex 2.00739 2.22943 0
      vertex 5.13726 3.73244 0
      vertex 2.42705 1.76336 0
    endloop
  endfacet
  facet normal 0 0 -1
    outer loop
      vertex 1.5 2.59808 0
      vertex 5.13726 3.73244 0
      vertex 2.00739 2.22943 0
    endloop
  endfacet
  facet normal 0 0 -1
    outer loop
      vertex 0.313585 2.98357 0
      vertex 3.175 5.49926 0
      vertex 0.927051 2.85317 0
    endloop
  endfacet
  facet normal 0 0 -1
    outer loop
      vertex 2.74064 1.22021 0
      vertex 6.21124 1.32024 0
      vertex 2.93444 0.623735 0
    endloop
  endfacet
  facet normal 0 0 -1
    outer loop
      vertex -0.927051 2.85317 0
      vertex 1.96226 6.03921 0
      vertex -0.313585 2.98357 0
    endloop
  endfacet
  facet normal 0 0 -1
    outer loop
      vertex -2.42705 1.76336 0
      vertex -6.21124 -1.32024 0
      vertex -2.00739 2.22943 0
    endloop
  endfacet
  facet normal 0 0 -1
    outer loop
      vertex -1.5 2.59808 0
      vertex 1.96226 6.03921 0
      vertex -0.927051 2.85317 0
    endloop
  endfacet
  facet normal 0 0 -1
    outer loop
      vertex -2.00739 2.22943 0
      vertex 1.96226 6.03921 0
      vertex -1.5 2.59808 0
    endloop
  endfacet
  facet normal 0 0 -1
    outer loop
      vertex -6.21124 -1.32024 0
      vertex 1.96226 6.03921 0
      vertex -2.00739 2.22943 0
    endloop
  endfacet
  facet normal 0 0 -1
    outer loop
      vertex -2.74064 1.22021 0
      vertex -6.21124 -1.32024 0
      vertex -2.42705 1.76336 0
    endloop
  endfacet
  facet normal 0 0 -1
    outer loop
      vertex -2.93444 0.623735 0
      vertex -6.21124 -1.32024 0
      vertex -2.74064 1.22021 0
    endloop
  endfacet
  facet normal 0 0 -1
    outer loop
      vertex -3 0 0
      vertex -6.21124 -1.32024 0
      vertex -2.93444 0.623735 0
    endloop
  endfacet
  facet normal 0 0 -1
    outer loop
      vertex -0.313585 2.98357 0
      vertex 3.175 5.49926 0
      vertex 0.313585 2.98357 0
    endloop
  endfacet
  facet normal 0 0 -1
    outer loop
      vertex 0.927051 2.85317 0
      vertex 4.24898 4.71897 0
      vertex 1.5 2.59808 0
    endloop
  endfacet
  facet normal -0.994522 0.104529 0
    outer loop
      vertex -6.35 0 0
      vertex -6.35 0 12.7
      vertex -6.21124 1.32024 0
    endloop
  endfacet
  facet normal -0.994522 0.104529 0
    outer loop
      vertex -6.21124 1.32024 0
      vertex -6.35 0 12.7
      vertex -6.21124 1.32024 12.7
    endloop
  endfacet
  facet normal -0.994522 -0.104529 0
    outer loop
      vertex -6.35 0 0
      vertex -6.21124 -1.32024 0
      vertex -6.35 0 12.7
    endloop
  endfacet
  facet normal -0.994522 -0.104529 0
    outer loop
      vertex -6.35 0 12.7
      vertex -6.21124 -1.32024 0
      vertex -6.21124 -1.32024 12.7
    endloop
  endfacet
  facet normal -0.951057 -0.309016 0
    outer loop
      vertex -6.21124 -1.32024 0
      vertex -5.80101 -2.58278 0
      vertex -6.21124 -1.32024 12.7
    endloop
  endfacet
  facet normal -0.951057 -0.309016 0
    outer loop
      vertex -6.21124 -1.32024 12.7
      vertex -5.80101 -2.58278 0
      vertex -5.80101 -2.58278 12.7
    endloop
  endfacet
  facet normal -0.866025 -0.5 0
    outer loop
      vertex -5.80101 -2.58278 0
      vertex -5.13726 -3.73244 0
      vertex -5.80101 -2.58278 12.7
    endloop
  endfacet
  facet normal -0.866025 -0.5 0
    outer loop
      vertex -5.80101 -2.58278 12.7
      vertex -5.13726 -3.73244 0
      vertex -5.13726 -3.73244 12.7
    endloop
  endfacet
  facet normal -0.743145 -0.669131 0
    outer loop
      vertex -5.13726 -3.73244 0
      vertex -4.24898 -4.71897 0
      vertex -5.13726 -3.73244 12.7
    endloop
  endfacet
  facet normal -0.743145 -0.669131 0
    outer loop
      vertex -5.13726 -3.73244 12.7
      vertex -4.24898 -4.71897 0
      vertex -4.24898 -4.71897 12.7
    endloop
  endfacet
  facet normal -0.587785 -0.809017 0
    outer loop
      vertex -4.24898 -4.71897 12.7
      vertex -4.24898 -4.71897 0
      vertex -3.175 -5.49926 0
    endloop
  endfacet
  facet normal -0.587785 -0.809017 0
    outer loop
      vertex -3.175 -5.49926 12.7
      vertex -4.24898 -4.71897 12.7
      vertex -3.175 -5.49926 0
    endloop
  endfacet
  facet normal -0.406737 -0.913545 0
    outer loop
      vertex -3.175 -5.49926 12.7
      vertex -3.175 -5.49926 0
      vertex -1.96226 -6.03921 0
    endloop
  endfacet
  facet normal -0.406737 -0.913545 0
    outer loop
      vertex -1.96226 -6.03921 12.7
      vertex -3.175 -5.49926 12.7
      vertex -1.96226 -6.03921 0
    endloop
  endfacet
  facet normal -0.207912 -0.978148 0
    outer loop
      vertex -1.96226 -6.03921 12.7
      vertex -1.96226 -6.03921 0
      vertex -0.663756 -6.31521 0
    endloop
  endfacet
  facet normal -0.207912 -0.978148 0
    outer loop
      vertex -0.663756 -6.31521 12.7
      vertex -1.96226 -6.03921 12.7
      vertex -0.663756 -6.31521 0
    endloop
  endfacet
  facet normal 0 -1 0
    outer loop
      vertex -0.663756 -6.31521 12.7
      vertex -0.663756 -6.31521 0
      vertex 0.663756 -6.31521 0
    endloop
  endfacet
  facet normal 0 -1 0
    outer loop
      vertex 0.663756 -6.31521 12.7
      vertex -0.663756 -6.31521 12.7
      vertex 0.663756 -6.31521 0
    endloop
  endfacet
  facet normal 0.207912 -0.978148 0
    outer loop
      vertex 0.663756 -6.31521 12.7
      vertex 0.663756 -6.31521 0
      vertex 1.96226 -6.03921 0
    endloop
  endfacet
  facet normal 0.207912 -0.978148 0
    outer loop
      vertex 1.96226 -6.03921 12.7
      vertex 0.663756 -6.31521 12.7
      vertex 1.96226 -6.03921 0
    endloop
  endfacet
  facet normal 0.406737 -0.913545 0
    outer loop
      vertex 1.96226 -6.03921 12.7
      vertex 1.96226 -6.03921 0
      vertex 3.175 -5.49926 0
    endloop
  endfacet
  facet normal 0.406737 -0.913545 0
    outer loop
      vertex 3.175 -5.49926 12.7
      vertex 1.96226 -6.03921 12.7
      vertex 3.175 -5.49926 0
    endloop
  endfacet
  facet normal 0.587785 -0.809017 0
    outer loop
      vertex 3.175 -5.49926 12.7
      vertex 3.175 -5.49926 0
      vertex 4.24898 -4.71897 0
    endloop
  endfacet
  facet normal 0.587785 -0.809017 0
    outer loop
      vertex 4.24898 -4.71897 12.7
      vertex 3.175 -5.49926 12.7
      vertex 4.24898 -4.71897 0
    endloop
  endfacet
  facet normal 0.743145 -0.669131 0
    outer loop
      vertex 4.24898 -4.71897 12.7
      vertex 4.24898 -4.71897 0
      vertex 5.13726 -3.73244 0
    endloop
  endfacet
  facet normal 0.743145 -0.669131 0
    outer loop
      vertex 5.13726 -3.73244 12.7
      vertex 4.24898 -4.71897 12.7
      vertex 5.13726 -3.73244 0
    endloop
  endfacet
  facet normal 0.866025 -0.5 0
    outer loop
      vertex 5.13726 -3.73244 12.7
      vertex 5.13726 -3.73244 0
      vertex 5.80101 -2.58278 0
    endloop
  endfacet
  facet normal 0.866025 -0.5 0
    outer loop
      vertex 5.80101 -2.58278 12.7
      vertex 5.13726 -3.73244 12.7
      vertex 5.80101 -2.58278 0
    endloop
  endfacet
  facet normal 0.951057 -0.309016 0
    outer loop
      vertex 5.80101 -2.58278 12.7
      vertex 5.80101 -2.58278 0
      vertex 6.21124 -1.32024 0
    endloop
  endfacet
  facet normal 0.951057 -0.309016 0
    outer loop
      vertex 6.21124 -1.32024 12.7
      vertex 5.80101 -2.58278 12.7
      vertex 6.21124 -1.32024 0
    endloop
  endfacet
  facet normal 0.994522 -0.104529 0
    outer loop
      vertex 6.21124 -1.32024 12.7
      vertex 6.21124 -1.32024 0
      vertex 6.35 0 0
    endloop
  endfacet
  facet normal 0.994522 -0.104529 0
    outer loop
      vertex 6.35 0 12.7
      vertex 6.21124 -1.32024 12.7
      vertex 6.35 0 0
    endloop
  endfacet
  facet normal 0.994522 0.104529 0
    outer loop
      vertex 6.35 0 0
      vertex 6.21124 1.32024 0
      vertex 6.21124 1.32024 12.7
    endloop
  endfacet
  facet normal 0.994522 0.104529 0
    outer loop
      vertex 6.35 0 12.7
      vertex 6.35 0 0
      vertex 6.21124 1.32024 12.7
    endloop
  endfacet
  facet normal 0.951057 0.309016 0
    outer loop
      vertex 6.21124 1.32024 0
      vertex 5.80101 2.58278 0
      vertex 5.80101 2.58278 12.7
    endloop
  endfacet
  facet normal 0.951057 0.309016 0
    outer loop
      vertex 6.21124 1.32024 12.7
      vertex 6.21124 1.32024 0
      vertex 5.80101 2.58278 12.7
    endloop
  endfacet
  facet normal 0.866025 0.5 0
    outer loop
      vertex 5.80101 2.58278 0
      vertex 5.13726 3.73244 0
      vertex 5.13726 3.73244 12.7
    endloop
  endfacet
  facet normal 0.866025 0.5 0
    outer loop
      vertex 5.80101 2.58278 12.7
      vertex 5.80101 2.58278 0
      vertex 5.13726 3.73244 12.7
    endloop
  endfacet
  facet normal 0.743145 0.669131 0
    outer loop
      vertex 5.13726 3.73244 0
      vertex 4.24898 4.71897 0
      vertex 4.24898 4.71897 12.7
    endloop
  endfacet
  facet normal 0.743145 0.669131 0
    outer loop
      vertex 5.13726 3.73244 12.7
      vertex 5.13726 3.73244 0
      vertex 4.24898 4.71897 12.7
    endloop
  endfacet
  facet normal 0.587785 0.809017 0
    outer loop
      vertex 3.175 5.49926 0
      vertex 3.175 5.49926 12.7
      vertex 4.24898 4.71897 0
    endloop
  endfacet
  facet normal 0.587785 0.809017 0
    outer loop
      vertex 4.24898 4.71897 0
      vertex 3.175 5.49926 12.7
      vertex 4.24898 4.71897 12.7
    endloop
  endfacet
  facet normal 0.406737 0.913545 0
    outer loop
      vertex 1.96226 6.03921 0
      vertex 1.96226 6.03921 12.7
      vertex 3.175 5.49926 0
    endloop
  endfacet
  facet normal 0.406737 0.913545 0
    outer loop
      vertex 3.175 5.49926 0
      vertex 1.96226 6.03921 12.7
      vertex 3.175 5.49926 12.7
    endloop
  endfacet
  facet normal 0.207912 0.978148 0
    outer loop
      vertex 0.663756 6.31521 0
      vertex 0.663756 6.31521 12.7
      vertex 1.96226 6.03921 0
    endloop
  endfacet
  facet normal 0.207912 0.978148 0
    outer loop
      vertex 1.96226 6.03921 0
      vertex 0.663756 6.31521 12.7
      vertex 1.96226 6.03921 12.7
    endloop
  endfacet
  facet normal 0 1 0
    outer loop
      vertex -0.663756 6.31521 0
      vertex -0.663756 6.31521 12.7
      vertex 0.663756 6.31521 0
    endloop
  endfacet
  facet normal 0 1 0
    outer loop
      vertex 0.663756 6.31521 0
      vertex -0.663756 6.31521 12.7
      vertex 0.663756 6.31521 12.7
    endloop
  endfacet
  facet normal -0.207912 0.978148 0
    outer loop
      vertex -1.96226 6.03921 0
      vertex -1.96226 6.03921 12.7
      vertex -0.663756 6.31521 0
    endloop
  endfacet
  facet normal -0.207912 0.978148 0
    outer loop
      vertex -0.663756 6.31521 0
      vertex -1.96226 6.03921 12.7
      vertex -0.663756 6.31521 12.7
    endloop
  endfacet
  facet normal -0.406737 0.913545 0
    outer loop
      vertex -3.175 5.49926 0
      vertex -3.175 5.49926 12.7
      vertex -1.96226 6.03921 0
    endloop
  endfacet
  facet normal -0.406737 0.913545 0
    outer loop
      vertex -1.96226 6.03921 0
      vertex -3.175 5.49926 12.7
      vertex -1.96226 6.03921 12.7
    endloop
  endfacet
  facet normal -0.587785 0.809017 0
    outer loop
      vertex -4.24898 4.71897 0
      vertex -4.24898 4.71897 12.7
      vertex -3.175 5.49926 0
    endloop
  endfacet
  facet normal -0.587785 0.809017 0
    outer loop
      vertex -3.175 5.49926 0
      vertex -4.24898 4.71897 12.7
      vertex -3.175 5.49926 12.7
    endloop
  endfacet
  facet normal -0.743145 0.669131 0
    outer loop
      vertex -5.13726 3.73244 0
      vertex -5.13726 3.73244 12.7
      vertex -4.24898 4.71897 0
    endloop
  endfacet
  facet normal -0.743145 0.669131 0
    outer loop
      vertex -4.24898 4.71897 0
      vertex -5.13726 3.73244 12.7
      vertex -4.24898 4.71897 12.7
    endloop
  endfacet
  facet normal -0.866025 0.5 0
    outer loop
      vertex -5.80101 2.58278 0
      vertex -5.80101 2.58278 12.7
      vertex -5.13726 3.73244 0
    endloop
  endfacet
  facet normal -0.866025 0.5 0
    outer loop
      vertex -5.13726 3.73244 0
      vertex -5.80101 2.58278 12.7
      vertex -5.13726 3.73244 12.7
    endloop
  endfacet
  facet normal -0.951057 0.309016 0
    outer loop
      vertex -6.21124 1.32024 0
      vertex -6.21124 1.32024 12.7
      vertex -5.80101 2.58278 0
    endloop
  endfacet
  facet normal -0.951057 0.309016 0
    outer loop
      vertex -5.80101 2.58278 0
      vertex -6.21124 1.32024 12.7
      vertex -5.80101 2.58278 12.7
    endloop
  endfacet
  facet normal 0.994522 -0.104528 0
    outer loop
      vertex -2.93444 0.623735 0
      vertex -2.93444 0.623735 9.525
      vertex -3 0 9.525
    endloop
  endfacet
  facet normal 0.994522 -0.104528 0
    outer loop
      vertex -3 0 0
      vertex -2.93444 0.623735 0
      vertex -3 0 9.525
    endloop
  endfacet
  facet normal 0.994522 0.104528 0
    outer loop
      vertex -3 0 9.525
      vertex -2.93444 -0.623735 9.525
      vertex -2.93444 -0.623735 0
    endloop
  endfacet
  facet normal 0.994522 0.104528 0
    outer loop
      vertex -3 0 0
      vertex -3 0 9.525
      vertex -2.93444 -0.623735 0
    endloop
  endfacet
  facet normal 0.951056 -0.309018 0
    outer loop
      vertex -2.74064 1.22021 0
      vertex -2.74064 1.22021 9.525
      vertex -2.93444 0.623735 9.525
    endloop
  endfacet
  facet normal 0.951056 -0.309018 0
    outer loop
      vertex -2.93444 0.623735 0
      vertex -2.74064 1.22021 0
      vertex -2.93444 0.623735 9.525
    endloop
  endfacet
  facet normal 0.866026 -0.499999 0
    outer loop
      vertex -2.42705 1.76336 0
      vertex -2.42705 1.76336 9.525
      vertex -2.74064 1.22021 9.525
    endloop
  endfacet
  facet normal 0.866026 -0.499999 0
    outer loop
      vertex -2.74064 1.22021 0
      vertex -2.42705 1.76336 0
      vertex -2.74064 1.22021 9.525
    endloop
  endfacet
  facet normal 0.743144 -0.669131 0
    outer loop
      vertex -2.00739 2.22943 0
      vertex -2.00739 2.22943 9.525
      vertex -2.42705 1.76336 9.525
    endloop
  endfacet
  facet normal 0.743144 -0.669131 0
    outer loop
      vertex -2.42705 1.76336 0
      vertex -2.00739 2.22943 0
      vertex -2.42705 1.76336 9.525
    endloop
  endfacet
  facet normal 0.587785 -0.809017 0
    outer loop
      vertex -1.5 2.59808 0
      vertex -1.5 2.59808 9.525
      vertex -2.00739 2.22943 9.525
    endloop
  endfacet
  facet normal 0.587785 -0.809017 0
    outer loop
      vertex -2.00739 2.22943 0
      vertex -1.5 2.59808 0
      vertex -2.00739 2.22943 9.525
    endloop
  endfacet
  facet normal 0.406738 -0.913545 0
    outer loop
      vertex -0.927051 2.85317 0
      vertex -0.927051 2.85317 9.525
      vertex -1.5 2.59808 9.525
    endloop
  endfacet
  facet normal 0.406738 -0.913545 0
    outer loop
      vertex -1.5 2.59808 0
      vertex -0.927051 2.85317 0
      vertex -1.5 2.59808 9.525
    endloop
  endfacet
  facet normal 0.207911 -0.978148 0
    outer loop
      vertex -0.313585 2.98357 0
      vertex -0.313585 2.98357 9.525
      vertex -0.927051 2.85317 9.525
    endloop
  endfacet
  facet normal 0.207911 -0.978148 0
    outer loop
      vertex -0.927051 2.85317 0
      vertex -0.313585 2.98357 0
      vertex -0.927051 2.85317 9.525
    endloop
  endfacet
  facet normal 0 -1 0
    outer loop
      vertex 0.313585 2.98357 0
      vertex 0.313585 2.98357 9.525
      vertex -0.313585 2.98357 9.525
    endloop
  endfacet
  facet normal 0 -1 0
    outer loop
      vertex -0.313585 2.98357 0
      vertex 0.313585 2.98357 0
      vertex -0.313585 2.98357 9.525
    endloop
  endfacet
  facet normal -0.207911 -0.978148 0
    outer loop
      vertex 0.927051 2.85317 0
      vertex 0.927051 2.85317 9.525
      vertex 0.313585 2.98357 9.525
    endloop
  endfacet
  facet normal -0.207911 -0.978148 0
    outer loop
      vertex 0.313585 2.98357 0
      vertex 0.927051 2.85317 0
      vertex 0.313585 2.98357 9.525
    endloop
  endfacet
  facet normal -0.406738 -0.913545 0
    outer loop
      vertex 1.5 2.59808 0
      vertex 1.5 2.59808 9.525
      vertex 0.927051 2.85317 9.525
    endloop
  endfacet
  facet normal -0.406738 -0.913545 0
    outer loop
      vertex 0.927051 2.85317 0
      vertex 1.5 2.59808 0
      vertex 0.927051 2.85317 9.525
    endloop
  endfacet
  facet normal -0.587785 -0.809017 0
    outer loop
      vertex 2.00739 2.22943 0
      vertex 2.00739 2.22943 9.525
      vertex 1.5 2.59808 9.525
    endloop
  endfacet
  facet normal -0.587785 -0.809017 0
    outer loop
      vertex 1.5 2.59808 0
      vertex 2.00739 2.22943 0
      vertex 1.5 2.59808 9.525
    endloop
  endfacet
  facet normal -0.743144 -0.669131 0
    outer loop
      vertex 2.42705 1.76336 9.525
      vertex 2.00739 2.22943 9.525
      vertex 2.42705 1.76336 0
    endloop
  endfacet
  facet normal -0.743144 -0.669131 0
    outer loop
      vertex 2.42705 1.76336 0
      vertex 2.00739 2.22943 9.525
      vertex 2.00739 2.22943 0
    endloop
  endfacet
  facet normal -0.866026 -0.499999 0
    outer loop
      vertex 2.74064 1.22021 9.525
      vertex 2.42705 1.76336 9.525
      vertex 2.74064 1.22021 0
    endloop
  endfacet
  facet normal -0.866026 -0.499999 0
    outer loop
      vertex 2.74064 1.22021 0
      vertex 2.42705 1.76336 9.525
      vertex 2.42705 1.76336 0
    endloop
  endfacet
  facet normal -0.951056 -0.309018 0
    outer loop
      vertex 2.93444 0.623735 9.525
      vertex 2.74064 1.22021 9.525
      vertex 2.93444 0.623735 0
    endloop
  endfacet
  facet normal -0.951056 -0.309018 0
    outer loop
      vertex 2.93444 0.623735 0
      vertex 2.74064 1.22021 9.525
      vertex 2.74064 1.22021 0
    endloop
  endfacet
  facet normal -0.994522 -0.104528 0
    outer loop
      vertex 3 0 9.525
      vertex 2.93444 0.623735 9.525
      vertex 3 0 0
    endloop
  endfacet
  facet normal -0.994522 -0.104528 0
    outer loop
      vertex 3 0 0
      vertex 2.93444 0.623735 9.525
      vertex 2.93444 0.623735 0
    endloop
  endfacet
  facet normal -0.994522 0.104528 0
    outer loop
      vertex 3 0 9.525
      vertex 3 0 0
      vertex 2.93444 -0.623735 9.525
    endloop
  endfacet
  facet normal -0.994522 0.104528 0
    outer loop
      vertex 2.93444 -0.623735 9.525
      vertex 3 0 0
      vertex 2.93444 -0.623735 0
    endloop
  endfacet
  facet normal -0.951056 0.309018 0
    outer loop
      vertex 2.93444 -0.623735 9.525
      vertex 2.93444 -0.623735 0
      vertex 2.74064 -1.22021 9.525
    endloop
  endfacet
  facet normal -0.951056 0.309018 0
    outer loop
      vertex 2.74064 -1.22021 9.525
      vertex 2.93444 -0.623735 0
      vertex 2.74064 -1.22021 0
    endloop
  endfacet
  facet normal -0.866026 0.499999 0
    outer loop
      vertex 2.74064 -1.22021 9.525
      vertex 2.74064 -1.22021 0
      vertex 2.42705 -1.76336 9.525
    endloop
  endfacet
  facet normal -0.866026 0.499999 0
    outer loop
      vertex 2.42705 -1.76336 9.525
      vertex 2.74064 -1.22021 0
      vertex 2.42705 -1.76336 0
    endloop
  endfacet
  facet normal -0.743144 0.669131 0
    outer loop
      vertex 2.42705 -1.76336 9.525
      vertex 2.42705 -1.76336 0
      vertex 2.00739 -2.22943 9.525
    endloop
  endfacet
  facet normal -0.743144 0.669131 0
    outer loop
      vertex 2.00739 -2.22943 9.525
      vertex 2.42705 -1.76336 0
      vertex 2.00739 -2.22943 0
    endloop
  endfacet
  facet normal -0.587785 0.809017 0
    outer loop
      vertex 2.00739 -2.22943 9.525
      vertex 2.00739 -2.22943 0
      vertex 1.5 -2.59808 9.525
    endloop
  endfacet
  facet normal -0.587785 0.809017 0
    outer loop
      vertex 1.5 -2.59808 9.525
      vertex 2.00739 -2.22943 0
      vertex 1.5 -2.59808 0
    endloop
  endfacet
  facet normal -0.406738 0.913545 0
    outer loop
      vertex 1.5 -2.59808 9.525
      vertex 1.5 -2.59808 0
      vertex 0.927051 -2.85317 9.525
    endloop
  endfacet
  facet normal -0.406738 0.913545 0
    outer loop
      vertex 0.927051 -2.85317 9.525
      vertex 1.5 -2.59808 0
      vertex 0.927051 -2.85317 0
    endloop
  endfacet
  facet normal -0.207911 0.978148 0
    outer loop
      vertex 0.927051 -2.85317 9.525
      vertex 0.927051 -2.85317 0
      vertex 0.313585 -2.98357 9.525
    endloop
  endfacet
  facet normal -0.207911 0.978148 0
    outer loop
      vertex 0.313585 -2.98357 9.525
      vertex 0.927051 -2.85317 0
      vertex 0.313585 -2.98357 0
    endloop
  endfacet
  facet normal 0 1 0
    outer loop
      vertex 0.313585 -2.98357 9.525
      vertex 0.313585 -2.98357 0
      vertex -0.313585 -2.98357 9.525
    endloop
  endfacet
  facet normal 0 1 0
    outer loop
      vertex -0.313585 -2.98357 9.525
      vertex 0.313585 -2.98357 0
      vertex -0.313585 -2.98357 0
    endloop
  endfacet
  facet normal 0.207911 0.978148 0
    outer loop
      vertex -0.313585 -2.98357 9.525
      vertex -0.313585 -2.98357 0
      vertex -0.927051 -2.85317 9.525
    endloop
  endfacet
  facet normal 0.207911 0.978148 0
    outer loop
      vertex -0.927051 -2.85317 9.525
      vertex -0.313585 -2.98357 0
      vertex -0.927051 -2.85317 0
    endloop
  endfacet
  facet normal 0.406738 0.913545 0
    outer loop
      vertex -0.927051 -2.85317 9.525
      vertex -0.927051 -2.85317 0
      vertex -1.5 -2.59808 9.525
    endloop
  endfacet
  facet normal 0.406738 0.913545 0
    outer loop
      vertex -1.5 -2.59808 9.525
      vertex -0.927051 -2.85317 0
      vertex -1.5 -2.59808 0
    endloop
  endfacet
  facet normal 0.587785 0.809017 0
    outer loop
      vertex -1.5 -2.59808 9.525
      vertex -1.5 -2.59808 0
      vertex -2.00739 -2.22943 9.525
    endloop
  endfacet
  facet normal 0.587785 0.809017 0
    outer loop
      vertex -2.00739 -2.22943 9.525
      vertex -1.5 -2.59808 0
      vertex -2.00739 -2.22943 0
    endloop
  endfacet
  facet normal 0.743144 0.669131 0
    outer loop
      vertex -2.42705 -1.76336 9.525
      vertex -2.00739 -2.22943 9.525
      vertex -2.00739 -2.22943 0
    endloop
  endfacet
  facet normal 0.743144 0.669131 0
    outer loop
      vertex -2.42705 -1.76336 0
      vertex -2.42705 -1.76336 9.525
      vertex -2.00739 -2.22943 0
    endloop
  endfacet
  facet normal 0.866026 0.499999 0
    outer loop
      vertex -2.74064 -1.22021 9.525
      vertex -2.42705 -1.76336 9.525
      vertex -2.42705 -1.76336 0
    endloop
  endfacet
  facet normal 0.866026 0.499999 0
    outer loop
      vertex -2.74064 -1.22021 0
      vertex -2.74064 -1.22021 9.525
      vertex -2.42705 -1.76336 0
    endloop
  endfacet
  facet normal 0.951056 0.309018 0
    outer loop
      vertex -2.93444 -0.623735 9.525
      vertex -2.74064 -1.22021 9.525
      vertex -2.74064 -1.22021 0
    endloop
  endfacet
  facet normal 0.951056 0.309018 0
    outer loop
      vertex -2.93444 -0.623735 0
      vertex -2.93444 -0.623735 9.525
      vertex -2.74064 -1.22021 0
    endloop
  endfacet
  facet normal 0 0 1
    outer loop
      vertex -6.21124 1.32024 12.7
      vertex -6.35 0 12.7
      vertex -6.21124 -1.32024 12.7
    endloop
  endfacet
  facet normal 0 0 1
    outer loop
      vertex -5.13726 -3.73244 12.7
      vertex -6.21124 1.32024 12.7
      vertex -5.80101 -2.58278 12.7
    endloop
  endfacet
  facet normal 0 0 1
    outer loop
      vertex -5.80101 -2.58278 12.7
      vertex -6.21124 1.32024 12.7
      vertex -6.21124 -1.32024 12.7
    endloop
  endfacet
  facet normal 0 0 1
    outer loop
      vertex -4.24898 -4.71897 12.7
      vertex -6.21124 1.32024 12.7
      vertex -5.13726 -3.73244 12.7
    endloop
  endfacet
  facet normal 0 0 1
    outer loop
      vertex -3.175 -5.49926 12.7
      vertex -6.21124 1.32024 12.7
      vertex -4.24898 -4.71897 12.7
    endloop
  endfacet
  facet normal 0 0 1
    outer loop
      vertex -2.54 -5.715 12.7
      vertex -6.21124 1.32024 12.7
      vertex -3.175 -5.49926 12.7
    endloop
  endfacet
  facet normal 0 0 1
    outer loop
      vertex 2.54 -2.54 12.7
      vertex 3.175 -5.49926 12.7
      vertex 4.24898 -4.71897 12.7
    endloop
  endfacet
  facet normal 0 0 1
    outer loop
      vertex 2.54 -2.54 12.7
      vertex 2.54 -5.715 12.7
      vertex 3.175 -5.49926 12.7
    endloop
  endfacet
  facet normal 0 0 1
    outer loop
      vertex -2.54 2.54 12.7
      vertex -2.54 5.715 12.7
      vertex -6.21124 1.32024 12.7
    endloop
  endfacet
  facet normal 0 0 1
    outer loop
      vertex 2.54 2.54 12.7
      vertex -2.54 2.54 12.7
      vertex -6.21124 1.32024 12.7
    endloop
  endfacet
  facet normal 0 0 1
    outer loop
      vertex 6.21124 -1.32024 12.7
      vertex -6.21124 1.32024 12.7
      vertex 5.80101 -2.58278 12.7
    endloop
  endfacet
  facet normal 0 0 1
    outer loop
      vertex 6.35 0 12.7
      vertex -6.21124 1.32024 12.7
      vertex 6.21124 -1.32024 12.7
    endloop
  endfacet
  facet normal 0 0 1
    outer loop
      vertex 6.21124 1.32024 12.7
      vertex -6.21124 1.32024 12.7
      vertex 6.35 0 12.7
    endloop
  endfacet
  facet normal 0 0 1
    outer loop
      vertex 5.80101 2.58278 12.7
      vertex -6.21124 1.32024 12.7
      vertex 6.21124 1.32024 12.7
    endloop
  endfacet
  facet normal 0 0 1
    outer loop
      vertex 2.54 2.54 12.7
      vertex -6.21124 1.32024 12.7
      vertex 5.80101 2.58278 12.7
    endloop
  endfacet
  facet normal 0 0 1
    outer loop
      vertex -2.54 5.715 12.7
      vertex 0.663756 6.31521 12.7
      vertex -0.663756 6.31521 12.7
    endloop
  endfacet
  facet normal 0 0 1
    outer loop
      vertex -2.54 5.715 12.7
      vertex -0.663756 6.31521 12.7
      vertex -1.96226 6.03921 12.7
    endloop
  endfacet
  facet normal 0 0 1
    outer loop
      vertex 2.54 5.715 12.7
      vertex 5.13726 3.73244 12.7
      vertex 4.24898 4.71897 12.7
    endloop
  endfacet
  facet normal 0 0 1
    outer loop
      vertex 2.54 5.715 12.7
      vertex 4.24898 4.71897 12.7
      vertex 3.175 5.49926 12.7
    endloop
  endfacet
  facet normal 0 0 1
    outer loop
      vertex -4.24898 4.71897 12.7
      vertex -6.21124 1.32024 12.7
      vertex -3.175 5.49926 12.7
    endloop
  endfacet
  facet normal 0 0 1
    outer loop
      vertex -5.13726 3.73244 12.7
      vertex -6.21124 1.32024 12.7
      vertex -4.24898 4.71897 12.7
    endloop
  endfacet
  facet normal 0 0 1
    outer loop
      vertex -5.80101 2.58278 12.7
      vertex -6.21124 1.32024 12.7
      vertex -5.13726 3.73244 12.7
    endloop
  endfacet
  facet normal 0 0 1
    outer loop
      vertex -1.96226 -6.03921 12.7
      vertex -2.54 -5.715 12.7
      vertex -3.175 -5.49926 12.7
    endloop
  endfacet
  facet normal 0 0 1
    outer loop
      vertex 2.54 -2.54 12.7
      vertex 4.24898 -4.71897 12.7
      vertex 5.13726 -3.73244 12.7
    endloop
  endfacet
  facet normal 0 0 1
    outer loop
      vertex -2.54 -2.54 12.7
      vertex 2.54 -2.54 12.7
      vertex -6.21124 1.32024 12.7
    endloop
  endfacet
  facet normal 0 0 1
    outer loop
      vertex 5.80101 -2.58278 12.7
      vertex 2.54 -2.54 12.7
      vertex 5.13726 -3.73244 12.7
    endloop
  endfacet
  facet normal 0 0 1
    outer loop
      vertex 5.80101 -2.58278 12.7
      vertex -6.21124 1.32024 12.7
      vertex 2.54 -2.54 12.7
    endloop
  endfacet
  facet normal 0 0 1
    outer loop
      vertex 3.175 -5.49926 12.7
      vertex 2.54 -5.715 12.7
      vertex 1.96226 -6.03921 12.7
    endloop
  endfacet
  facet normal 0 0 1
    outer loop
      vertex -2.54 5.715 12.7
      vertex 2.54 5.715 12.7
      vertex 1.96226 6.03921 12.7
    endloop
  endfacet
  facet normal 0 0 1
    outer loop
      vertex -3.175 5.49926 12.7
      vertex -2.54 5.715 12.7
      vertex -1.96226 6.03921 12.7
    endloop
  endfacet
  facet normal 0 0 1
    outer loop
      vertex -3.175 5.49926 12.7
      vertex -6.21124 1.32024 12.7
      vertex -2.54 5.715 12.7
    endloop
  endfacet
  facet normal 0 0 1
    outer loop
      vertex 1.96226 6.03921 12.7
      vertex 2.54 5.715 12.7
      vertex 3.175 5.49926 12.7
    endloop
  endfacet
  facet normal 0 0 1
    outer loop
      vertex 2.54 5.715 12.7
      vertex 2.54 2.54 12.7
      vertex 5.13726 3.73244 12.7
    endloop
  endfacet
  facet normal 0 0 1
    outer loop
      vertex 5.13726 3.73244 12.7
      vertex 2.54 2.54 12.7
      vertex 5.80101 2.58278 12.7
    endloop
  endfacet
  facet normal 0 0 1
    outer loop
      vertex -2.54 5.715 12.7
      vertex 1.96226 6.03921 12.7
      vertex 0.663756 6.31521 12.7
    endloop
  endfacet
  facet normal 0 0 1
    outer loop
      vertex -2.54 -5.715 12.7
      vertex -2.54 -2.54 12.7
      vertex -6.21124 1.32024 12.7
    endloop
  endfacet
  facet normal 0 0 1
    outer loop
      vertex 2.54 -5.715 12.7
      vertex 0.663756 -6.31521 12.7
      vertex 1.96226 -6.03921 12.7
    endloop
  endfacet
  facet normal 0 0 1
    outer loop
      vertex 2.54 -5.715 12.7
      vertex -0.663756 -6.31521 12.7
      vertex 0.663756 -6.31521 12.7
    endloop
  endfacet
  facet normal 0 0 1
    outer loop
      vertex 2.54 -5.715 12.7
      vertex -1.96226 -6.03921 12.7
      vertex -0.663756 -6.31521 12.7
    endloop
  endfacet
  facet normal 0 0 1
    outer loop
      vertex 2.54 -5.715 12.7
      vertex -2.54 -5.715 12.7
      vertex -1.96226 -6.03921 12.7
    endloop
  endfacet
  facet normal 0 0 -1
    outer loop
      vertex -2.74064 1.22021 9.525
      vertex -2.42705 1.76336 9.525
      vertex -2.93444 0.623735 9.525
    endloop
  endfacet
  facet normal 0 0 -1
    outer loop
      vertex -2.93444 0.623735 9.525
      vertex -2.42705 1.76336 9.525
      vertex -2.00739 2.22943 9.525
    endloop
  endfacet
  facet normal 0 0 -1
    outer loop
      vertex -2.93444 0.623735 9.525
      vertex -2.00739 2.22943 9.525
      vertex -1.5 2.59808 9.525
    endloop
  endfacet
  facet normal 0 0 -1
    outer loop
      vertex -2.93444 0.623735 9.525
      vertex -1.5 2.59808 9.525
      vertex -0.927051 2.85317 9.525
    endloop
  endfacet
  facet normal 0 0 -1
    outer loop
      vertex -2.93444 0.623735 9.525
      vertex -0.927051 2.85317 9.525
      vertex -0.313585 2.98357 9.525
    endloop
  endfacet
  facet normal 0 0 -1
    outer loop
      vertex -2.93444 0.623735 9.525
      vertex -0.313585 2.98357 9.525
      vertex 0.313585 2.98357 9.525
    endloop
  endfacet
  facet normal 0 0 -1
    outer loop
      vertex -2.93444 0.623735 9.525
      vertex 0.313585 2.98357 9.525
      vertex 0.927051 2.85317 9.525
    endloop
  endfacet
  facet normal 0 0 -1
    outer loop
      vertex -2.93444 0.623735 9.525
      vertex 0.927051 2.85317 9.525
      vertex 1.5 2.59808 9.525
    endloop
  endfacet
  facet normal 0 0 -1
    outer loop
      vertex -2.93444 0.623735 9.525
      vertex 1.5 2.59808 9.525
      vertex 2.00739 2.22943 9.525
    endloop
  endfacet
  facet normal 0 0 -1
    outer loop
      vertex -2.93444 0.623735 9.525
      vertex 2.00739 2.22943 9.525
      vertex 2.42705 1.76336 9.525
    endloop
  endfacet
  facet normal 0 0 -1
    outer loop
      vertex -2.93444 0.623735 9.525
      vertex 2.42705 1.76336 9.525
      vertex 2.74064 1.22021 9.525
    endloop
  endfacet
  facet normal 0 0 -1
    outer loop
      vertex -2.93444 0.623735 9.525
      vertex 2.74064 1.22021 9.525
      vertex 2.93444 0.623735 9.525
    endloop
  endfacet
  facet normal 0 0 -1
    outer loop
      vertex -2.93444 0.623735 9.525
      vertex 2.93444 0.623735 9.525
      vertex 3 0 9.525
    endloop
  endfacet
  facet normal 0 0 -1
    outer loop
      vertex -2.93444 0.623735 9.525
      vertex 3 0 9.525
      vertex 2.93444 -0.623735 9.525
    endloop
  endfacet
  facet normal 0 0 -1
    outer loop
      vertex -2.93444 0.623735 9.525
      vertex 2.93444 -0.623735 9.525
      vertex 2.74064 -1.22021 9.525
    endloop
  endfacet
  facet normal 0 0 -1
    outer loop
      vertex -2.93444 0.623735 9.525
      vertex 2.74064 -1.22021 9.525
      vertex 2.42705 -1.76336 9.525
    endloop
  endfacet
  facet normal 0 0 -1
    outer loop
      vertex -2.93444 0.623735 9.525
      vertex 2.42705 -1.76336 9.525
      vertex 2.00739 -2.22943 9.525
    endloop
  endfacet
  facet normal 0 0 -1
    outer loop
      vertex -2.93444 0.623735 9.525
      vertex 2.00739 -2.22943 9.525
      vertex 1.5 -2.59808 9.525
    endloop
  endfacet
  facet normal 0 0 -1
    outer loop
      vertex -2.93444 0.623735 9.525
      vertex 1.5 -2.59808 9.525
      vertex 0.927051 -2.85317 9.525
    endloop
  endfacet
  facet normal 0 0 -1
    outer loop
      vertex -2.93444 0.623735 9.525
      vertex 0.927051 -2.85317 9.525
      vertex 0.313585 -2.98357 9.525
    endloop
  endfacet
  facet normal 0 0 -1
    outer loop
      vertex -2.93444 0.623735 9.525
      vertex 0.313585 -2.98357 9.525
      vertex -0.313585 -2.98357 9.525
    endloop
  endfacet
  facet normal 0 0 -1
    outer loop
      vertex -2.93444 0.623735 9.525
      vertex -0.313585 -2.98357 9.525
      vertex -0.927051 -2.85317 9.525
    endloop
  endfacet
  facet normal 0 0 -1
    outer loop
      vertex -2.93444 0.623735 9.525
      vertex -0.927051 -2.85317 9.525
      vertex -1.5 -2.59808 9.525
    endloop
  endfacet
  facet normal 0 0 -1
    outer loop
      vertex -2.93444 0.623735 9.525
      vertex -1.5 -2.59808 9.525
      vertex -2.00739 -2.22943 9.525
    endloop
  endfacet
  facet normal 0 0 -1
    outer loop
      vertex -2.93444 0.623735 9.525
      vertex -2.00739 -2.22943 9.525
      vertex -2.42705 -1.76336 9.525
    endloop
  endfacet
  facet normal 0 0 -1
    outer loop
      vertex -2.93444 0.623735 9.525
      vertex -2.42705 -1.76336 9.525
      vertex -2.74064 -1.22021 9.525
    endloop
  endfacet
  facet normal 0 0 -1
    outer loop
      vertex -2.93444 0.623735 9.525
      vertex -2.74064 -1.22021 9.525
      vertex -2.93444 -0.623735 9.525
    endloop
  endfacet
  facet normal 0 0 -1
    outer loop
      vertex -2.93444 0.623735 9.525
      vertex -2.93444 -0.623735 9.525
      vertex -3 0 9.525
    endloop
  endfacet
  facet normal -1 0 0
    outer loop
      vertex -2.54 -2.54 22.225
      vertex -2.54 -2.54 12.7
      vertex -2.54 -5.715 22.225
    endloop
  endfacet
  facet normal -1 0 0
    outer loop
      vertex -2.54 -5.715 22.225
      vertex -2.54 -2.54 12.7
      vertex -2.54 -5.715 12.7
    endloop
  endfacet
  facet normal 0 -1 0
    outer loop
      vertex 2.54 -5.715 12.7
      vertex 2.54 -5.715 22.225
      vertex -2.54 -5.715 22.225
    endloop
  endfacet
  facet normal 0 -1 0
    outer loop
      vertex -2.54 -5.715 12.7
      vertex 2.54 -5.715 12.7
      vertex -2.54 -5.715 22.225
    endloop
  endfacet
  facet normal 1 0 0
    outer loop
      vertex 2.54 -2.54 12.7
      vertex 2.54 -2.54 22.225
      vertex 2.54 -5.715 22.225
    endloop
  endfacet
  facet normal 1 0 0
    outer loop
      vertex 2.54 -5.715 12.7
      vertex 2.54 -2.54 12.7
      vertex 2.54 -5.715 22.225
    endloop
  endfacet
  facet normal 0 1 0
    outer loop
      vertex -1.46647 -2.54 17.8584
      vertex 2.54 -2.54 12.7
      vertex -2.54 -2.54 12.7
    endloop
  endfacet
  facet normal 0 1 0
    outer loop
      vertex 0.266965 -2.54 17.1675
      vertex 2.54 -2.54 12.7
      vertex -0.266965 -2.54 17.1675
    endloop
  endfacet
  facet normal 0 1 0
    outer loop
      vertex -2.54 -2.54 22.225
      vertex -1.87603 -2.54 19.05
      vertex -2.54 -2.54 12.7
    endloop
  endfacet
  facet normal 0 1 0
    outer loop
      vertex -0.336985 -2.54 17.1838
      vertex 2.54 -2.54 12.7
      vertex -0.825296 -2.54 17.3606
    endloop
  endfacet
  facet normal 0 1 0
    outer loop
      vertex -1.87603 -2.54 19.05
      vertex -1.81183 -2.54 18.689
      vertex -2.54 -2.54 12.7
    endloop
  endfacet
  facet normal 0 1 0
    outer loop
      vertex -1.81183 -2.54 18.689
      vertex -1.75864 -2.54 18.3899
      vertex -2.54 -2.54 12.7
    endloop
  endfacet
  facet normal 0 1 0
    outer loop
      vertex -1.38717 -2.54 17.7586
      vertex 2.54 -2.54 12.7
      vertex -1.46647 -2.54 17.8584
    endloop
  endfacet
  facet normal 0 1 0
    outer loop
      vertex -1.75864 -2.54 18.3899
      vertex -1.46647 -2.54 17.8584
      vertex -2.54 -2.54 12.7
    endloop
  endfacet
  facet normal 0 1 0
    outer loop
      vertex -0.266965 -2.54 17.1675
      vertex 2.54 -2.54 12.7
      vertex -0.336985 -2.54 17.1838
    endloop
  endfacet
  facet normal 0 1 0
    outer loop
      vertex 0.279072 -2.54 17.1703
      vertex 2.54 -2.54 12.7
      vertex 0.266965 -2.54 17.1675
    endloop
  endfacet
  facet normal 0 1 0
    outer loop
      vertex 0.336985 -2.54 17.1838
      vertex 2.54 -2.54 12.7
      vertex 0.279072 -2.54 17.1703
    endloop
  endfacet
  facet normal 0 1 0
    outer loop
      vertex 0.685922 -2.54 17.3101
      vertex 2.54 -2.54 12.7
      vertex 0.336985 -2.54 17.1838
    endloop
  endfacet
  facet normal 0 1 0
    outer loop
      vertex 0.825296 -2.54 17.3606
      vertex 2.54 -2.54 12.7
      vertex 0.685922 -2.54 17.3101
    endloop
  endfacet
  facet normal 0 1 0
    outer loop
      vertex 1.05509 -2.54 17.5234
      vertex 2.54 -2.54 12.7
      vertex 0.825296 -2.54 17.3606
    endloop
  endfacet
  facet normal 0 1 0
    outer loop
      vertex 1.38717 -2.54 17.7586
      vertex 2.54 -2.54 12.7
      vertex 1.05509 -2.54 17.5234
    endloop
  endfacet
  facet normal 0 1 0
    outer loop
      vertex 1.41906 -2.54 17.7988
      vertex 2.54 -2.54 12.7
      vertex 1.38717 -2.54 17.7586
    endloop
  endfacet
  facet normal 0 1 0
    outer loop
      vertex 1.46647 -2.54 17.8584
      vertex 2.54 -2.54 12.7
      vertex 1.41906 -2.54 17.7988
    endloop
  endfacet
  facet normal 0 1 0
    outer loop
      vertex 1.66146 -2.54 18.2131
      vertex 2.54 -2.54 12.7
      vertex 1.46647 -2.54 17.8584
    endloop
  endfacet
  facet normal 0 1 0
    outer loop
      vertex 1.75864 -2.54 18.3899
      vertex 2.54 -2.54 12.7
      vertex 1.66146 -2.54 18.2131
    endloop
  endfacet
  facet normal 0 1 0
    outer loop
      vertex 2.54 -2.54 22.225
      vertex 2.54 -2.54 12.7
      vertex 1.75864 -2.54 18.3899
    endloop
  endfacet
  facet normal 0 1 0
    outer loop
      vertex 2.54 -2.54 22.225
      vertex 1.75864 -2.54 18.3899
      vertex 1.82032 -2.54 18.7367
    endloop
  endfacet
  facet normal 0 1 0
    outer loop
      vertex 2.54 -2.54 22.225
      vertex 1.82032 -2.54 18.7367
      vertex 1.87603 -2.54 19.05
    endloop
  endfacet
  facet normal 0 1 0
    outer loop
      vertex 1.46647 -2.54 20.2416
      vertex 2.54 -2.54 22.225
      vertex 1.75864 -2.54 19.7101
    endloop
  endfacet
  facet normal 0 1 0
    outer loop
      vertex 2.54 -2.54 22.225
      vertex 1.81183 -2.54 19.411
      vertex 1.75864 -2.54 19.7101
    endloop
  endfacet
  facet normal 0 1 0
    outer loop
      vertex -0.266965 -2.54 20.9325
      vertex -2.54 -2.54 22.225
      vertex 0.266965 -2.54 20.9325
    endloop
  endfacet
  facet normal 0 1 0
    outer loop
      vertex 2.54 -2.54 22.225
      vertex 1.46647 -2.54 20.2416
      vertex 1.38717 -2.54 20.3414
    endloop
  endfacet
  facet normal 0 1 0
    outer loop
      vertex 2.54 -2.54 22.225
      vertex 1.38717 -2.54 20.3414
      vertex 0.825296 -2.54 20.7394
    endloop
  endfacet
  facet normal 0 1 0
    outer loop
      vertex 2.54 -2.54 22.225
      vertex 0.825296 -2.54 20.7394
      vertex -2.54 -2.54 22.225
    endloop
  endfacet
  facet normal 0 1 0
    outer loop
      vertex 0.825296 -2.54 20.7394
      vertex 0.336985 -2.54 20.9162
      vertex -2.54 -2.54 22.225
    endloop
  endfacet
  facet normal 0 1 0
    outer loop
      vertex 0.336985 -2.54 20.9162
      vertex 0.266965 -2.54 20.9325
      vertex -2.54 -2.54 22.225
    endloop
  endfacet
  facet normal 0 1 0
    outer loop
      vertex -1.46647 -2.54 20.2416
      vertex -2.54 -2.54 22.225
      vertex -1.41906 -2.54 20.3012
    endloop
  endfacet
  facet normal 0 1 0
    outer loop
      vertex -0.266965 -2.54 20.9325
      vertex -0.279072 -2.54 20.9297
      vertex -2.54 -2.54 22.225
    endloop
  endfacet
  facet normal 0 1 0
    outer loop
      vertex -0.279072 -2.54 20.9297
      vertex -0.336985 -2.54 20.9162
      vertex -2.54 -2.54 22.225
    endloop
  endfacet
  facet normal 0 1 0
    outer loop
      vertex -0.336985 -2.54 20.9162
      vertex -0.685922 -2.54 20.7899
      vertex -2.54 -2.54 22.225
    endloop
  endfacet
  facet normal 0 1 0
    outer loop
      vertex -0.685922 -2.54 20.7899
      vertex -0.825296 -2.54 20.7394
      vertex -2.54 -2.54 22.225
    endloop
  endfacet
  facet normal 0 1 0
    outer loop
      vertex -0.825296 -2.54 20.7394
      vertex -1.05509 -2.54 20.5766
      vertex -2.54 -2.54 22.225
    endloop
  endfacet
  facet normal 0 1 0
    outer loop
      vertex -1.05509 -2.54 20.5766
      vertex -1.38717 -2.54 20.3414
      vertex -2.54 -2.54 22.225
    endloop
  endfacet
  facet normal 0 1 0
    outer loop
      vertex -1.38717 -2.54 20.3414
      vertex -1.41906 -2.54 20.3012
      vertex -2.54 -2.54 22.225
    endloop
  endfacet
  facet normal 0 1 0
    outer loop
      vertex 1.81183 -2.54 19.411
      vertex 2.54 -2.54 22.225
      vertex 1.87603 -2.54 19.05
    endloop
  endfacet
  facet normal 0 1 0
    outer loop
      vertex -1.66146 -2.54 19.8869
      vertex -2.54 -2.54 22.225
      vertex -1.46647 -2.54 20.2416
    endloop
  endfacet
  facet normal 0 1 0
    outer loop
      vertex -2.54 -2.54 22.225
      vertex -1.66146 -2.54 19.8869
      vertex -1.75864 -2.54 19.7101
    endloop
  endfacet
  facet normal 0 1 0
    outer loop
      vertex -2.54 -2.54 22.225
      vertex -1.75864 -2.54 19.7101
      vertex -1.87603 -2.54 19.05
    endloop
  endfacet
  facet normal 0 1 0
    outer loop
      vertex -1.75864 -2.54 19.7101
      vertex -1.82032 -2.54 19.3633
      vertex -1.87603 -2.54 19.05
    endloop
  endfacet
  facet normal 0 1 0
    outer loop
      vertex -0.825296 -2.54 17.3606
      vertex 2.54 -2.54 12.7
      vertex -1.38717 -2.54 17.7586
    endloop
  endfacet
  facet normal -1 0 0
    outer loop
      vertex -2.54 2.54 12.7
      vertex -2.54 2.54 22.225
      vertex -2.54 5.715 12.7
    endloop
  endfacet
  facet normal -1 0 0
    outer loop
      vertex -2.54 5.715 12.7
      vertex -2.54 2.54 22.225
      vertex -2.54 5.715 22.225
    endloop
  endfacet
  facet normal 0 -1 0
    outer loop
      vertex -1.05509 2.54 17.5234
      vertex -2.54 2.54 12.7
      vertex 2.54 2.54 12.7
    endloop
  endfacet
  facet normal 0 -1 0
    outer loop
      vertex -2.54 2.54 22.225
      vertex -2.54 2.54 12.7
      vertex -1.82032 2.54 18.7367
    endloop
  endfacet
  facet normal 0 -1 0
    outer loop
      vertex -0.825296 2.54 17.3606
      vertex -1.05509 2.54 17.5234
      vertex 2.54 2.54 12.7
    endloop
  endfacet
  facet normal 0 -1 0
    outer loop
      vertex -2.54 2.54 22.225
      vertex -1.82032 2.54 18.7367
      vertex -1.87603 2.54 19.05
    endloop
  endfacet
  facet normal 0 -1 0
    outer loop
      vertex -2.54 2.54 22.225
      vertex -1.87603 2.54 19.05
      vertex -1.81183 2.54 19.411
    endloop
  endfacet
  facet normal 0 -1 0
    outer loop
      vertex -2.54 2.54 22.225
      vertex -1.81183 2.54 19.411
      vertex -1.75864 2.54 19.7101
    endloop
  endfacet
  facet normal 0 -1 0
    outer loop
      vertex -0.336985 2.54 17.1838
      vertex -0.685922 2.54 17.3101
      vertex 2.54 2.54 12.7
    endloop
  endfacet
  facet normal 0 -1 0
    outer loop
      vertex -1.38717 2.54 20.3414
      vertex -2.54 2.54 22.225
      vertex -1.46647 2.54 20.2416
    endloop
  endfacet
  facet normal 0 -1 0
    outer loop
      vertex -0.825296 2.54 20.7394
      vertex -2.54 2.54 22.225
      vertex -1.38717 2.54 20.3414
    endloop
  endfacet
  facet normal 0 -1 0
    outer loop
      vertex 2.54 2.54 22.225
      vertex -2.54 2.54 22.225
      vertex -0.825296 2.54 20.7394
    endloop
  endfacet
  facet normal 0 -1 0
    outer loop
      vertex 2.54 2.54 22.225
      vertex -0.825296 2.54 20.7394
      vertex -0.336985 2.54 20.9162
    endloop
  endfacet
  facet normal 0 -1 0
    outer loop
      vertex 1.87603 2.54 19.05
      vertex 1.81183 2.54 18.689
      vertex 2.54 2.54 12.7
    endloop
  endfacet
  facet normal 0 -1 0
    outer loop
      vertex 2.54 2.54 22.225
      vertex -0.336985 2.54 20.9162
      vertex -0.266965 2.54 20.9325
    endloop
  endfacet
  facet normal 0 -1 0
    outer loop
      vertex 0.266965 2.54 17.1675
      vertex -0.266965 2.54 17.1675
      vertex 2.54 2.54 12.7
    endloop
  endfacet
  facet normal 0 -1 0
    outer loop
      vertex 2.54 2.54 22.225
      vertex 0.266965 2.54 20.9325
      vertex 0.279072 2.54 20.9297
    endloop
  endfacet
  facet normal 0 -1 0
    outer loop
      vertex 2.54 2.54 22.225
      vertex 0.279072 2.54 20.9297
      vertex 0.336985 2.54 20.9162
    endloop
  endfacet
  facet normal 0 -1 0
    outer loop
      vertex 2.54 2.54 22.225
      vertex 0.336985 2.54 20.9162
      vertex 0.685922 2.54 20.7899
    endloop
  endfacet
  facet normal 0 -1 0
    outer loop
      vertex 2.54 2.54 22.225
      vertex 0.685922 2.54 20.7899
      vertex 0.825296 2.54 20.7394
    endloop
  endfacet
  facet normal 0 -1 0
    outer loop
      vertex 1.46647 2.54 17.8584
      vertex 1.38717 2.54 17.7586
      vertex 2.54 2.54 12.7
    endloop
  endfacet
  facet normal 0 -1 0
    outer loop
      vertex 2.54 2.54 22.225
      vertex 0.825296 2.54 20.7394
      vertex 1.05509 2.54 20.5766
    endloop
  endfacet
  facet normal 0 -1 0
    outer loop
      vertex 2.54 2.54 22.225
      vertex 1.05509 2.54 20.5766
      vertex 1.38717 2.54 20.3414
    endloop
  endfacet
  facet normal 0 -1 0
    outer loop
      vertex 2.54 2.54 22.225
      vertex 1.38717 2.54 20.3414
      vertex 1.41906 2.54 20.3012
    endloop
  endfacet
  facet normal 0 -1 0
    outer loop
      vertex 1.38717 2.54 17.7586
      vertex 0.825296 2.54 17.3606
      vertex 2.54 2.54 12.7
    endloop
  endfacet
  facet normal 0 -1 0
    outer loop
      vertex 2.54 2.54 22.225
      vertex 1.41906 2.54 20.3012
      vertex 1.46647 2.54 20.2416
    endloop
  endfacet
  facet normal 0 -1 0
    outer loop
      vertex 2.54 2.54 22.225
      vertex 1.46647 2.54 20.2416
      vertex 1.66146 2.54 19.8869
    endloop
  endfacet
  facet normal 0 -1 0
    outer loop
      vertex 1.81183 2.54 18.689
      vertex 1.75864 2.54 18.3899
      vertex 2.54 2.54 12.7
    endloop
  endfacet
  facet normal 0 -1 0
    outer loop
      vertex 2.54 2.54 22.225
      vertex 1.66146 2.54 19.8869
      vertex 1.75864 2.54 19.7101
    endloop
  endfacet
  facet normal 0 -1 0
    outer loop
      vertex 2.54 2.54 22.225
      vertex 1.75864 2.54 19.7101
      vertex 1.82032 2.54 19.3633
    endloop
  endfacet
  facet normal 0 -1 0
    outer loop
      vertex 2.54 2.54 22.225
      vertex 1.87603 2.54 19.05
      vertex 2.54 2.54 12.7
    endloop
  endfacet
  facet normal 0 -1 0
    outer loop
      vertex 2.54 2.54 22.225
      vertex 1.82032 2.54 19.3633
      vertex 1.87603 2.54 19.05
    endloop
  endfacet
  facet normal 0 -1 0
    outer loop
      vertex 0.825296 2.54 17.3606
      vertex 0.336985 2.54 17.1838
      vertex 2.54 2.54 12.7
    endloop
  endfacet
  facet normal 0 -1 0
    outer loop
      vertex 0.336985 2.54 17.1838
      vertex 0.266965 2.54 17.1675
      vertex 2.54 2.54 12.7
    endloop
  endfacet
  facet normal 0 -1 0
    outer loop
      vertex -0.266965 2.54 17.1675
      vertex -0.279072 2.54 17.1703
      vertex 2.54 2.54 12.7
    endloop
  endfacet
  facet normal 0 -1 0
    outer loop
      vertex -0.279072 2.54 17.1703
      vertex -0.336985 2.54 17.1838
      vertex 2.54 2.54 12.7
    endloop
  endfacet
  facet normal 0 -1 0
    outer loop
      vertex -0.685922 2.54 17.3101
      vertex -0.825296 2.54 17.3606
      vertex 2.54 2.54 12.7
    endloop
  endfacet
  facet normal 0 -1 0
    outer loop
      vertex -1.38717 2.54 17.7586
      vertex -2.54 2.54 12.7
      vertex -1.05509 2.54 17.5234
    endloop
  endfacet
  facet normal 0 -1 0
    outer loop
      vertex -1.41906 2.54 17.7988
      vertex -2.54 2.54 12.7
      vertex -1.38717 2.54 17.7586
    endloop
  endfacet
  facet normal 0 -1 0
    outer loop
      vertex -1.46647 2.54 17.8584
      vertex -2.54 2.54 12.7
      vertex -1.41906 2.54 17.7988
    endloop
  endfacet
  facet normal 0 -1 0
    outer loop
      vertex -1.66146 2.54 18.2131
      vertex -2.54 2.54 12.7
      vertex -1.46647 2.54 17.8584
    endloop
  endfacet
  facet normal 0 -1 0
    outer loop
      vertex -1.75864 2.54 18.3899
      vertex -2.54 2.54 12.7
      vertex -1.66146 2.54 18.2131
    endloop
  endfacet
  facet normal 0 -1 0
    outer loop
      vertex -1.82032 2.54 18.7367
      vertex -2.54 2.54 12.7
      vertex -1.75864 2.54 18.3899
    endloop
  endfacet
  facet normal 0 -1 0
    outer loop
      vertex -1.75864 2.54 19.7101
      vertex -1.46647 2.54 20.2416
      vertex -2.54 2.54 22.225
    endloop
  endfacet
  facet normal 0 -1 0
    outer loop
      vertex -0.266965 2.54 20.9325
      vertex 0.266965 2.54 20.9325
      vertex 2.54 2.54 22.225
    endloop
  endfacet
  facet normal 0 -1 0
    outer loop
      vertex 1.75864 2.54 18.3899
      vertex 1.46647 2.54 17.8584
      vertex 2.54 2.54 12.7
    endloop
  endfacet
  facet normal 1 0 0
    outer loop
      vertex 2.54 2.54 22.225
      vertex 2.54 2.54 12.7
      vertex 2.54 5.715 12.7
    endloop
  endfacet
  facet normal 1 0 0
    outer loop
      vertex 2.54 5.715 22.225
      vertex 2.54 2.54 22.225
      vertex 2.54 5.715 12.7
    endloop
  endfacet
  facet normal 0 1 0
    outer loop
      vertex -2.54 5.715 12.7
      vertex -2.54 5.715 22.225
      vertex 2.54 5.715 12.7
    endloop
  endfacet
  facet normal 0 1 0
    outer loop
      vertex 2.54 5.715 12.7
      vertex -2.54 5.715 22.225
      vertex 2.54 5.715 22.225
    endloop
  endfacet
  facet normal 0 0 1
    outer loop
      vertex 2.54 -5.715 22.225
      vertex 2.54 -2.54 22.225
      vertex -2.54 -2.54 22.225
    endloop
  endfacet
  facet normal 0 0 1
    outer loop
      vertex -2.54 -5.715 22.225
      vertex 2.54 -5.715 22.225
      vertex -2.54 -2.54 22.225
    endloop
  endfacet
  facet normal 0.5846 0.804633 0.103962
    outer loop
      vertex -1.55281 -2.68954 18.3899
      vertex -1.81183 -2.54 18.689
      vertex -1.5875 -2.74963 19.05
    endloop
  endfacet
  facet normal 0.5846 0.804633 0.103962
    outer loop
      vertex -1.5875 -2.74963 19.05
      vertex -1.81183 -2.54 18.689
      vertex -1.87603 -2.54 19.05
    endloop
  endfacet
  facet normal 0.5846 0.804633 -0.103963
    outer loop
      vertex -1.82032 -2.54 19.3633
      vertex -1.5875 -2.74963 19.05
      vertex -1.87603 -2.54 19.05
    endloop
  endfacet
  facet normal 0.584601 0.804632 -0.103962
    outer loop
      vertex -1.55281 -2.68954 19.7101
      vertex -1.5875 -2.74963 19.05
      vertex -1.75864 -2.54 19.7101
    endloop
  endfacet
  facet normal 0.584601 0.804632 -0.103962
    outer loop
      vertex -1.75864 -2.54 19.7101
      vertex -1.5875 -2.74963 19.05
      vertex -1.82032 -2.54 19.3633
    endloop
  endfacet
  facet normal 0.55931 0.769822 -0.307483
    outer loop
      vertex -1.66146 -2.54 19.8869
      vertex -1.55281 -2.68954 19.7101
      vertex -1.75864 -2.54 19.7101
    endloop
  endfacet
  facet normal 0.559308 0.769823 -0.307485
    outer loop
      vertex -1.46647 -2.54 20.2416
      vertex -1.55281 -2.68954 19.7101
      vertex -1.66146 -2.54 19.8869
    endloop
  endfacet
  facet normal 0.387031 0.869287 -0.307485
    outer loop
      vertex -1.41906 -2.54 20.3012
      vertex -0.959689 -2.95362 19.7101
      vertex -1.46647 -2.54 20.2416
    endloop
  endfacet
  facet normal 0.387031 0.869287 -0.307485
    outer loop
      vertex -1.46647 -2.54 20.2416
      vertex -0.959689 -2.95362 19.7101
      vertex -1.55281 -2.68954 19.7101
    endloop
  endfacet
  facet normal 0.387031 0.869287 -0.307485
    outer loop
      vertex -0.896306 -2.75855 20.3414
      vertex -0.959689 -2.95362 19.7101
      vertex -1.38717 -2.54 20.3414
    endloop
  endfacet
  facet normal 0.387031 0.869287 -0.307485
    outer loop
      vertex -1.38717 -2.54 20.3414
      vertex -0.959689 -2.95362 19.7101
      vertex -1.41906 -2.54 20.3012
    endloop
  endfacet
  facet normal 0.352726 0.792236 -0.497942
    outer loop
      vertex -1.05509 -2.54 20.5766
      vertex -0.896306 -2.75855 20.3414
      vertex -1.38717 -2.54 20.3414
    endloop
  endfacet
  facet normal 0.352726 0.792236 -0.497942
    outer loop
      vertex -0.825296 -2.54 20.7394
      vertex -0.896306 -2.75855 20.3414
      vertex -1.05509 -2.54 20.5766
    endloop
  endfacet
  facet normal 0.180304 0.848259 -0.497942
    outer loop
      vertex -0.685922 -2.54 20.7899
      vertex -0.303186 -2.88462 20.3414
      vertex -0.825296 -2.54 20.7394
    endloop
  endfacet
  facet normal 0.180304 0.848259 -0.497942
    outer loop
      vertex -0.825296 -2.54 20.7394
      vertex -0.303186 -2.88462 20.3414
      vertex -0.896306 -2.75855 20.3414
    endloop
  endfacet
  facet normal 0.180304 0.84826 -0.497942
    outer loop
      vertex -0.268495 -2.55456 20.9162
      vertex -0.303186 -2.88462 20.3414
      vertex -0.336985 -2.54 20.9162
    endloop
  endfacet
  facet normal 0.180304 0.84826 -0.497942
    outer loop
      vertex -0.336985 -2.54 20.9162
      vertex -0.303186 -2.88462 20.3414
      vertex -0.685922 -2.54 20.7899
    endloop
  endfacet
  facet normal 0.154889 0.72869 -0.667098
    outer loop
      vertex -0.279072 -2.54 20.9297
      vertex -0.268495 -2.55456 20.9162
      vertex -0.336985 -2.54 20.9162
    endloop
  endfacet
  facet normal 0.154887 0.72869 -0.667099
    outer loop
      vertex -0.266965 -2.54 20.9325
      vertex -0.268495 -2.55456 20.9162
      vertex -0.279072 -2.54 20.9297
    endloop
  endfacet
  facet normal 0 0.744969 -0.667099
    outer loop
      vertex 0.266965 -2.54 20.9325
      vertex 0.268495 -2.55456 20.9162
      vertex -0.266965 -2.54 20.9325
    endloop
  endfacet
  facet normal 0 0.744969 -0.667099
    outer loop
      vertex -0.266965 -2.54 20.9325
      vertex 0.268495 -2.55456 20.9162
      vertex -0.268495 -2.55456 20.9162
    endloop
  endfacet
  facet normal -0.154889 0.728689 -0.667099
    outer loop
      vertex 0.336985 -2.54 20.9162
      vertex 0.268495 -2.55456 20.9162
      vertex 0.266965 -2.54 20.9325
    endloop
  endfacet
  facet normal -0.180304 0.848259 -0.497942
    outer loop
      vertex 0.825296 -2.54 20.7394
      vertex 0.896306 -2.75855 20.3414
      vertex 0.336985 -2.54 20.9162
    endloop
  endfacet
  facet normal -0.180304 0.848259 -0.497942
    outer loop
      vertex 0.336985 -2.54 20.9162
      vertex 0.896306 -2.75855 20.3414
      vertex 0.268495 -2.55456 20.9162
    endloop
  endfacet
  facet normal -0.352726 0.792236 -0.497942
    outer loop
      vertex 1.38717 -2.54 20.3414
      vertex 0.896306 -2.75855 20.3414
      vertex 0.825296 -2.54 20.7394
    endloop
  endfacet
  facet normal -0.387031 0.869287 -0.307485
    outer loop
      vertex 1.46647 -2.54 20.2416
      vertex 1.55281 -2.68954 19.7101
      vertex 1.38717 -2.54 20.3414
    endloop
  endfacet
  facet normal -0.387031 0.869287 -0.307485
    outer loop
      vertex 1.38717 -2.54 20.3414
      vertex 1.55281 -2.68954 19.7101
      vertex 0.896306 -2.75855 20.3414
    endloop
  endfacet
  facet normal -0.55931 0.769822 -0.307485
    outer loop
      vertex 1.75864 -2.54 19.7101
      vertex 1.55281 -2.68954 19.7101
      vertex 1.46647 -2.54 20.2416
    endloop
  endfacet
  facet normal -0.584601 0.804632 -0.103963
    outer loop
      vertex 1.75864 -2.54 19.7101
      vertex 1.81183 -2.54 19.411
      vertex 1.55281 -2.68954 19.7101
    endloop
  endfacet
  facet normal -0.5846 0.804633 -0.103962
    outer loop
      vertex 1.87603 -2.54 19.05
      vertex 1.5875 -2.74963 19.05
      vertex 1.81183 -2.54 19.411
    endloop
  endfacet
  facet normal -0.5846 0.804633 -0.103962
    outer loop
      vertex 1.81183 -2.54 19.411
      vertex 1.5875 -2.74963 19.05
      vertex 1.55281 -2.68954 19.7101
    endloop
  endfacet
  facet normal -0.5846 0.804633 0.103963
    outer loop
      vertex 1.87603 -2.54 19.05
      vertex 1.82032 -2.54 18.7367
      vertex 1.5875 -2.74963 19.05
    endloop
  endfacet
  facet normal -0.584601 0.804632 0.103962
    outer loop
      vertex 1.82032 -2.54 18.7367
      vertex 1.75864 -2.54 18.3899
      vertex 1.5875 -2.74963 19.05
    endloop
  endfacet
  facet normal -0.584601 0.804632 0.103962
    outer loop
      vertex 1.5875 -2.74963 19.05
      vertex 1.75864 -2.54 18.3899
      vertex 1.55281 -2.68954 18.3899
    endloop
  endfacet
  facet normal -0.55931 0.769822 0.307483
    outer loop
      vertex 1.75864 -2.54 18.3899
      vertex 1.66146 -2.54 18.2131
      vertex 1.55281 -2.68954 18.3899
    endloop
  endfacet
  facet normal -0.559308 0.769823 0.307485
    outer loop
      vertex 1.55281 -2.68954 18.3899
      vertex 1.66146 -2.54 18.2131
      vertex 1.46647 -2.54 17.8584
    endloop
  endfacet
  facet normal -0.387031 0.869287 0.307485
    outer loop
      vertex 1.46647 -2.54 17.8584
      vertex 1.41906 -2.54 17.7988
      vertex 1.55281 -2.68954 18.3899
    endloop
  endfacet
  facet normal -0.387031 0.869287 0.307485
    outer loop
      vertex 1.55281 -2.68954 18.3899
      vertex 1.41906 -2.54 17.7988
      vertex 0.959689 -2.95362 18.3899
    endloop
  endfacet
  facet normal -0.387031 0.869287 0.307485
    outer loop
      vertex 1.41906 -2.54 17.7988
      vertex 1.38717 -2.54 17.7586
      vertex 0.959689 -2.95362 18.3899
    endloop
  endfacet
  facet normal -0.387031 0.869287 0.307485
    outer loop
      vertex 0.959689 -2.95362 18.3899
      vertex 1.38717 -2.54 17.7586
      vertex 0.896306 -2.75855 17.7586
    endloop
  endfacet
  facet normal -0.352726 0.792236 0.497942
    outer loop
      vertex 1.38717 -2.54 17.7586
      vertex 1.05509 -2.54 17.5234
      vertex 0.896306 -2.75855 17.7586
    endloop
  endfacet
  facet normal -0.352726 0.792236 0.497942
    outer loop
      vertex 0.896306 -2.75855 17.7586
      vertex 1.05509 -2.54 17.5234
      vertex 0.825296 -2.54 17.3606
    endloop
  endfacet
  facet normal -0.180304 0.848259 0.497942
    outer loop
      vertex 0.825296 -2.54 17.3606
      vertex 0.685922 -2.54 17.3101
      vertex 0.896306 -2.75855 17.7586
    endloop
  endfacet
  facet normal -0.180304 0.848259 0.497942
    outer loop
      vertex 0.896306 -2.75855 17.7586
      vertex 0.685922 -2.54 17.3101
      vertex 0.303186 -2.88462 17.7586
    endloop
  endfacet
  facet normal -0.180304 0.84826 0.497942
    outer loop
      vertex 0.685922 -2.54 17.3101
      vertex 0.336985 -2.54 17.1838
      vertex 0.303186 -2.88462 17.7586
    endloop
  endfacet
  facet normal -0.180304 0.84826 0.497942
    outer loop
      vertex 0.303186 -2.88462 17.7586
      vertex 0.336985 -2.54 17.1838
      vertex 0.268495 -2.55456 17.1838
    endloop
  endfacet
  facet normal -0.154889 0.72869 0.667098
    outer loop
      vertex 0.336985 -2.54 17.1838
      vertex 0.279072 -2.54 17.1703
      vertex 0.268495 -2.55456 17.1838
    endloop
  endfacet
  facet normal -0.154887 0.72869 0.667099
    outer loop
      vertex 0.268495 -2.55456 17.1838
      vertex 0.279072 -2.54 17.1703
      vertex 0.266965 -2.54 17.1675
    endloop
  endfacet
  facet normal 0 0.744969 0.667099
    outer loop
      vertex 0.266965 -2.54 17.1675
      vertex -0.266965 -2.54 17.1675
      vertex 0.268495 -2.55456 17.1838
    endloop
  endfacet
  facet normal 0 0.744969 0.667099
    outer loop
      vertex 0.268495 -2.55456 17.1838
      vertex -0.266965 -2.54 17.1675
      vertex -0.268495 -2.55456 17.1838
    endloop
  endfacet
  facet normal 0.154889 0.728689 0.667099
    outer loop
      vertex -0.268495 -2.55456 17.1838
      vertex -0.266965 -2.54 17.1675
      vertex -0.336985 -2.54 17.1838
    endloop
  endfacet
  facet normal 0.180304 0.848259 0.497942
    outer loop
      vertex -0.336985 -2.54 17.1838
      vertex -0.825296 -2.54 17.3606
      vertex -0.268495 -2.55456 17.1838
    endloop
  endfacet
  facet normal 0.180304 0.848259 0.497942
    outer loop
      vertex -0.268495 -2.55456 17.1838
      vertex -0.825296 -2.54 17.3606
      vertex -0.896306 -2.75855 17.7586
    endloop
  endfacet
  facet normal 0.352726 0.792236 0.497942
    outer loop
      vertex -0.896306 -2.75855 17.7586
      vertex -0.825296 -2.54 17.3606
      vertex -1.38717 -2.54 17.7586
    endloop
  endfacet
  facet normal 0.387031 0.869287 0.307485
    outer loop
      vertex -1.38717 -2.54 17.7586
      vertex -1.46647 -2.54 17.8584
      vertex -0.896306 -2.75855 17.7586
    endloop
  endfacet
  facet normal 0.387031 0.869287 0.307485
    outer loop
      vertex -0.896306 -2.75855 17.7586
      vertex -1.46647 -2.54 17.8584
      vertex -1.55281 -2.68954 18.3899
    endloop
  endfacet
  facet normal 0.55931 0.769822 0.307485
    outer loop
      vertex -1.55281 -2.68954 18.3899
      vertex -1.46647 -2.54 17.8584
      vertex -1.75864 -2.54 18.3899
    endloop
  endfacet
  facet normal 0.584601 0.804632 0.103963
    outer loop
      vertex -1.55281 -2.68954 18.3899
      vertex -1.75864 -2.54 18.3899
      vertex -1.81183 -2.54 18.689
    endloop
  endfacet
  facet normal 0 0 1
    outer loop
      vertex -2.54 5.715 22.225
      vertex -2.54 2.54 22.225
      vertex 2.54 2.54 22.225
    endloop
  endfacet
  facet normal 0 0 1
    outer loop
      vertex 2.54 5.715 22.225
      vertex -2.54 5.715 22.225
      vertex 2.54 2.54 22.225
    endloop
  endfacet
  facet normal 0.584601 -0.804632 0.103962
    outer loop
      vertex -1.75864 2.54 18.3899
      vertex -1.55281 2.68954 18.3899
      vertex -1.5875 2.74963 19.05
    endloop
  endfacet
  facet normal 0.584601 -0.804632 0.103962
    outer loop
      vertex -1.82032 2.54 18.7367
      vertex -1.75864 2.54 18.3899
      vertex -1.5875 2.74963 19.05
    endloop
  endfacet
  facet normal 0.5846 -0.804633 0.103963
    outer loop
      vertex -1.82032 2.54 18.7367
      vertex -1.5875 2.74963 19.05
      vertex -1.87603 2.54 19.05
    endloop
  endfacet
  facet normal 0.55931 -0.769822 0.307483
    outer loop
      vertex -1.66146 2.54 18.2131
      vertex -1.55281 2.68954 18.3899
      vertex -1.75864 2.54 18.3899
    endloop
  endfacet
  facet normal 0.559308 -0.769823 0.307485
    outer loop
      vertex -1.46647 2.54 17.8584
      vertex -1.55281 2.68954 18.3899
      vertex -1.66146 2.54 18.2131
    endloop
  endfacet
  facet normal 0.387031 -0.869287 0.307485
    outer loop
      vertex -1.46647 2.54 17.8584
      vertex -1.41906 2.54 17.7988
      vertex -0.959689 2.95362 18.3899
    endloop
  endfacet
  facet normal 0.387031 -0.869287 0.307485
    outer loop
      vertex -1.55281 2.68954 18.3899
      vertex -1.46647 2.54 17.8584
      vertex -0.959689 2.95362 18.3899
    endloop
  endfacet
  facet normal 0.387031 -0.869287 0.307485
    outer loop
      vertex -1.38717 2.54 17.7586
      vertex -0.896306 2.75855 17.7586
      vertex -0.959689 2.95362 18.3899
    endloop
  endfacet
  facet normal 0.387031 -0.869287 0.307485
    outer loop
      vertex -1.41906 2.54 17.7988
      vertex -1.38717 2.54 17.7586
      vertex -0.959689 2.95362 18.3899
    endloop
  endfacet
  facet normal 0.352726 -0.792236 0.497942
    outer loop
      vertex -1.05509 2.54 17.5234
      vertex -0.896306 2.75855 17.7586
      vertex -1.38717 2.54 17.7586
    endloop
  endfacet
  facet normal 0.352726 -0.792236 0.497942
    outer loop
      vertex -0.825296 2.54 17.3606
      vertex -0.896306 2.75855 17.7586
      vertex -1.05509 2.54 17.5234
    endloop
  endfacet
  facet normal 0.180304 -0.848259 0.497942
    outer loop
      vertex -0.825296 2.54 17.3606
      vertex -0.685922 2.54 17.3101
      vertex -0.303186 2.88462 17.7586
    endloop
  endfacet
  facet normal 0.180304 -0.848259 0.497942
    outer loop
      vertex -0.896306 2.75855 17.7586
      vertex -0.825296 2.54 17.3606
      vertex -0.303186 2.88462 17.7586
    endloop
  endfacet
  facet normal 0.180304 -0.84826 0.497942
    outer loop
      vertex -0.336985 2.54 17.1838
      vertex -0.268495 2.55456 17.1838
      vertex -0.303186 2.88462 17.7586
    endloop
  endfacet
  facet normal 0.180304 -0.84826 0.497942
    outer loop
      vertex -0.685922 2.54 17.3101
      vertex -0.336985 2.54 17.1838
      vertex -0.303186 2.88462 17.7586
    endloop
  endfacet
  facet normal 0.154889 -0.72869 0.667098
    outer loop
      vertex -0.279072 2.54 17.1703
      vertex -0.268495 2.55456 17.1838
      vertex -0.336985 2.54 17.1838
    endloop
  endfacet
  facet normal 0.154887 -0.72869 0.667099
    outer loop
      vertex -0.266965 2.54 17.1675
      vertex -0.268495 2.55456 17.1838
      vertex -0.279072 2.54 17.1703
    endloop
  endfacet
  facet normal 0 -0.744969 0.667099
    outer loop
      vertex -0.266965 2.54 17.1675
      vertex 0.266965 2.54 17.1675
      vertex 0.268495 2.55456 17.1838
    endloop
  endfacet
  facet normal 0 -0.744969 0.667099
    outer loop
      vertex -0.268495 2.55456 17.1838
      vertex -0.266965 2.54 17.1675
      vertex 0.268495 2.55456 17.1838
    endloop
  endfacet
  facet normal -0.154889 -0.728689 0.667099
    outer loop
      vertex 0.336985 2.54 17.1838
      vertex 0.268495 2.55456 17.1838
      vertex 0.266965 2.54 17.1675
    endloop
  endfacet
  facet normal -0.180304 -0.848259 0.497942
    outer loop
      vertex 0.336985 2.54 17.1838
      vertex 0.825296 2.54 17.3606
      vertex 0.896306 2.75855 17.7586
    endloop
  endfacet
  facet normal -0.180304 -0.848259 0.497942
    outer loop
      vertex 0.268495 2.55456 17.1838
      vertex 0.336985 2.54 17.1838
      vertex 0.896306 2.75855 17.7586
    endloop
  endfacet
  facet normal -0.352726 -0.792236 0.497942
    outer loop
      vertex 1.38717 2.54 17.7586
      vertex 0.896306 2.75855 17.7586
      vertex 0.825296 2.54 17.3606
    endloop
  endfacet
  facet normal -0.387031 -0.869287 0.307485
    outer loop
      vertex 1.38717 2.54 17.7586
      vertex 1.46647 2.54 17.8584
      vertex 1.55281 2.68954 18.3899
    endloop
  endfacet
  facet normal -0.387031 -0.869287 0.307485
    outer loop
      vertex 0.896306 2.75855 17.7586
      vertex 1.38717 2.54 17.7586
      vertex 1.55281 2.68954 18.3899
    endloop
  endfacet
  facet normal -0.55931 -0.769822 0.307485
    outer loop
      vertex 1.75864 2.54 18.3899
      vertex 1.55281 2.68954 18.3899
      vertex 1.46647 2.54 17.8584
    endloop
  endfacet
  facet normal -0.584601 -0.804632 0.103963
    outer loop
      vertex 1.75864 2.54 18.3899
      vertex 1.81183 2.54 18.689
      vertex 1.55281 2.68954 18.3899
    endloop
  endfacet
  facet normal -0.5846 -0.804633 0.103962
    outer loop
      vertex 1.81183 2.54 18.689
      vertex 1.87603 2.54 19.05
      vertex 1.5875 2.74963 19.05
    endloop
  endfacet
  facet normal -0.5846 -0.804633 0.103962
    outer loop
      vertex 1.55281 2.68954 18.3899
      vertex 1.81183 2.54 18.689
      vertex 1.5875 2.74963 19.05
    endloop
  endfacet
  facet normal -0.5846 -0.804633 -0.103963
    outer loop
      vertex 1.87603 2.54 19.05
      vertex 1.82032 2.54 19.3633
      vertex 1.5875 2.74963 19.05
    endloop
  endfacet
  facet normal -0.584601 -0.804632 -0.103962
    outer loop
      vertex 1.5875 2.74963 19.05
      vertex 1.82032 2.54 19.3633
      vertex 1.75864 2.54 19.7101
    endloop
  endfacet
  facet normal -0.584601 -0.804632 -0.103962
    outer loop
      vertex 1.55281 2.68954 19.7101
      vertex 1.5875 2.74963 19.05
      vertex 1.75864 2.54 19.7101
    endloop
  endfacet
  facet normal -0.55931 -0.769822 -0.307483
    outer loop
      vertex 1.75864 2.54 19.7101
      vertex 1.66146 2.54 19.8869
      vertex 1.55281 2.68954 19.7101
    endloop
  endfacet
  facet normal -0.559308 -0.769823 -0.307485
    outer loop
      vertex 1.55281 2.68954 19.7101
      vertex 1.66146 2.54 19.8869
      vertex 1.46647 2.54 20.2416
    endloop
  endfacet
  facet normal -0.387031 -0.869287 -0.307485
    outer loop
      vertex 1.55281 2.68954 19.7101
      vertex 1.46647 2.54 20.2416
      vertex 1.41906 2.54 20.3012
    endloop
  endfacet
  facet normal -0.387031 -0.869287 -0.307485
    outer loop
      vertex 0.959689 2.95362 19.7101
      vertex 1.55281 2.68954 19.7101
      vertex 1.41906 2.54 20.3012
    endloop
  endfacet
  facet normal -0.387031 -0.869287 -0.307485
    outer loop
      vertex 0.959689 2.95362 19.7101
      vertex 1.41906 2.54 20.3012
      vertex 1.38717 2.54 20.3414
    endloop
  endfacet
  facet normal -0.387031 -0.869287 -0.307485
    outer loop
      vertex 0.896306 2.75855 20.3414
      vertex 0.959689 2.95362 19.7101
      vertex 1.38717 2.54 20.3414
    endloop
  endfacet
  facet normal -0.352726 -0.792236 -0.497942
    outer loop
      vertex 1.38717 2.54 20.3414
      vertex 1.05509 2.54 20.5766
      vertex 0.896306 2.75855 20.3414
    endloop
  endfacet
  facet normal -0.352726 -0.792236 -0.497942
    outer loop
      vertex 0.896306 2.75855 20.3414
      vertex 1.05509 2.54 20.5766
      vertex 0.825296 2.54 20.7394
    endloop
  endfacet
  facet normal -0.180304 -0.848259 -0.497942
    outer loop
      vertex 0.896306 2.75855 20.3414
      vertex 0.825296 2.54 20.7394
      vertex 0.685922 2.54 20.7899
    endloop
  endfacet
  facet normal -0.180304 -0.848259 -0.497942
    outer loop
      vertex 0.303186 2.88462 20.3414
      vertex 0.896306 2.75855 20.3414
      vertex 0.685922 2.54 20.7899
    endloop
  endfacet
  facet normal -0.180304 -0.84826 -0.497942
    outer loop
      vertex 0.303186 2.88462 20.3414
      vertex 0.685922 2.54 20.7899
      vertex 0.336985 2.54 20.9162
    endloop
  endfacet
  facet normal -0.180304 -0.84826 -0.497942
    outer loop
      vertex 0.268495 2.55456 20.9162
      vertex 0.303186 2.88462 20.3414
      vertex 0.336985 2.54 20.9162
    endloop
  endfacet
  facet normal -0.154889 -0.72869 -0.667098
    outer loop
      vertex 0.336985 2.54 20.9162
      vertex 0.279072 2.54 20.9297
      vertex 0.268495 2.55456 20.9162
    endloop
  endfacet
  facet normal -0.154887 -0.72869 -0.667099
    outer loop
      vertex 0.268495 2.55456 20.9162
      vertex 0.279072 2.54 20.9297
      vertex 0.266965 2.54 20.9325
    endloop
  endfacet
  facet normal 0 -0.744969 -0.667099
    outer loop
      vertex 0.268495 2.55456 20.9162
      vertex 0.266965 2.54 20.9325
      vertex -0.266965 2.54 20.9325
    endloop
  endfacet
  facet normal 0 -0.744969 -0.667099
    outer loop
      vertex -0.268495 2.55456 20.9162
      vertex 0.268495 2.55456 20.9162
      vertex -0.266965 2.54 20.9325
    endloop
  endfacet
  facet normal 0.154889 -0.728689 -0.667099
    outer loop
      vertex -0.268495 2.55456 20.9162
      vertex -0.266965 2.54 20.9325
      vertex -0.336985 2.54 20.9162
    endloop
  endfacet
  facet normal 0.180304 -0.848259 -0.497942
    outer loop
      vertex -0.268495 2.55456 20.9162
      vertex -0.336985 2.54 20.9162
      vertex -0.825296 2.54 20.7394
    endloop
  endfacet
  facet normal 0.180304 -0.848259 -0.497942
    outer loop
      vertex -0.896306 2.75855 20.3414
      vertex -0.268495 2.55456 20.9162
      vertex -0.825296 2.54 20.7394
    endloop
  endfacet
  facet normal 0.352726 -0.792236 -0.497942
    outer loop
      vertex -0.896306 2.75855 20.3414
      vertex -0.825296 2.54 20.7394
      vertex -1.38717 2.54 20.3414
    endloop
  endfacet
  facet normal 0.387031 -0.869287 -0.307485
    outer loop
      vertex -0.896306 2.75855 20.3414
      vertex -1.38717 2.54 20.3414
      vertex -1.46647 2.54 20.2416
    endloop
  endfacet
  facet normal 0.387031 -0.869287 -0.307485
    outer loop
      vertex -1.55281 2.68954 19.7101
      vertex -0.896306 2.75855 20.3414
      vertex -1.46647 2.54 20.2416
    endloop
  endfacet
  facet normal 0.55931 -0.769822 -0.307485
    outer loop
      vertex -1.55281 2.68954 19.7101
      vertex -1.46647 2.54 20.2416
      vertex -1.75864 2.54 19.7101
    endloop
  endfacet
  facet normal 0.584601 -0.804632 -0.103963
    outer loop
      vertex -1.55281 2.68954 19.7101
      vertex -1.75864 2.54 19.7101
      vertex -1.81183 2.54 19.411
    endloop
  endfacet
  facet normal 0.5846 -0.804633 -0.103962
    outer loop
      vertex -1.5875 2.74963 19.05
      vertex -1.55281 2.68954 19.7101
      vertex -1.81183 2.54 19.411
    endloop
  endfacet
  facet normal 0.5846 -0.804633 -0.103962
    outer loop
      vertex -1.87603 2.54 19.05
      vertex -1.5875 2.74963 19.05
      vertex -1.81183 2.54 19.411
    endloop
  endfacet
  facet normal 0.404532 0.908596 0.103961
    outer loop
      vertex -0.981129 -3.0196 19.05
      vertex -0.959689 -2.95362 18.3899
      vertex -1.5875 -2.74963 19.05
    endloop
  endfacet
  facet normal 0.404532 0.908596 -0.103962
    outer loop
      vertex -1.55281 -2.68954 19.7101
      vertex -0.981129 -3.0196 19.05
      vertex -1.5875 -2.74963 19.05
    endloop
  endfacet
  facet normal 0.404533 0.908595 0.103962
    outer loop
      vertex -0.959689 -2.95362 18.3899
      vertex -1.55281 -2.68954 18.3899
      vertex -1.5875 -2.74963 19.05
    endloop
  endfacet
  facet normal 0.387031 0.869287 0.307485
    outer loop
      vertex -0.959689 -2.95362 18.3899
      vertex -0.896306 -2.75855 17.7586
      vertex -1.55281 -2.68954 18.3899
    endloop
  endfacet
  facet normal 0.404533 0.908595 -0.103961
    outer loop
      vertex -0.959689 -2.95362 19.7101
      vertex -0.981129 -3.0196 19.05
      vertex -1.55281 -2.68954 19.7101
    endloop
  endfacet
  facet normal 0.206785 0.972847 -0.103961
    outer loop
      vertex -0.324626 -3.08861 19.7101
      vertex -0.331878 -3.15761 19.05
      vertex -0.959689 -2.95362 19.7101
    endloop
  endfacet
  facet normal 0.197839 0.930759 -0.307485
    outer loop
      vertex -0.896306 -2.75855 20.3414
      vertex -0.324626 -3.08861 19.7101
      vertex -0.959689 -2.95362 19.7101
    endloop
  endfacet
  facet normal 0.206786 0.972847 -0.103961
    outer loop
      vertex -0.959689 -2.95362 19.7101
      vertex -0.331878 -3.15761 19.05
      vertex -0.981129 -3.0196 19.05
    endloop
  endfacet
  facet normal 0.19784 0.930759 -0.307484
    outer loop
      vertex -0.303186 -2.88462 20.3414
      vertex -0.324626 -3.08861 19.7101
      vertex -0.896306 -2.75855 20.3414
    endloop
  endfacet
  facet normal 0 0.951553 -0.307484
    outer loop
      vertex 0.303186 -2.88462 20.3414
      vertex 0.324626 -3.08861 19.7101
      vertex -0.303186 -2.88462 20.3414
    endloop
  endfacet
  facet normal 0 0.951553 -0.307484
    outer loop
      vertex -0.303186 -2.88462 20.3414
      vertex 0.324626 -3.08861 19.7101
      vertex -0.324626 -3.08861 19.7101
    endloop
  endfacet
  facet normal 0 0.86721 -0.497942
    outer loop
      vertex 0.268495 -2.55456 20.9162
      vertex 0.303186 -2.88462 20.3414
      vertex -0.268495 -2.55456 20.9162
    endloop
  endfacet
  facet normal 0 0.86721 -0.497942
    outer loop
      vertex -0.268495 -2.55456 20.9162
      vertex 0.303186 -2.88462 20.3414
      vertex -0.303186 -2.88462 20.3414
    endloop
  endfacet
  facet normal -0.180304 0.84826 -0.497942
    outer loop
      vertex 0.896306 -2.75855 20.3414
      vertex 0.303186 -2.88462 20.3414
      vertex 0.268495 -2.55456 20.9162
    endloop
  endfacet
  facet normal -0.19784 0.930759 -0.307485
    outer loop
      vertex 0.896306 -2.75855 20.3414
      vertex 0.959689 -2.95362 19.7101
      vertex 0.303186 -2.88462 20.3414
    endloop
  endfacet
  facet normal -0.387031 0.869287 -0.307485
    outer loop
      vertex 1.55281 -2.68954 19.7101
      vertex 0.959689 -2.95362 19.7101
      vertex 0.896306 -2.75855 20.3414
    endloop
  endfacet
  facet normal -0.404533 0.908595 -0.103962
    outer loop
      vertex 1.55281 -2.68954 19.7101
      vertex 1.5875 -2.74963 19.05
      vertex 0.959689 -2.95362 19.7101
    endloop
  endfacet
  facet normal -0.404532 0.908596 -0.103961
    outer loop
      vertex 1.5875 -2.74963 19.05
      vertex 0.981129 -3.0196 19.05
      vertex 0.959689 -2.95362 19.7101
    endloop
  endfacet
  facet normal -0.404532 0.908596 0.103962
    outer loop
      vertex 1.5875 -2.74963 19.05
      vertex 1.55281 -2.68954 18.3899
      vertex 0.981129 -3.0196 19.05
    endloop
  endfacet
  facet normal -0.404533 0.908595 0.103961
    outer loop
      vertex 0.981129 -3.0196 19.05
      vertex 1.55281 -2.68954 18.3899
      vertex 0.959689 -2.95362 18.3899
    endloop
  endfacet
  facet normal -0.206786 0.972847 0.103961
    outer loop
      vertex 0.981129 -3.0196 19.05
      vertex 0.959689 -2.95362 18.3899
      vertex 0.331878 -3.15761 19.05
    endloop
  endfacet
  facet normal -0.206785 0.972847 0.103961
    outer loop
      vertex 0.331878 -3.15761 19.05
      vertex 0.959689 -2.95362 18.3899
      vertex 0.324626 -3.08861 18.3899
    endloop
  endfacet
  facet normal -0.197839 0.930759 0.307485
    outer loop
      vertex 0.959689 -2.95362 18.3899
      vertex 0.896306 -2.75855 17.7586
      vertex 0.324626 -3.08861 18.3899
    endloop
  endfacet
  facet normal -0.19784 0.930759 0.307484
    outer loop
      vertex 0.324626 -3.08861 18.3899
      vertex 0.896306 -2.75855 17.7586
      vertex 0.303186 -2.88462 17.7586
    endloop
  endfacet
  facet normal 0 0.951553 0.307484
    outer loop
      vertex 0.303186 -2.88462 17.7586
      vertex -0.303186 -2.88462 17.7586
      vertex 0.324626 -3.08861 18.3899
    endloop
  endfacet
  facet normal 0 0.951553 0.307484
    outer loop
      vertex 0.324626 -3.08861 18.3899
      vertex -0.303186 -2.88462 17.7586
      vertex -0.324626 -3.08861 18.3899
    endloop
  endfacet
  facet normal 0 0.86721 0.497942
    outer loop
      vertex 0.268495 -2.55456 17.1838
      vertex -0.268495 -2.55456 17.1838
      vertex 0.303186 -2.88462 17.7586
    endloop
  endfacet
  facet normal 0 0.86721 0.497942
    outer loop
      vertex 0.303186 -2.88462 17.7586
      vertex -0.268495 -2.55456 17.1838
      vertex -0.303186 -2.88462 17.7586
    endloop
  endfacet
  facet normal 0.180304 0.84826 0.497942
    outer loop
      vertex -0.303186 -2.88462 17.7586
      vertex -0.268495 -2.55456 17.1838
      vertex -0.896306 -2.75855 17.7586
    endloop
  endfacet
  facet normal 0.19784 0.930759 0.307485
    outer loop
      vertex -0.303186 -2.88462 17.7586
      vertex -0.896306 -2.75855 17.7586
      vertex -0.959689 -2.95362 18.3899
    endloop
  endfacet
  facet normal 0.404533 -0.908595 -0.103962
    outer loop
      vertex -0.959689 2.95362 19.7101
      vertex -1.55281 2.68954 19.7101
      vertex -1.5875 2.74963 19.05
    endloop
  endfacet
  facet normal 0.404532 -0.908596 -0.103961
    outer loop
      vertex -0.981129 3.0196 19.05
      vertex -0.959689 2.95362 19.7101
      vertex -1.5875 2.74963 19.05
    endloop
  endfacet
  facet normal 0.404532 -0.908596 0.103962
    outer loop
      vertex -1.55281 2.68954 18.3899
      vertex -0.981129 3.0196 19.05
      vertex -1.5875 2.74963 19.05
    endloop
  endfacet
  facet normal 0.404533 -0.908595 0.103961
    outer loop
      vertex -0.959689 2.95362 18.3899
      vertex -0.981129 3.0196 19.05
      vertex -1.55281 2.68954 18.3899
    endloop
  endfacet
  facet normal 0.206786 -0.972847 0.103961
    outer loop
      vertex -0.959689 2.95362 18.3899
      vertex -0.331878 3.15761 19.05
      vertex -0.981129 3.0196 19.05
    endloop
  endfacet
  facet normal 0.206785 -0.972847 0.103961
    outer loop
      vertex -0.324626 3.08861 18.3899
      vertex -0.331878 3.15761 19.05
      vertex -0.959689 2.95362 18.3899
    endloop
  endfacet
  facet normal 0.197839 -0.930759 0.307485
    outer loop
      vertex -0.896306 2.75855 17.7586
      vertex -0.324626 3.08861 18.3899
      vertex -0.959689 2.95362 18.3899
    endloop
  endfacet
  facet normal 0.19784 -0.930759 0.307484
    outer loop
      vertex -0.303186 2.88462 17.7586
      vertex -0.324626 3.08861 18.3899
      vertex -0.896306 2.75855 17.7586
    endloop
  endfacet
  facet normal 0 -0.951553 0.307484
    outer loop
      vertex -0.303186 2.88462 17.7586
      vertex 0.303186 2.88462 17.7586
      vertex 0.324626 3.08861 18.3899
    endloop
  endfacet
  facet normal 0 -0.951553 0.307484
    outer loop
      vertex -0.324626 3.08861 18.3899
      vertex -0.303186 2.88462 17.7586
      vertex 0.324626 3.08861 18.3899
    endloop
  endfacet
  facet normal 0 -0.86721 0.497942
    outer loop
      vertex -0.268495 2.55456 17.1838
      vertex 0.268495 2.55456 17.1838
      vertex 0.303186 2.88462 17.7586
    endloop
  endfacet
  facet normal 0 -0.86721 0.497942
    outer loop
      vertex -0.303186 2.88462 17.7586
      vertex -0.268495 2.55456 17.1838
      vertex 0.303186 2.88462 17.7586
    endloop
  endfacet
  facet normal -0.180304 -0.84826 0.497942
    outer loop
      vertex 0.896306 2.75855 17.7586
      vertex 0.303186 2.88462 17.7586
      vertex 0.268495 2.55456 17.1838
    endloop
  endfacet
  facet normal -0.19784 -0.930759 0.307485
    outer loop
      vertex 0.896306 2.75855 17.7586
      vertex 0.959689 2.95362 18.3899
      vertex 0.303186 2.88462 17.7586
    endloop
  endfacet
  facet normal -0.387031 -0.869287 0.307485
    outer loop
      vertex 1.55281 2.68954 18.3899
      vertex 0.959689 2.95362 18.3899
      vertex 0.896306 2.75855 17.7586
    endloop
  endfacet
  facet normal -0.404533 -0.908595 0.103962
    outer loop
      vertex 1.55281 2.68954 18.3899
      vertex 1.5875 2.74963 19.05
      vertex 0.959689 2.95362 18.3899
    endloop
  endfacet
  facet normal -0.404532 -0.908596 0.103961
    outer loop
      vertex 1.5875 2.74963 19.05
      vertex 0.981129 3.0196 19.05
      vertex 0.959689 2.95362 18.3899
    endloop
  endfacet
  facet normal -0.404532 -0.908596 -0.103962
    outer loop
      vertex 1.5875 2.74963 19.05
      vertex 1.55281 2.68954 19.7101
      vertex 0.981129 3.0196 19.05
    endloop
  endfacet
  facet normal -0.404533 -0.908595 -0.103961
    outer loop
      vertex 0.981129 3.0196 19.05
      vertex 1.55281 2.68954 19.7101
      vertex 0.959689 2.95362 19.7101
    endloop
  endfacet
  facet normal -0.206785 -0.972847 -0.103961
    outer loop
      vertex 0.331878 3.15761 19.05
      vertex 0.959689 2.95362 19.7101
      vertex 0.324626 3.08861 19.7101
    endloop
  endfacet
  facet normal -0.197839 -0.930759 -0.307485
    outer loop
      vertex 0.959689 2.95362 19.7101
      vertex 0.896306 2.75855 20.3414
      vertex 0.324626 3.08861 19.7101
    endloop
  endfacet
  facet normal -0.206786 -0.972847 -0.103961
    outer loop
      vertex 0.981129 3.0196 19.05
      vertex 0.959689 2.95362 19.7101
      vertex 0.331878 3.15761 19.05
    endloop
  endfacet
  facet normal -0.19784 -0.930759 -0.307484
    outer loop
      vertex 0.324626 3.08861 19.7101
      vertex 0.896306 2.75855 20.3414
      vertex 0.303186 2.88462 20.3414
    endloop
  endfacet
  facet normal 0 -0.951553 -0.307484
    outer loop
      vertex 0.324626 3.08861 19.7101
      vertex 0.303186 2.88462 20.3414
      vertex -0.303186 2.88462 20.3414
    endloop
  endfacet
  facet normal 0 -0.951553 -0.307484
    outer loop
      vertex -0.324626 3.08861 19.7101
      vertex 0.324626 3.08861 19.7101
      vertex -0.303186 2.88462 20.3414
    endloop
  endfacet
  facet normal 0 -0.86721 -0.497942
    outer loop
      vertex 0.303186 2.88462 20.3414
      vertex 0.268495 2.55456 20.9162
      vertex -0.268495 2.55456 20.9162
    endloop
  endfacet
  facet normal 0 -0.86721 -0.497942
    outer loop
      vertex -0.303186 2.88462 20.3414
      vertex 0.303186 2.88462 20.3414
      vertex -0.268495 2.55456 20.9162
    endloop
  endfacet
  facet normal 0.180304 -0.84826 -0.497942
    outer loop
      vertex -0.303186 2.88462 20.3414
      vertex -0.268495 2.55456 20.9162
      vertex -0.896306 2.75855 20.3414
    endloop
  endfacet
  facet normal 0.19784 -0.930759 -0.307485
    outer loop
      vertex -0.303186 2.88462 20.3414
      vertex -0.896306 2.75855 20.3414
      vertex -0.959689 2.95362 19.7101
    endloop
  endfacet
  facet normal 0.387031 -0.869287 -0.307485
    outer loop
      vertex -0.959689 2.95362 19.7101
      vertex -0.896306 2.75855 20.3414
      vertex -1.55281 2.68954 19.7101
    endloop
  endfacet
  facet normal 0.206786 0.972847 0.103961
    outer loop
      vertex -0.331878 -3.15761 19.05
      vertex -0.324626 -3.08861 18.3899
      vertex -0.981129 -3.0196 19.05
    endloop
  endfacet
  facet normal 0.206785 0.972847 0.103961
    outer loop
      vertex -0.324626 -3.08861 18.3899
      vertex -0.959689 -2.95362 18.3899
      vertex -0.981129 -3.0196 19.05
    endloop
  endfacet
  facet normal 0.197839 0.930759 0.307484
    outer loop
      vertex -0.324626 -3.08861 18.3899
      vertex -0.303186 -2.88462 17.7586
      vertex -0.959689 -2.95362 18.3899
    endloop
  endfacet
  facet normal 0 0.994581 -0.103962
    outer loop
      vertex 0.324626 -3.08861 19.7101
      vertex 0.331878 -3.15761 19.05
      vertex -0.324626 -3.08861 19.7101
    endloop
  endfacet
  facet normal 0 0.994581 -0.103962
    outer loop
      vertex -0.324626 -3.08861 19.7101
      vertex 0.331878 -3.15761 19.05
      vertex -0.331878 -3.15761 19.05
    endloop
  endfacet
  facet normal 0 0.994581 0.103962
    outer loop
      vertex 0.324626 -3.08861 18.3899
      vertex -0.324626 -3.08861 18.3899
      vertex 0.331878 -3.15761 19.05
    endloop
  endfacet
  facet normal 0 0.994581 0.103962
    outer loop
      vertex 0.331878 -3.15761 19.05
      vertex -0.324626 -3.08861 18.3899
      vertex -0.331878 -3.15761 19.05
    endloop
  endfacet
  facet normal -0.206785 0.972847 -0.103961
    outer loop
      vertex 0.959689 -2.95362 19.7101
      vertex 0.981129 -3.0196 19.05
      vertex 0.324626 -3.08861 19.7101
    endloop
  endfacet
  facet normal -0.197839 0.930759 -0.307484
    outer loop
      vertex 0.959689 -2.95362 19.7101
      vertex 0.324626 -3.08861 19.7101
      vertex 0.303186 -2.88462 20.3414
    endloop
  endfacet
  facet normal -0.206786 0.972847 -0.103961
    outer loop
      vertex 0.981129 -3.0196 19.05
      vertex 0.331878 -3.15761 19.05
      vertex 0.324626 -3.08861 19.7101
    endloop
  endfacet
  facet normal 0.197839 -0.930759 -0.307484
    outer loop
      vertex -0.324626 3.08861 19.7101
      vertex -0.303186 2.88462 20.3414
      vertex -0.959689 2.95362 19.7101
    endloop
  endfacet
  facet normal 0.206785 -0.972847 -0.103961
    outer loop
      vertex -0.324626 3.08861 19.7101
      vertex -0.959689 2.95362 19.7101
      vertex -0.981129 3.0196 19.05
    endloop
  endfacet
  facet normal 0.206786 -0.972847 -0.103961
    outer loop
      vertex -0.331878 3.15761 19.05
      vertex -0.324626 3.08861 19.7101
      vertex -0.981129 3.0196 19.05
    endloop
  endfacet
  facet normal 0 -0.994581 -0.103962
    outer loop
      vertex 0.331878 3.15761 19.05
      vertex 0.324626 3.08861 19.7101
      vertex -0.324626 3.08861 19.7101
    endloop
  endfacet
  facet normal 0 -0.994581 -0.103962
    outer loop
      vertex -0.331878 3.15761 19.05
      vertex 0.331878 3.15761 19.05
      vertex -0.324626 3.08861 19.7101
    endloop
  endfacet
  facet normal 0 -0.994581 0.103962
    outer loop
      vertex -0.324626 3.08861 18.3899
      vertex 0.324626 3.08861 18.3899
      vertex 0.331878 3.15761 19.05
    endloop
  endfacet
  facet normal 0 -0.994581 0.103962
    outer loop
      vertex -0.331878 3.15761 19.05
      vertex -0.324626 3.08861 18.3899
      vertex 0.331878 3.15761 19.05
    endloop
  endfacet
  facet normal -0.206786 -0.972847 0.103961
    outer loop
      vertex 0.981129 3.0196 19.05
      vertex 0.331878 3.15761 19.05
      vertex 0.324626 3.08861 18.3899
    endloop
  endfacet
  facet normal -0.206785 -0.972847 0.103961
    outer loop
      vertex 0.959689 2.95362 18.3899
      vertex 0.981129 3.0196 19.05
      vertex 0.324626 3.08861 18.3899
    endloop
  endfacet
  facet normal -0.197839 -0.930759 0.307484
    outer loop
      vertex 0.959689 2.95362 18.3899
      vertex 0.324626 3.08861 18.3899
      vertex 0.303186 2.88462 17.7586
    endloop
  endfacet
endsolid OpenSCAD_Model
